<svg width="219" height="359" viewBox="0 0 219 359" fill="none" xmlns="http://www.w3.org/2000/svg">
<path d="M59.933 191.05V209H57.2705V200.912H47.908V209H45.233V191.05H47.908V198.975H57.2705V191.05H59.933ZM66.2283 196.3V209H63.7908V196.3H66.2283ZM66.6908 192.375C66.6908 192.6 66.645 192.817 66.5533 193.025C66.4617 193.225 66.3367 193.404 66.1783 193.562C66.0283 193.712 65.8492 193.833 65.6408 193.925C65.4325 194.008 65.2158 194.05 64.9908 194.05C64.7658 194.05 64.5533 194.008 64.3533 193.925C64.1533 193.833 63.9742 193.712 63.8158 193.562C63.6658 193.404 63.545 193.225 63.4533 193.025C63.37 192.817 63.3283 192.6 63.3283 192.375C63.3283 192.142 63.37 191.925 63.4533 191.725C63.545 191.517 63.6658 191.337 63.8158 191.187C63.9742 191.029 64.1533 190.908 64.3533 190.825C64.5533 190.733 64.7658 190.687 64.9908 190.687C65.2158 190.687 65.4325 190.733 65.6408 190.825C65.8492 190.908 66.0283 191.029 66.1783 191.187C66.3367 191.337 66.4617 191.517 66.5533 191.725C66.645 191.925 66.6908 192.142 66.6908 192.375ZM74.2199 202.662C74.6533 202.662 75.0324 202.604 75.3574 202.487C75.6908 202.371 75.9658 202.208 76.1824 202C76.4074 201.783 76.5741 201.525 76.6824 201.225C76.7991 200.925 76.8574 200.596 76.8574 200.237C76.8574 199.504 76.6324 198.921 76.1824 198.487C75.7408 198.046 75.0866 197.825 74.2199 197.825C73.3616 197.825 72.7074 198.046 72.2574 198.487C71.8158 198.921 71.5949 199.504 71.5949 200.237C71.5949 200.596 71.6491 200.925 71.7574 201.225C71.8741 201.517 72.0408 201.771 72.2574 201.987C72.4824 202.196 72.7574 202.362 73.0824 202.487C73.4158 202.604 73.7949 202.662 74.2199 202.662ZM78.1074 209.663C78.1074 209.363 78.0241 209.125 77.8574 208.95C77.6908 208.767 77.4616 208.625 77.1699 208.525C76.8866 208.417 76.5533 208.342 76.1699 208.3C75.7866 208.25 75.3824 208.212 74.9574 208.187C74.5408 208.162 74.1116 208.142 73.6699 208.125C73.2283 208.1 72.8033 208.058 72.3949 208C71.9616 208.217 71.6033 208.479 71.3199 208.787C71.0449 209.096 70.9074 209.458 70.9074 209.875C70.9074 210.142 70.9741 210.392 71.1074 210.625C71.2491 210.858 71.4616 211.058 71.7449 211.225C72.0366 211.4 72.3991 211.533 72.8324 211.625C73.2741 211.725 73.7991 211.775 74.4074 211.775C75.0074 211.775 75.5366 211.721 75.9949 211.613C76.4533 211.513 76.8366 211.367 77.1449 211.175C77.4616 210.992 77.6991 210.771 77.8574 210.513C78.0241 210.254 78.1074 209.971 78.1074 209.663ZM80.5824 196.775V197.687C80.5824 197.987 80.3949 198.175 80.0199 198.25L78.6574 198.45C78.7741 198.708 78.8658 198.983 78.9324 199.275C78.9991 199.558 79.0324 199.858 79.0324 200.175C79.0324 200.8 78.9116 201.367 78.6699 201.875C78.4283 202.375 78.0949 202.804 77.6699 203.162C77.2449 203.521 76.7366 203.796 76.1449 203.987C75.5616 204.179 74.9199 204.275 74.2199 204.275C73.6449 204.275 73.1074 204.212 72.6074 204.087C72.3574 204.237 72.1658 204.404 72.0324 204.587C71.9074 204.762 71.8449 204.937 71.8449 205.112C71.8449 205.404 71.9658 205.621 72.2074 205.762C72.4574 205.904 72.7783 206.008 73.1699 206.075C73.5699 206.133 74.0241 206.171 74.5324 206.187C75.0491 206.204 75.5699 206.233 76.0949 206.275C76.6283 206.308 77.1491 206.375 77.6574 206.475C78.1741 206.567 78.6283 206.721 79.0199 206.937C79.4199 207.146 79.7408 207.437 79.9824 207.812C80.2324 208.179 80.3574 208.658 80.3574 209.25C80.3574 209.8 80.2199 210.333 79.9449 210.85C79.6783 211.367 79.2866 211.825 78.7699 212.225C78.2533 212.625 77.6241 212.946 76.8824 213.188C76.1408 213.429 75.2991 213.55 74.3574 213.55C73.4158 213.55 72.5949 213.458 71.8949 213.275C71.2033 213.092 70.6241 212.846 70.1574 212.538C69.6991 212.229 69.3533 211.871 69.1199 211.463C68.8949 211.054 68.7824 210.629 68.7824 210.188C68.7824 209.571 68.9741 209.05 69.3574 208.625C69.7408 208.192 70.2699 207.854 70.9449 207.612C70.5783 207.446 70.2866 207.221 70.0699 206.937C69.8533 206.646 69.7449 206.262 69.7449 205.788C69.7449 205.604 69.7783 205.417 69.8449 205.225C69.9116 205.025 70.0116 204.829 70.1449 204.637C70.2866 204.437 70.4574 204.25 70.6574 204.075C70.8658 203.9 71.1033 203.742 71.3699 203.6C70.7449 203.25 70.2533 202.787 69.8949 202.212C69.5366 201.629 69.3574 200.95 69.3574 200.175C69.3574 199.55 69.4783 198.987 69.7199 198.487C69.9616 197.987 70.2949 197.558 70.7199 197.2C71.1533 196.842 71.6658 196.567 72.2574 196.375C72.8574 196.183 73.5116 196.088 74.2199 196.088C75.3199 196.088 76.2658 196.317 77.0574 196.775H80.5824ZM85.2564 197.912C85.7898 197.371 86.3773 196.933 87.0189 196.6C87.6689 196.267 88.4148 196.1 89.2564 196.1C89.9564 196.1 90.5689 196.217 91.0939 196.45C91.6273 196.683 92.0731 197.012 92.4314 197.437C92.7898 197.854 93.0606 198.358 93.2439 198.95C93.4273 199.542 93.5189 200.196 93.5189 200.912V209H91.0689V200.912C91.0689 200.004 90.8606 199.3 90.4439 198.8C90.0273 198.292 89.3898 198.037 88.5314 198.037C87.9064 198.037 87.3189 198.187 86.7689 198.487C86.2273 198.779 85.7231 199.179 85.2564 199.687V209H82.8189V190.55H85.2564V197.912ZM111.319 199.375C110.944 198.867 110.515 198.504 110.031 198.287C109.556 198.071 109.036 197.962 108.469 197.962C107.352 197.962 106.486 198.367 105.869 199.175C105.261 199.975 104.956 201.146 104.956 202.688C104.956 203.496 105.023 204.187 105.156 204.762C105.298 205.329 105.498 205.796 105.756 206.162C106.023 206.521 106.348 206.787 106.731 206.962C107.115 207.129 107.548 207.212 108.031 207.212C108.74 207.212 109.352 207.054 109.869 206.737C110.386 206.421 110.869 205.975 111.319 205.4V199.375ZM113.769 196.3V213.263H111.319V207.187C110.794 207.787 110.198 208.271 109.531 208.637C108.865 208.996 108.094 209.175 107.219 209.175C106.494 209.175 105.836 209.033 105.244 208.75C104.661 208.467 104.161 208.054 103.744 207.512C103.327 206.962 103.006 206.283 102.781 205.475C102.556 204.667 102.444 203.737 102.444 202.688C102.444 201.746 102.569 200.871 102.819 200.062C103.069 199.254 103.431 198.554 103.906 197.962C104.381 197.371 104.956 196.908 105.631 196.575C106.306 196.233 107.069 196.062 107.919 196.062C108.327 196.062 108.702 196.1 109.044 196.175C109.386 196.25 109.702 196.358 109.994 196.5C110.286 196.642 110.552 196.812 110.794 197.012C111.044 197.212 111.277 197.442 111.494 197.7L111.656 196.787C111.74 196.462 111.952 196.3 112.294 196.3H113.769ZM127.732 196.3V209H126.27C125.936 209 125.72 208.837 125.62 208.512L125.445 207.237C125.17 207.529 124.882 207.796 124.582 208.037C124.282 208.279 123.961 208.487 123.62 208.662C123.278 208.829 122.915 208.958 122.532 209.05C122.149 209.15 121.736 209.2 121.295 209.2C120.595 209.2 119.978 209.083 119.445 208.85C118.92 208.617 118.478 208.292 118.12 207.875C117.761 207.45 117.49 206.942 117.307 206.35C117.124 205.758 117.032 205.104 117.032 204.387V196.3H119.482V204.387C119.482 205.296 119.69 206.004 120.107 206.512C120.524 207.012 121.161 207.262 122.02 207.262C122.645 207.262 123.228 207.117 123.77 206.825C124.311 206.525 124.82 206.117 125.295 205.6V196.3H127.732ZM137.959 203.362C136.968 203.396 136.126 203.475 135.434 203.6C134.743 203.717 134.18 203.875 133.747 204.075C133.314 204.275 133.001 204.512 132.809 204.787C132.618 205.054 132.522 205.354 132.522 205.687C132.522 206.004 132.572 206.279 132.672 206.512C132.78 206.737 132.922 206.925 133.097 207.075C133.28 207.217 133.493 207.321 133.734 207.387C133.976 207.454 134.239 207.487 134.522 207.487C134.897 207.487 135.239 207.45 135.547 207.375C135.864 207.3 136.159 207.196 136.434 207.062C136.709 206.921 136.972 206.75 137.222 206.55C137.472 206.35 137.718 206.121 137.959 205.862V203.362ZM130.809 198.075C131.518 197.4 132.284 196.896 133.109 196.562C133.943 196.229 134.855 196.062 135.847 196.062C136.572 196.062 137.214 196.183 137.772 196.425C138.33 196.658 138.801 196.987 139.184 197.412C139.568 197.837 139.855 198.346 140.047 198.937C140.247 199.529 140.347 200.183 140.347 200.9V209H139.259C139.018 209 138.834 208.962 138.709 208.887C138.584 208.804 138.484 208.654 138.409 208.437L138.147 207.325C137.822 207.625 137.501 207.892 137.184 208.125C136.868 208.35 136.534 208.546 136.184 208.712C135.843 208.871 135.476 208.992 135.084 209.075C134.693 209.158 134.259 209.2 133.784 209.2C133.284 209.2 132.814 209.133 132.372 209C131.939 208.858 131.559 208.646 131.234 208.362C130.909 208.079 130.651 207.725 130.459 207.3C130.276 206.875 130.184 206.379 130.184 205.812C130.184 205.312 130.318 204.833 130.584 204.375C130.859 203.908 131.301 203.492 131.909 203.125C132.526 202.758 133.326 202.458 134.309 202.225C135.301 201.992 136.518 201.858 137.959 201.825V200.9C137.959 199.942 137.755 199.225 137.347 198.75C136.939 198.275 136.339 198.037 135.547 198.037C135.014 198.037 134.564 198.104 134.197 198.237C133.839 198.371 133.526 198.521 133.259 198.687C133.001 198.846 132.772 198.992 132.572 199.125C132.38 199.258 132.18 199.325 131.972 199.325C131.805 199.325 131.659 199.279 131.534 199.187C131.418 199.096 131.322 198.987 131.247 198.862L130.809 198.075ZM146.11 190.55V209H143.66V190.55H146.11ZM152.141 196.3V209H149.704V196.3H152.141ZM152.604 192.375C152.604 192.6 152.558 192.817 152.466 193.025C152.375 193.225 152.25 193.404 152.091 193.562C151.941 193.712 151.762 193.833 151.554 193.925C151.346 194.008 151.129 194.05 150.904 194.05C150.679 194.05 150.466 194.008 150.266 193.925C150.066 193.833 149.887 193.712 149.729 193.562C149.579 193.404 149.458 193.225 149.366 193.025C149.283 192.817 149.241 192.6 149.241 192.375C149.241 192.142 149.283 191.925 149.366 191.725C149.458 191.517 149.579 191.337 149.729 191.187C149.887 191.029 150.066 190.908 150.266 190.825C150.466 190.733 150.679 190.687 150.904 190.687C151.129 190.687 151.346 190.733 151.554 190.825C151.762 190.908 151.941 191.029 152.091 191.187C152.25 191.337 152.375 191.517 152.466 191.725C152.558 191.925 152.604 192.142 152.604 192.375ZM159.646 209.2C158.621 209.2 157.829 208.912 157.271 208.337C156.721 207.762 156.446 206.942 156.446 205.875V198.275H154.971C154.829 198.275 154.708 198.233 154.608 198.15C154.516 198.058 154.471 197.925 154.471 197.75V196.762L156.533 196.475L157.083 192.687C157.116 192.546 157.179 192.437 157.271 192.362C157.371 192.279 157.496 192.237 157.646 192.237H158.883V196.5H162.483V198.275H158.883V205.712C158.883 206.212 159.004 206.587 159.246 206.837C159.496 207.079 159.812 207.2 160.196 207.2C160.421 207.2 160.612 207.171 160.771 207.112C160.937 207.054 161.079 206.992 161.196 206.925C161.312 206.85 161.412 206.783 161.496 206.725C161.579 206.667 161.654 206.637 161.721 206.637C161.804 206.637 161.866 206.658 161.908 206.7C161.958 206.733 162.008 206.792 162.058 206.875L162.783 208.05C162.383 208.417 161.908 208.7 161.358 208.9C160.808 209.1 160.237 209.2 159.646 209.2ZM175.828 196.3L168.778 212.688C168.703 212.871 168.603 213.013 168.478 213.113C168.353 213.213 168.17 213.263 167.928 213.263H166.116L168.441 208.2L163.228 196.3H165.353C165.561 196.3 165.724 196.35 165.841 196.45C165.957 196.55 166.041 196.662 166.091 196.787L169.316 204.412C169.382 204.604 169.445 204.8 169.503 205C169.57 205.192 169.624 205.383 169.666 205.575C169.724 205.375 169.786 205.179 169.853 204.987C169.92 204.787 169.991 204.592 170.066 204.4L173.178 196.787C173.236 196.646 173.328 196.529 173.453 196.438C173.578 196.346 173.72 196.3 173.878 196.3H175.828Z" fill="#050C26"/>
<path d="M20.1053 249.52H15.2413L14.3453 252H12.8092L16.8413 240.912H18.5213L22.5373 252H21.0013L20.1053 249.52ZM19.6893 248.336L17.6733 242.704L15.6573 248.336H19.6893ZM28.5665 243.072C29.6332 243.072 30.4972 243.397 31.1585 244.048C31.8198 244.688 32.1505 245.616 32.1505 246.832V252H30.7105V247.04C30.7105 246.165 30.4918 245.499 30.0545 245.04C29.6172 244.571 29.0198 244.336 28.2625 244.336C27.4945 244.336 26.8812 244.576 26.4225 245.056C25.9745 245.536 25.7505 246.235 25.7505 247.152V252H24.2945V243.232H25.7505V244.48C26.0385 244.032 26.4278 243.685 26.9185 243.44C27.4198 243.195 27.9692 243.072 28.5665 243.072ZM38.2505 247.584C38.2505 246.688 38.4318 245.904 38.7945 245.232C39.1572 244.549 39.6532 244.021 40.2825 243.648C40.9225 243.275 41.6318 243.088 42.4105 243.088C43.1785 243.088 43.8452 243.253 44.4105 243.584C44.9758 243.915 45.3972 244.331 45.6745 244.832V243.232H47.1465V252H45.6745V250.368C45.3865 250.88 44.9545 251.307 44.3785 251.648C43.8132 251.979 43.1518 252.144 42.3945 252.144C41.6158 252.144 40.9118 251.952 40.2825 251.568C39.6532 251.184 39.1572 250.645 38.7945 249.952C38.4318 249.259 38.2505 248.469 38.2505 247.584ZM45.6745 247.6C45.6745 246.939 45.5412 246.363 45.2745 245.872C45.0078 245.381 44.6452 245.008 44.1865 244.752C43.7385 244.485 43.2425 244.352 42.6985 244.352C42.1545 244.352 41.6585 244.48 41.2105 244.736C40.7625 244.992 40.4052 245.365 40.1385 245.856C39.8718 246.347 39.7385 246.923 39.7385 247.584C39.7385 248.256 39.8718 248.843 40.1385 249.344C40.4052 249.835 40.7625 250.213 41.2105 250.48C41.6585 250.736 42.1545 250.864 42.6985 250.864C43.2425 250.864 43.7385 250.736 44.1865 250.48C44.6452 250.213 45.0078 249.835 45.2745 249.344C45.5412 248.843 45.6745 248.261 45.6745 247.6ZM53.223 243.088C53.9803 243.088 54.6417 243.253 55.207 243.584C55.783 243.915 56.2097 244.331 56.487 244.832V243.232H57.959V252.192C57.959 252.992 57.7883 253.701 57.447 254.32C57.1057 254.949 56.615 255.44 55.975 255.792C55.3457 256.144 54.6097 256.32 53.767 256.32C52.615 256.32 51.655 256.048 50.887 255.504C50.119 254.96 49.6657 254.219 49.527 253.28H50.967C51.127 253.813 51.4577 254.24 51.959 254.56C52.4603 254.891 53.063 255.056 53.767 255.056C54.567 255.056 55.2177 254.805 55.719 254.304C56.231 253.803 56.487 253.099 56.487 252.192V250.352C56.199 250.864 55.7723 251.291 55.207 251.632C54.6417 251.973 53.9803 252.144 53.223 252.144C52.4443 252.144 51.735 251.952 51.095 251.568C50.4657 251.184 49.9697 250.645 49.607 249.952C49.2443 249.259 49.063 248.469 49.063 247.584C49.063 246.688 49.2443 245.904 49.607 245.232C49.9697 244.549 50.4657 244.021 51.095 243.648C51.735 243.275 52.4443 243.088 53.223 243.088ZM56.487 247.6C56.487 246.939 56.3537 246.363 56.087 245.872C55.8203 245.381 55.4577 245.008 54.999 244.752C54.551 244.485 54.055 244.352 53.511 244.352C52.967 244.352 52.471 244.48 52.023 244.736C51.575 244.992 51.2177 245.365 50.951 245.856C50.6843 246.347 50.551 246.923 50.551 247.584C50.551 248.256 50.6843 248.843 50.951 249.344C51.2177 249.835 51.575 250.213 52.023 250.48C52.471 250.736 52.967 250.864 53.511 250.864C54.055 250.864 54.551 250.736 54.999 250.48C55.4577 250.213 55.8203 249.835 56.087 249.344C56.3537 248.843 56.487 248.261 56.487 247.6ZM68.4195 247.28C68.4195 247.557 68.4035 247.851 68.3715 248.16H61.3635C61.4168 249.024 61.7102 249.701 62.2435 250.192C62.7875 250.672 63.4435 250.912 64.2115 250.912C64.8408 250.912 65.3635 250.768 65.7795 250.48C66.2062 250.181 66.5048 249.787 66.6755 249.296H68.2435C68.0088 250.139 67.5395 250.827 66.8355 251.36C66.1315 251.883 65.2568 252.144 64.2115 252.144C63.3795 252.144 62.6328 251.957 61.9715 251.584C61.3208 251.211 60.8088 250.683 60.4355 250C60.0622 249.307 59.8755 248.507 59.8755 247.6C59.8755 246.693 60.0568 245.899 60.4195 245.216C60.7822 244.533 61.2888 244.011 61.9395 243.648C62.6008 243.275 63.3582 243.088 64.2115 243.088C65.0435 243.088 65.7795 243.269 66.4195 243.632C67.0595 243.995 67.5502 244.496 67.8915 245.136C68.2435 245.765 68.4195 246.48 68.4195 247.28ZM66.9155 246.976C66.9155 246.421 66.7928 245.947 66.5475 245.552C66.3022 245.147 65.9662 244.843 65.5395 244.64C65.1235 244.427 64.6595 244.32 64.1475 244.32C63.4115 244.32 62.7822 244.555 62.2595 245.024C61.7475 245.493 61.4542 246.144 61.3795 246.976H66.9155ZM74.6134 243.072C75.68 243.072 76.544 243.397 77.2054 244.048C77.8667 244.688 78.1974 245.616 78.1974 246.832V252H76.7574V247.04C76.7574 246.165 76.5387 245.499 76.1014 245.04C75.664 244.571 75.0667 244.336 74.3094 244.336C73.5414 244.336 72.928 244.576 72.4694 245.056C72.0214 245.536 71.7974 246.235 71.7974 247.152V252H70.3414V243.232H71.7974V244.48C72.0854 244.032 72.4747 243.685 72.9654 243.44C73.4667 243.195 74.016 243.072 74.6134 243.072ZM80.0318 247.6C80.0318 246.693 80.2131 245.904 80.5758 245.232C80.9384 244.549 81.4398 244.021 82.0798 243.648C82.7304 243.275 83.4718 243.088 84.3038 243.088C85.3811 243.088 86.2664 243.349 86.9598 243.872C87.6638 244.395 88.1278 245.12 88.3518 246.048H86.7838C86.6344 245.515 86.3411 245.093 85.9038 244.784C85.4771 244.475 84.9438 244.32 84.3038 244.32C83.4718 244.32 82.7998 244.608 82.2878 245.184C81.7758 245.749 81.5198 246.555 81.5198 247.6C81.5198 248.656 81.7758 249.472 82.2878 250.048C82.7998 250.624 83.4718 250.912 84.3038 250.912C84.9438 250.912 85.4771 250.763 85.9038 250.464C86.3304 250.165 86.6238 249.739 86.7838 249.184H88.3518C88.1171 250.08 87.6478 250.8 86.9438 251.344C86.2398 251.877 85.3598 252.144 84.3038 252.144C83.4718 252.144 82.7304 251.957 82.0798 251.584C81.4398 251.211 80.9384 250.683 80.5758 250C80.2131 249.317 80.0318 248.517 80.0318 247.6ZM97.8465 243.232L92.5665 256.128H91.0625L92.7905 251.904L89.2545 243.232H90.8705L93.6225 250.336L96.3425 243.232H97.8465ZM105.032 244.848C105.32 244.347 105.746 243.931 106.312 243.6C106.888 243.259 107.554 243.088 108.312 243.088C109.09 243.088 109.794 243.275 110.424 243.648C111.064 244.021 111.565 244.549 111.928 245.232C112.29 245.904 112.472 246.688 112.472 247.584C112.472 248.469 112.29 249.259 111.928 249.952C111.565 250.645 111.064 251.184 110.424 251.568C109.794 251.952 109.09 252.144 108.312 252.144C107.565 252.144 106.904 251.979 106.328 251.648C105.762 251.307 105.33 250.885 105.032 250.384V256.16H103.576V243.232H105.032V244.848ZM110.984 247.584C110.984 246.923 110.85 246.347 110.584 245.856C110.317 245.365 109.954 244.992 109.496 244.736C109.048 244.48 108.552 244.352 108.008 244.352C107.474 244.352 106.978 244.485 106.52 244.752C106.072 245.008 105.709 245.387 105.432 245.888C105.165 246.379 105.032 246.949 105.032 247.6C105.032 248.261 105.165 248.843 105.432 249.344C105.709 249.835 106.072 250.213 106.52 250.48C106.978 250.736 107.474 250.864 108.008 250.864C108.552 250.864 109.048 250.736 109.496 250.48C109.954 250.213 110.317 249.835 110.584 249.344C110.85 248.843 110.984 248.256 110.984 247.584ZM118.74 243.072C119.402 243.072 119.999 243.216 120.532 243.504C121.066 243.781 121.482 244.203 121.78 244.768C122.09 245.333 122.244 246.021 122.244 246.832V252H120.804V247.04C120.804 246.165 120.586 245.499 120.148 245.04C119.711 244.571 119.114 244.336 118.356 244.336C117.588 244.336 116.975 244.576 116.516 245.056C116.068 245.536 115.844 246.235 115.844 247.152V252H114.388V240.16H115.844V244.48C116.132 244.032 116.527 243.685 117.028 243.44C117.54 243.195 118.111 243.072 118.74 243.072ZM125.375 241.808C125.097 241.808 124.863 241.712 124.671 241.52C124.479 241.328 124.383 241.093 124.383 240.816C124.383 240.539 124.479 240.304 124.671 240.112C124.863 239.92 125.097 239.824 125.375 239.824C125.641 239.824 125.865 239.92 126.047 240.112C126.239 240.304 126.335 240.539 126.335 240.816C126.335 241.093 126.239 241.328 126.047 241.52C125.865 241.712 125.641 241.808 125.375 241.808ZM126.079 243.232V252H124.623V243.232H126.079ZM130.016 240.16V252H128.56V240.16H130.016ZM136.322 252.144C135.5 252.144 134.754 251.957 134.082 251.584C133.42 251.211 132.898 250.683 132.514 250C132.14 249.307 131.954 248.507 131.954 247.6C131.954 246.704 132.146 245.915 132.53 245.232C132.924 244.539 133.458 244.011 134.13 243.648C134.802 243.275 135.554 243.088 136.386 243.088C137.218 243.088 137.97 243.275 138.642 243.648C139.314 244.011 139.842 244.533 140.226 245.216C140.62 245.899 140.818 246.693 140.818 247.6C140.818 248.507 140.615 249.307 140.21 250C139.815 250.683 139.276 251.211 138.594 251.584C137.911 251.957 137.154 252.144 136.322 252.144ZM136.322 250.864C136.844 250.864 137.335 250.741 137.794 250.496C138.252 250.251 138.62 249.883 138.898 249.392C139.186 248.901 139.33 248.304 139.33 247.6C139.33 246.896 139.191 246.299 138.914 245.808C138.636 245.317 138.274 244.955 137.826 244.72C137.378 244.475 136.892 244.352 136.37 244.352C135.836 244.352 135.346 244.475 134.898 244.72C134.46 244.955 134.108 245.317 133.842 245.808C133.575 246.299 133.442 246.896 133.442 247.6C133.442 248.315 133.57 248.917 133.826 249.408C134.092 249.899 134.444 250.267 134.882 250.512C135.319 250.747 135.799 250.864 136.322 250.864ZM145.836 252.144C145.164 252.144 144.561 252.032 144.028 251.808C143.495 251.573 143.073 251.253 142.764 250.848C142.455 250.432 142.284 249.957 142.252 249.424H143.756C143.799 249.861 144.001 250.219 144.364 250.496C144.737 250.773 145.223 250.912 145.82 250.912C146.375 250.912 146.812 250.789 147.132 250.544C147.452 250.299 147.612 249.989 147.612 249.616C147.612 249.232 147.441 248.949 147.1 248.768C146.759 248.576 146.231 248.389 145.516 248.208C144.865 248.037 144.332 247.867 143.916 247.696C143.511 247.515 143.159 247.253 142.86 246.912C142.572 246.56 142.428 246.101 142.428 245.536C142.428 245.088 142.561 244.677 142.828 244.304C143.095 243.931 143.473 243.637 143.964 243.424C144.455 243.2 145.015 243.088 145.644 243.088C146.615 243.088 147.399 243.333 147.996 243.824C148.593 244.315 148.913 244.987 148.956 245.84H147.5C147.468 245.381 147.281 245.013 146.94 244.736C146.609 244.459 146.161 244.32 145.596 244.32C145.073 244.32 144.657 244.432 144.348 244.656C144.039 244.88 143.884 245.173 143.884 245.536C143.884 245.824 143.975 246.064 144.156 246.256C144.348 246.437 144.583 246.587 144.86 246.704C145.148 246.811 145.543 246.933 146.044 247.072C146.673 247.243 147.185 247.413 147.58 247.584C147.975 247.744 148.311 247.989 148.588 248.32C148.876 248.651 149.025 249.083 149.036 249.616C149.036 250.096 148.903 250.528 148.636 250.912C148.369 251.296 147.991 251.6 147.5 251.824C147.02 252.037 146.465 252.144 145.836 252.144ZM154.915 252.144C154.094 252.144 153.347 251.957 152.675 251.584C152.014 251.211 151.491 250.683 151.107 250C150.734 249.307 150.547 248.507 150.547 247.6C150.547 246.704 150.739 245.915 151.123 245.232C151.518 244.539 152.051 244.011 152.723 243.648C153.395 243.275 154.147 243.088 154.979 243.088C155.811 243.088 156.563 243.275 157.235 243.648C157.907 244.011 158.435 244.533 158.819 245.216C159.214 245.899 159.411 246.693 159.411 247.6C159.411 248.507 159.209 249.307 158.803 250C158.409 250.683 157.87 251.211 157.187 251.584C156.505 251.957 155.747 252.144 154.915 252.144ZM154.915 250.864C155.438 250.864 155.929 250.741 156.387 250.496C156.846 250.251 157.214 249.883 157.491 249.392C157.779 248.901 157.923 248.304 157.923 247.6C157.923 246.896 157.785 246.299 157.507 245.808C157.23 245.317 156.867 244.955 156.419 244.72C155.971 244.475 155.486 244.352 154.963 244.352C154.43 244.352 153.939 244.475 153.491 244.72C153.054 244.955 152.702 245.317 152.435 245.808C152.169 246.299 152.035 246.896 152.035 247.6C152.035 248.315 152.163 248.917 152.419 249.408C152.686 249.899 153.038 250.267 153.475 250.512C153.913 250.747 154.393 250.864 154.915 250.864ZM162.782 244.848C163.07 244.347 163.496 243.931 164.062 243.6C164.638 243.259 165.304 243.088 166.062 243.088C166.84 243.088 167.544 243.275 168.174 243.648C168.814 244.021 169.315 244.549 169.678 245.232C170.04 245.904 170.222 246.688 170.222 247.584C170.222 248.469 170.04 249.259 169.678 249.952C169.315 250.645 168.814 251.184 168.174 251.568C167.544 251.952 166.84 252.144 166.062 252.144C165.315 252.144 164.654 251.979 164.078 251.648C163.512 251.307 163.08 250.885 162.782 250.384V256.16H161.326V243.232H162.782V244.848ZM168.734 247.584C168.734 246.923 168.6 246.347 168.334 245.856C168.067 245.365 167.704 244.992 167.246 244.736C166.798 244.48 166.302 244.352 165.758 244.352C165.224 244.352 164.728 244.485 164.27 244.752C163.822 245.008 163.459 245.387 163.182 245.888C162.915 246.379 162.782 246.949 162.782 247.6C162.782 248.261 162.915 248.843 163.182 249.344C163.459 249.835 163.822 250.213 164.27 250.48C164.728 250.736 165.224 250.864 165.758 250.864C166.302 250.864 166.798 250.736 167.246 250.48C167.704 250.213 168.067 249.835 168.334 249.344C168.6 248.843 168.734 248.256 168.734 247.584ZM176.49 243.072C177.152 243.072 177.749 243.216 178.282 243.504C178.816 243.781 179.232 244.203 179.53 244.768C179.84 245.333 179.994 246.021 179.994 246.832V252H178.554V247.04C178.554 246.165 178.336 245.499 177.898 245.04C177.461 244.571 176.864 244.336 176.106 244.336C175.338 244.336 174.725 244.576 174.266 245.056C173.818 245.536 173.594 246.235 173.594 247.152V252H172.138V240.16H173.594V244.48C173.882 244.032 174.277 243.685 174.778 243.44C175.29 243.195 175.861 243.072 176.49 243.072ZM189.925 243.232L184.645 256.128H183.141L184.869 251.904L181.333 243.232H182.949L185.701 250.336L188.421 243.232H189.925ZM196.406 241.808C196.129 241.808 195.894 241.712 195.702 241.52C195.51 241.328 195.414 241.093 195.414 240.816C195.414 240.539 195.51 240.304 195.702 240.112C195.894 239.92 196.129 239.824 196.406 239.824C196.673 239.824 196.897 239.92 197.078 240.112C197.27 240.304 197.366 240.539 197.366 240.816C197.366 241.093 197.27 241.328 197.078 241.52C196.897 241.712 196.673 241.808 196.406 241.808ZM197.11 243.232V252H195.654V243.232H197.11ZM202.695 252.144C202.023 252.144 201.421 252.032 200.887 251.808C200.354 251.573 199.933 251.253 199.623 250.848C199.314 250.432 199.143 249.957 199.111 249.424H200.615C200.658 249.861 200.861 250.219 201.223 250.496C201.597 250.773 202.082 250.912 202.679 250.912C203.234 250.912 203.671 250.789 203.991 250.544C204.311 250.299 204.471 249.989 204.471 249.616C204.471 249.232 204.301 248.949 203.959 248.768C203.618 248.576 203.09 248.389 202.375 248.208C201.725 248.037 201.191 247.867 200.775 247.696C200.37 247.515 200.018 247.253 199.719 246.912C199.431 246.56 199.287 246.101 199.287 245.536C199.287 245.088 199.421 244.677 199.687 244.304C199.954 243.931 200.333 243.637 200.823 243.424C201.314 243.2 201.874 243.088 202.503 243.088C203.474 243.088 204.258 243.333 204.855 243.824C205.453 244.315 205.773 244.987 205.815 245.84H204.359C204.327 245.381 204.141 245.013 203.799 244.736C203.469 244.459 203.021 244.32 202.455 244.32C201.933 244.32 201.517 244.432 201.207 244.656C200.898 244.88 200.743 245.173 200.743 245.536C200.743 245.824 200.834 246.064 201.015 246.256C201.207 246.437 201.442 246.587 201.719 246.704C202.007 246.811 202.402 246.933 202.903 247.072C203.533 247.243 204.045 247.413 204.439 247.584C204.834 247.744 205.17 247.989 205.447 248.32C205.735 248.651 205.885 249.083 205.895 249.616C205.895 250.096 205.762 250.528 205.495 250.912C205.229 251.296 204.85 251.6 204.359 251.824C203.879 252.037 203.325 252.144 202.695 252.144ZM30.3443 273.584C30.3443 272.688 30.5256 271.904 30.8883 271.232C31.2509 270.549 31.7469 270.021 32.3763 269.648C33.0163 269.275 33.7309 269.088 34.5203 269.088C35.2029 269.088 35.8376 269.248 36.4243 269.568C37.0109 269.877 37.4589 270.288 37.7683 270.8V266.16H39.2403V278H37.7683V276.352C37.4803 276.875 37.0536 277.307 36.4883 277.648C35.9229 277.979 35.2616 278.144 34.5043 278.144C33.7256 278.144 33.0163 277.952 32.3763 277.568C31.7469 277.184 31.2509 276.645 30.8883 275.952C30.5256 275.259 30.3443 274.469 30.3443 273.584ZM37.7683 273.6C37.7683 272.939 37.6349 272.363 37.3683 271.872C37.1016 271.381 36.7389 271.008 36.2803 270.752C35.8323 270.485 35.3363 270.352 34.7923 270.352C34.2483 270.352 33.7523 270.48 33.3043 270.736C32.8563 270.992 32.4989 271.365 32.2323 271.856C31.9656 272.347 31.8323 272.923 31.8323 273.584C31.8323 274.256 31.9656 274.843 32.2323 275.344C32.4989 275.835 32.8563 276.213 33.3043 276.48C33.7523 276.736 34.2483 276.864 34.7923 276.864C35.3363 276.864 35.8323 276.736 36.2803 276.48C36.7389 276.213 37.1016 275.835 37.3683 275.344C37.6349 274.843 37.7683 274.261 37.7683 273.6ZM42.4528 267.808C42.1754 267.808 41.9408 267.712 41.7488 267.52C41.5568 267.328 41.4608 267.093 41.4608 266.816C41.4608 266.539 41.5568 266.304 41.7488 266.112C41.9408 265.92 42.1754 265.824 42.4528 265.824C42.7194 265.824 42.9434 265.92 43.1248 266.112C43.3168 266.304 43.4128 266.539 43.4128 266.816C43.4128 267.093 43.3168 267.328 43.1248 267.52C42.9434 267.712 42.7194 267.808 42.4528 267.808ZM43.1568 269.232V278H41.7008V269.232H43.1568ZM48.7423 278.144C48.0703 278.144 47.4676 278.032 46.9343 277.808C46.4009 277.573 45.9796 277.253 45.6703 276.848C45.3609 276.432 45.1903 275.957 45.1583 275.424H46.6623C46.7049 275.861 46.9076 276.219 47.2703 276.496C47.6436 276.773 48.1289 276.912 48.7263 276.912C49.2809 276.912 49.7183 276.789 50.0383 276.544C50.3583 276.299 50.5183 275.989 50.5183 275.616C50.5183 275.232 50.3476 274.949 50.0063 274.768C49.6649 274.576 49.1369 274.389 48.4223 274.208C47.7716 274.037 47.2383 273.867 46.8223 273.696C46.4169 273.515 46.0649 273.253 45.7663 272.912C45.4783 272.56 45.3343 272.101 45.3343 271.536C45.3343 271.088 45.4676 270.677 45.7343 270.304C46.0009 269.931 46.3796 269.637 46.8703 269.424C47.3609 269.2 47.9209 269.088 48.5503 269.088C49.5209 269.088 50.3049 269.333 50.9023 269.824C51.4996 270.315 51.8196 270.987 51.8623 271.84H50.4063C50.3743 271.381 50.1876 271.013 49.8463 270.736C49.5156 270.459 49.0676 270.32 48.5023 270.32C47.9796 270.32 47.5636 270.432 47.2543 270.656C46.9449 270.88 46.7903 271.173 46.7903 271.536C46.7903 271.824 46.8809 272.064 47.0623 272.256C47.2543 272.437 47.4889 272.587 47.7663 272.704C48.0543 272.811 48.4489 272.933 48.9503 273.072C49.5796 273.243 50.0916 273.413 50.4863 273.584C50.8809 273.744 51.2169 273.989 51.4943 274.32C51.7823 274.651 51.9316 275.083 51.9423 275.616C51.9423 276.096 51.8089 276.528 51.5423 276.912C51.2756 277.296 50.8969 277.6 50.4063 277.824C49.9263 278.037 49.3716 278.144 48.7423 278.144ZM55.7736 270.432V275.6C55.7736 276.027 55.8643 276.331 56.0456 276.512C56.227 276.683 56.5416 276.768 56.9896 276.768H58.0616V278H56.7496C55.939 278 55.331 277.813 54.9256 277.44C54.5203 277.067 54.3176 276.453 54.3176 275.6V270.432H53.1816V269.232H54.3176V267.024H55.7736V269.232H58.0616V270.432H55.7736ZM60.5778 267.808C60.3004 267.808 60.0658 267.712 59.8738 267.52C59.6818 267.328 59.5858 267.093 59.5858 266.816C59.5858 266.539 59.6818 266.304 59.8738 266.112C60.0658 265.92 60.3004 265.824 60.5778 265.824C60.8444 265.824 61.0684 265.92 61.2498 266.112C61.4418 266.304 61.5378 266.539 61.5378 266.816C61.5378 267.093 61.4418 267.328 61.2498 267.52C61.0684 267.712 60.8444 267.808 60.5778 267.808ZM61.2818 269.232V278H59.8258V269.232H61.2818ZM68.0353 269.072C69.1019 269.072 69.9659 269.397 70.6273 270.048C71.2886 270.688 71.6193 271.616 71.6193 272.832V278H70.1793V273.04C70.1793 272.165 69.9606 271.499 69.5233 271.04C69.0859 270.571 68.4886 270.336 67.7313 270.336C66.9633 270.336 66.3499 270.576 65.8913 271.056C65.4433 271.536 65.2193 272.235 65.2193 273.152V278H63.7633V269.232H65.2193V270.48C65.5073 270.032 65.8966 269.685 66.3873 269.44C66.8886 269.195 67.4379 269.072 68.0353 269.072ZM73.4536 273.6C73.4536 272.693 73.635 271.904 73.9976 271.232C74.3603 270.549 74.8616 270.021 75.5016 269.648C76.1523 269.275 76.8936 269.088 77.7256 269.088C78.803 269.088 79.6883 269.349 80.3816 269.872C81.0856 270.395 81.5496 271.12 81.7736 272.048H80.2056C80.0563 271.515 79.763 271.093 79.3256 270.784C78.899 270.475 78.3656 270.32 77.7256 270.32C76.8936 270.32 76.2216 270.608 75.7096 271.184C75.1976 271.749 74.9416 272.555 74.9416 273.6C74.9416 274.656 75.1976 275.472 75.7096 276.048C76.2216 276.624 76.8936 276.912 77.7256 276.912C78.3656 276.912 78.899 276.763 79.3256 276.464C79.7523 276.165 80.0456 275.739 80.2056 275.184H81.7736C81.539 276.08 81.0696 276.8 80.3656 277.344C79.6616 277.877 78.7816 278.144 77.7256 278.144C76.8936 278.144 76.1523 277.957 75.5016 277.584C74.8616 277.211 74.3603 276.683 73.9976 276C73.635 275.317 73.4536 274.517 73.4536 273.6ZM85.4924 270.432V275.6C85.4924 276.027 85.583 276.331 85.7644 276.512C85.9457 276.683 86.2604 276.768 86.7084 276.768H87.7804V278H86.4684C85.6577 278 85.0497 277.813 84.6444 277.44C84.239 277.067 84.0364 276.453 84.0364 275.6V270.432H82.9004V269.232H84.0364V267.024H85.4924V269.232H87.7804V270.432H85.4924ZM90.2965 267.808C90.0192 267.808 89.7845 267.712 89.5925 267.52C89.4005 267.328 89.3045 267.093 89.3045 266.816C89.3045 266.539 89.4005 266.304 89.5925 266.112C89.7845 265.92 90.0192 265.824 90.2965 265.824C90.5632 265.824 90.7872 265.92 90.9685 266.112C91.1605 266.304 91.2565 266.539 91.2565 266.816C91.2565 267.093 91.1605 267.328 90.9685 267.52C90.7872 267.712 90.5632 267.808 90.2965 267.808ZM91.0005 269.232V278H89.5445V269.232H91.0005ZM96.746 276.656L99.466 269.232H101.018L97.578 278H95.882L92.442 269.232H94.01L96.746 276.656ZM110.451 273.28C110.451 273.557 110.435 273.851 110.403 274.16H103.395C103.448 275.024 103.741 275.701 104.275 276.192C104.819 276.672 105.475 276.912 106.243 276.912C106.872 276.912 107.395 276.768 107.811 276.48C108.237 276.181 108.536 275.787 108.707 275.296H110.275C110.04 276.139 109.571 276.827 108.867 277.36C108.163 277.883 107.288 278.144 106.243 278.144C105.411 278.144 104.664 277.957 104.003 277.584C103.352 277.211 102.84 276.683 102.467 276C102.093 275.307 101.907 274.507 101.907 273.6C101.907 272.693 102.088 271.899 102.451 271.216C102.813 270.533 103.32 270.011 103.971 269.648C104.632 269.275 105.389 269.088 106.243 269.088C107.075 269.088 107.811 269.269 108.451 269.632C109.091 269.995 109.581 270.496 109.923 271.136C110.275 271.765 110.451 272.48 110.451 273.28ZM108.947 272.976C108.947 272.421 108.824 271.947 108.579 271.552C108.333 271.147 107.997 270.843 107.571 270.64C107.155 270.427 106.691 270.32 106.179 270.32C105.443 270.32 104.813 270.555 104.291 271.024C103.779 271.493 103.485 272.144 103.411 272.976H108.947ZM120.206 270.432H118.366V278H116.91V270.432H115.774V269.232H116.91V268.608C116.91 267.627 117.161 266.912 117.662 266.464C118.174 266.005 118.99 265.776 120.11 265.776V266.992C119.47 266.992 119.017 267.12 118.75 267.376C118.494 267.621 118.366 268.032 118.366 268.608V269.232H120.206V270.432ZM129.904 273.28C129.904 273.557 129.888 273.851 129.856 274.16H122.848C122.901 275.024 123.195 275.701 123.728 276.192C124.272 276.672 124.928 276.912 125.696 276.912C126.325 276.912 126.848 276.768 127.264 276.48C127.691 276.181 127.989 275.787 128.16 275.296H129.728C129.493 276.139 129.024 276.827 128.32 277.36C127.616 277.883 126.741 278.144 125.696 278.144C124.864 278.144 124.117 277.957 123.456 277.584C122.805 277.211 122.293 276.683 121.92 276C121.547 275.307 121.36 274.507 121.36 273.6C121.36 272.693 121.541 271.899 121.904 271.216C122.267 270.533 122.773 270.011 123.424 269.648C124.085 269.275 124.843 269.088 125.696 269.088C126.528 269.088 127.264 269.269 127.904 269.632C128.544 269.995 129.035 270.496 129.376 271.136C129.728 271.765 129.904 272.48 129.904 273.28ZM128.4 272.976C128.4 272.421 128.277 271.947 128.032 271.552C127.787 271.147 127.451 270.843 127.024 270.64C126.608 270.427 126.144 270.32 125.632 270.32C124.896 270.32 124.267 270.555 123.744 271.024C123.232 271.493 122.939 272.144 122.864 272.976H128.4ZM131.282 273.584C131.282 272.688 131.463 271.904 131.826 271.232C132.188 270.549 132.684 270.021 133.314 269.648C133.954 269.275 134.663 269.088 135.442 269.088C136.21 269.088 136.876 269.253 137.442 269.584C138.007 269.915 138.428 270.331 138.706 270.832V269.232H140.178V278H138.706V276.368C138.418 276.88 137.986 277.307 137.41 277.648C136.844 277.979 136.183 278.144 135.426 278.144C134.647 278.144 133.943 277.952 133.314 277.568C132.684 277.184 132.188 276.645 131.826 275.952C131.463 275.259 131.282 274.469 131.282 273.584ZM138.706 273.6C138.706 272.939 138.572 272.363 138.306 271.872C138.039 271.381 137.676 271.008 137.218 270.752C136.77 270.485 136.274 270.352 135.73 270.352C135.186 270.352 134.69 270.48 134.242 270.736C133.794 270.992 133.436 271.365 133.17 271.856C132.903 272.347 132.77 272.923 132.77 273.584C132.77 274.256 132.903 274.843 133.17 275.344C133.436 275.835 133.794 276.213 134.242 276.48C134.69 276.736 135.186 276.864 135.73 276.864C136.274 276.864 136.77 276.736 137.218 276.48C137.676 276.213 138.039 275.835 138.306 275.344C138.572 274.843 138.706 274.261 138.706 273.6ZM144.414 270.432V275.6C144.414 276.027 144.505 276.331 144.686 276.512C144.868 276.683 145.182 276.768 145.63 276.768H146.702V278H145.39C144.58 278 143.972 277.813 143.566 277.44C143.161 277.067 142.958 276.453 142.958 275.6V270.432H141.822V269.232H142.958V267.024H144.414V269.232H146.702V270.432H144.414ZM156.242 269.232V278H154.786V276.704C154.509 277.152 154.12 277.504 153.618 277.76C153.128 278.005 152.584 278.128 151.986 278.128C151.304 278.128 150.69 277.989 150.146 277.712C149.602 277.424 149.17 276.997 148.85 276.432C148.541 275.867 148.386 275.179 148.386 274.368V269.232H149.826V274.176C149.826 275.04 150.045 275.707 150.482 276.176C150.92 276.635 151.517 276.864 152.274 276.864C153.053 276.864 153.666 276.624 154.114 276.144C154.562 275.664 154.786 274.965 154.786 274.048V269.232H156.242ZM160.157 270.656C160.413 270.155 160.775 269.765 161.245 269.488C161.725 269.211 162.306 269.072 162.989 269.072V270.576H162.605C160.973 270.576 160.157 271.461 160.157 273.232V278H158.701V269.232H160.157V270.656ZM172.67 273.28C172.67 273.557 172.654 273.851 172.622 274.16H165.614C165.667 275.024 165.96 275.701 166.494 276.192C167.038 276.672 167.694 276.912 168.462 276.912C169.091 276.912 169.614 276.768 170.03 276.48C170.456 276.181 170.755 275.787 170.926 275.296H172.494C172.259 276.139 171.79 276.827 171.086 277.36C170.382 277.883 169.507 278.144 168.462 278.144C167.63 278.144 166.883 277.957 166.222 277.584C165.571 277.211 165.059 276.683 164.686 276C164.312 275.307 164.126 274.507 164.126 273.6C164.126 272.693 164.307 271.899 164.67 271.216C165.032 270.533 165.539 270.011 166.19 269.648C166.851 269.275 167.608 269.088 168.462 269.088C169.294 269.088 170.03 269.269 170.67 269.632C171.31 269.995 171.8 270.496 172.142 271.136C172.494 271.765 172.67 272.48 172.67 273.28ZM171.166 272.976C171.166 272.421 171.043 271.947 170.798 271.552C170.552 271.147 170.216 270.843 169.79 270.64C169.374 270.427 168.91 270.32 168.398 270.32C167.662 270.32 167.032 270.555 166.51 271.024C165.998 271.493 165.704 272.144 165.63 272.976H171.166ZM177.695 278.144C177.023 278.144 176.421 278.032 175.887 277.808C175.354 277.573 174.933 277.253 174.623 276.848C174.314 276.432 174.143 275.957 174.111 275.424H175.615C175.658 275.861 175.861 276.219 176.223 276.496C176.597 276.773 177.082 276.912 177.679 276.912C178.234 276.912 178.671 276.789 178.991 276.544C179.311 276.299 179.471 275.989 179.471 275.616C179.471 275.232 179.301 274.949 178.959 274.768C178.618 274.576 178.09 274.389 177.375 274.208C176.725 274.037 176.191 273.867 175.775 273.696C175.37 273.515 175.018 273.253 174.719 272.912C174.431 272.56 174.287 272.101 174.287 271.536C174.287 271.088 174.421 270.677 174.687 270.304C174.954 269.931 175.333 269.637 175.823 269.424C176.314 269.2 176.874 269.088 177.503 269.088C178.474 269.088 179.258 269.333 179.855 269.824C180.453 270.315 180.773 270.987 180.815 271.84H179.359C179.327 271.381 179.141 271.013 178.799 270.736C178.469 270.459 178.021 270.32 177.455 270.32C176.933 270.32 176.517 270.432 176.207 270.656C175.898 270.88 175.743 271.173 175.743 271.536C175.743 271.824 175.834 272.064 176.015 272.256C176.207 272.437 176.442 272.587 176.719 272.704C177.007 272.811 177.402 272.933 177.903 273.072C178.533 273.243 179.045 273.413 179.439 273.584C179.834 273.744 180.17 273.989 180.447 274.32C180.735 274.651 180.885 275.083 180.895 275.616C180.895 276.096 180.762 276.528 180.495 276.912C180.229 277.296 179.85 277.6 179.359 277.824C178.879 278.037 178.325 278.144 177.695 278.144ZM187.68 278.096C187.403 278.096 187.168 278 186.976 277.808C186.784 277.616 186.688 277.381 186.688 277.104C186.688 276.827 186.784 276.592 186.976 276.4C187.168 276.208 187.403 276.112 187.68 276.112C187.947 276.112 188.171 276.208 188.352 276.4C188.544 276.592 188.64 276.827 188.64 277.104C188.64 277.381 188.544 277.616 188.352 277.808C188.171 278 187.947 278.096 187.68 278.096Z" fill="#575859"/>
<rect x="41" y="310" width="137" height="49" rx="5" fill="#3988FF"/>
<path d="M69.4246 341L66.4366 335.87H64.4566V341H62.8186V328.454H66.8686C67.8166 328.454 68.6146 328.616 69.2626 328.94C69.9226 329.264 70.4146 329.702 70.7386 330.254C71.0626 330.806 71.2246 331.436 71.2246 332.144C71.2246 333.008 70.9726 333.77 70.4686 334.43C69.9766 335.09 69.2326 335.528 68.2366 335.744L71.3866 341H69.4246ZM64.4566 334.556H66.8686C67.7566 334.556 68.4226 334.34 68.8666 333.908C69.3106 333.464 69.5326 332.876 69.5326 332.144C69.5326 331.4 69.3106 330.824 68.8666 330.416C68.4346 330.008 67.7686 329.804 66.8686 329.804H64.4566V334.556ZM82.7698 335.69C82.7698 336.002 82.7518 336.332 82.7158 336.68H74.8318C74.8918 337.652 75.2218 338.414 75.8218 338.966C76.4338 339.506 77.1718 339.776 78.0358 339.776C78.7438 339.776 79.3318 339.614 79.7998 339.29C80.2798 338.954 80.6158 338.51 80.8078 337.958H82.5718C82.3078 338.906 81.7798 339.68 80.9878 340.28C80.1958 340.868 79.2118 341.162 78.0358 341.162C77.0998 341.162 76.2598 340.952 75.5158 340.532C74.7838 340.112 74.2078 339.518 73.7878 338.75C73.3678 337.97 73.1578 337.07 73.1578 336.05C73.1578 335.03 73.3618 334.136 73.7698 333.368C74.1778 332.6 74.7478 332.012 75.4798 331.604C76.2238 331.184 77.0758 330.974 78.0358 330.974C78.9718 330.974 79.7998 331.178 80.5198 331.586C81.2398 331.994 81.7918 332.558 82.1758 333.278C82.5718 333.986 82.7698 334.79 82.7698 335.69ZM81.0778 335.348C81.0778 334.724 80.9398 334.19 80.6638 333.746C80.3878 333.29 80.0098 332.948 79.5298 332.72C79.0618 332.48 78.5398 332.36 77.9638 332.36C77.1358 332.36 76.4278 332.624 75.8398 333.152C75.2638 333.68 74.9338 334.412 74.8498 335.348H81.0778ZM84.3199 336.032C84.3199 335.024 84.5239 334.142 84.9319 333.386C85.3399 332.618 85.8979 332.024 86.6059 331.604C87.3259 331.184 88.1239 330.974 88.9999 330.974C89.8639 330.974 90.6139 331.16 91.2499 331.532C91.8859 331.904 92.3599 332.372 92.6719 332.936V331.136H94.3279V341H92.6719V339.164C92.3479 339.74 91.8619 340.22 91.2139 340.604C90.5779 340.976 89.8339 341.162 88.9819 341.162C88.1059 341.162 87.3139 340.946 86.6059 340.514C85.8979 340.082 85.3399 339.476 84.9319 338.696C84.5239 337.916 84.3199 337.028 84.3199 336.032ZM92.6719 336.05C92.6719 335.306 92.5219 334.658 92.2219 334.106C91.9219 333.554 91.5139 333.134 90.9979 332.846C90.4939 332.546 89.9359 332.396 89.3239 332.396C88.7119 332.396 88.1539 332.54 87.6499 332.828C87.1459 333.116 86.7439 333.536 86.4439 334.088C86.1439 334.64 85.9939 335.288 85.9939 336.032C85.9939 336.788 86.1439 337.448 86.4439 338.012C86.7439 338.564 87.1459 338.99 87.6499 339.29C88.1539 339.578 88.7119 339.722 89.3239 339.722C89.9359 339.722 90.4939 339.578 90.9979 339.29C91.5139 338.99 91.9219 338.564 92.2219 338.012C92.5219 337.448 92.6719 336.794 92.6719 336.05ZM96.484 336.032C96.484 335.024 96.688 334.142 97.096 333.386C97.504 332.618 98.062 332.024 98.77 331.604C99.49 331.184 100.294 330.974 101.182 330.974C101.95 330.974 102.664 331.154 103.324 331.514C103.984 331.862 104.488 332.324 104.836 332.9V327.68H106.492V341H104.836V339.146C104.512 339.734 104.032 340.22 103.396 340.604C102.76 340.976 102.016 341.162 101.164 341.162C100.288 341.162 99.49 340.946 98.77 340.514C98.062 340.082 97.504 339.476 97.096 338.696C96.688 337.916 96.484 337.028 96.484 336.032ZM104.836 336.05C104.836 335.306 104.686 334.658 104.386 334.106C104.086 333.554 103.678 333.134 103.162 332.846C102.658 332.546 102.1 332.396 101.488 332.396C100.876 332.396 100.318 332.54 99.814 332.828C99.31 333.116 98.908 333.536 98.608 334.088C98.308 334.64 98.158 335.288 98.158 336.032C98.158 336.788 98.308 337.448 98.608 338.012C98.908 338.564 99.31 338.99 99.814 339.29C100.318 339.578 100.876 339.722 101.488 339.722C102.1 339.722 102.658 339.578 103.162 339.29C103.678 338.99 104.086 338.564 104.386 338.012C104.686 337.448 104.836 336.794 104.836 336.05ZM126.785 328.544V341H125.147V331.712L121.007 341H119.855L115.697 331.694V341H114.059V328.544H115.823L120.431 338.84L125.039 328.544H126.785ZM133.865 341.162C132.941 341.162 132.101 340.952 131.345 340.532C130.601 340.112 130.013 339.518 129.581 338.75C129.161 337.97 128.951 337.07 128.951 336.05C128.951 335.042 129.167 334.154 129.599 333.386C130.043 332.606 130.643 332.012 131.399 331.604C132.155 331.184 133.001 330.974 133.937 330.974C134.873 330.974 135.719 331.184 136.475 331.604C137.231 332.012 137.825 332.6 138.257 333.368C138.701 334.136 138.923 335.03 138.923 336.05C138.923 337.07 138.695 337.97 138.239 338.75C137.795 339.518 137.189 340.112 136.421 340.532C135.653 340.952 134.801 341.162 133.865 341.162ZM133.865 339.722C134.453 339.722 135.005 339.584 135.521 339.308C136.037 339.032 136.451 338.618 136.763 338.066C137.087 337.514 137.249 336.842 137.249 336.05C137.249 335.258 137.093 334.586 136.781 334.034C136.469 333.482 136.061 333.074 135.557 332.81C135.053 332.534 134.507 332.396 133.919 332.396C133.319 332.396 132.767 332.534 132.263 332.81C131.771 333.074 131.375 333.482 131.075 334.034C130.775 334.586 130.625 335.258 130.625 336.05C130.625 336.854 130.769 337.532 131.057 338.084C131.357 338.636 131.753 339.05 132.245 339.326C132.737 339.59 133.277 339.722 133.865 339.722ZM142.714 332.738C143.002 332.174 143.41 331.736 143.938 331.424C144.478 331.112 145.132 330.956 145.9 330.956V332.648H145.468C143.632 332.648 142.714 333.644 142.714 335.636V341H141.076V331.136H142.714V332.738ZM156.791 335.69C156.791 336.002 156.773 336.332 156.737 336.68H148.853C148.913 337.652 149.243 338.414 149.843 338.966C150.455 339.506 151.193 339.776 152.057 339.776C152.765 339.776 153.353 339.614 153.821 339.29C154.301 338.954 154.637 338.51 154.829 337.958H156.593C156.329 338.906 155.801 339.68 155.009 340.28C154.217 340.868 153.233 341.162 152.057 341.162C151.121 341.162 150.281 340.952 149.537 340.532C148.805 340.112 148.229 339.518 147.809 338.75C147.389 337.97 147.179 337.07 147.179 336.05C147.179 335.03 147.383 334.136 147.791 333.368C148.199 332.6 148.769 332.012 149.501 331.604C150.245 331.184 151.097 330.974 152.057 330.974C152.993 330.974 153.821 331.178 154.541 331.586C155.261 331.994 155.813 332.558 156.197 333.278C156.593 333.986 156.791 334.79 156.791 335.69ZM155.099 335.348C155.099 334.724 154.961 334.19 154.685 333.746C154.409 333.29 154.031 332.948 153.551 332.72C153.083 332.48 152.561 332.36 151.985 332.36C151.157 332.36 150.449 332.624 149.861 333.152C149.285 333.68 148.955 334.412 148.871 335.348H155.099Z" fill="white"/>
<circle cx="109" cy="75" r="75" fill="#FF6060" fill-opacity="0.1"/>
<path d="M131.729 54.0909C131.729 53.4884 131.24 53 130.638 53H120.611C120.008 53 119.52 53.4884 119.52 54.0909C119.52 54.6935 120.008 55.1819 120.611 55.1819H128.158L113.733 70.0689C112.609 71.2287 110.833 71.3993 109.509 70.4746L103.539 66.3055C101.31 64.7481 98.2405 65.0838 96.4001 67.086L87.2877 76.9995C86.8801 77.4431 86.9091 78.1334 87.3527 78.541C87.5622 78.7337 87.8268 78.8288 88.0907 78.8288C88.3853 78.8288 88.679 78.7101 88.8942 78.4762L98.0065 68.5627C99.1107 67.3615 100.952 67.1601 102.29 68.0944L108.259 72.2635C110.466 73.8046 113.427 73.5203 115.3 71.5874L129.547 56.8845V64.1181C129.547 64.7207 130.035 65.2091 130.638 65.2091C131.24 65.2091 131.729 64.7207 131.729 64.1181V54.0909Z" fill="#E80F0F"/>
<path d="M131.729 96.4141V75.9591C131.729 75.3566 131.24 74.8682 130.638 74.8682C130.035 74.8682 129.547 75.3566 129.547 75.9591V95.3231H118.877V81.0997C118.877 80.4973 118.389 80.0088 117.786 80.0088C117.184 80.0088 116.695 80.4973 116.695 81.0997V95.3231H106.026V87.0771C106.026 86.4747 105.537 85.9862 104.935 85.9862C104.332 85.9862 103.844 86.4747 103.844 87.0771V95.3231H92.5316V87.125C92.5316 86.5226 92.0432 86.0341 91.4407 86.0341C90.8381 86.0341 90.3497 86.5226 90.3497 87.125V96.414C90.3497 97.0164 90.8381 97.5049 91.4407 97.5049H130.638C131.24 97.505 131.729 97.0165 131.729 96.4141Z" fill="#E80F0F"/>
</svg>
