<svg width="499" height="237" viewBox="0 0 499 237" fill="none" xmlns="http://www.w3.org/2000/svg">
<g opacity="0.06">
<path d="M5.62386 11.2476C8.7298 11.2476 11.2476 8.72974 11.2476 5.6238C11.2476 2.51786 8.7298 0 5.62386 0C2.51792 0 0 2.51786 0 5.6238C0 8.72974 2.51792 11.2476 5.62386 11.2476Z" fill="#DD6969"/>
<path d="M43.1151 11.2476C46.221 11.2476 48.7388 8.72974 48.7388 5.6238C48.7388 2.51786 46.221 0 43.1151 0C40.0091 0 37.4912 2.51786 37.4912 5.6238C37.4912 8.72974 40.0091 11.2476 43.1151 11.2476Z" fill="#DD6969"/>
<path d="M80.6082 11.2476C83.7142 11.2476 86.232 8.72974 86.232 5.6238C86.232 2.51786 83.7142 0 80.6082 0C77.5023 0 74.9844 2.51786 74.9844 5.6238C74.9844 8.72974 77.5023 11.2476 80.6082 11.2476Z" fill="#DD6969"/>
<path d="M118.099 11.2476C121.205 11.2476 123.723 8.72974 123.723 5.6238C123.723 2.51786 121.205 0 118.099 0C114.994 0 112.476 2.51786 112.476 5.6238C112.476 8.72974 114.994 11.2476 118.099 11.2476Z" fill="#DD6969"/>
<path d="M155.593 11.2476C158.699 11.2476 161.216 8.72974 161.216 5.6238C161.216 2.51786 158.699 0 155.593 0C152.487 0 149.969 2.51786 149.969 5.6238C149.969 8.72974 152.487 11.2476 155.593 11.2476Z" fill="#DD6969"/>
<path d="M193.084 11.2476C196.19 11.2476 198.708 8.72974 198.708 5.6238C198.708 2.51786 196.19 0 193.084 0C189.978 0 187.46 2.51786 187.46 5.6238C187.46 8.72974 189.978 11.2476 193.084 11.2476Z" fill="#DD6969"/>
<path d="M230.576 11.2476C233.682 11.2476 236.2 8.72974 236.2 5.6238C236.2 2.51786 233.682 0 230.576 0C227.47 0 224.952 2.51786 224.952 5.6238C224.952 8.72974 227.47 11.2476 230.576 11.2476Z" fill="#DD6969"/>
<path d="M268.068 11.2476C271.174 11.2476 273.692 8.72974 273.692 5.6238C273.692 2.51786 271.174 0 268.068 0C264.962 0 262.444 2.51786 262.444 5.6238C262.444 8.72974 264.962 11.2476 268.068 11.2476Z" fill="#DD6969"/>
<path d="M305.56 11.2476C308.666 11.2476 311.184 8.72974 311.184 5.6238C311.184 2.51786 308.666 0 305.56 0C302.454 0 299.937 2.51786 299.937 5.6238C299.937 8.72974 302.454 11.2476 305.56 11.2476Z" fill="#DD6969"/>
<path d="M343.052 11.2476C346.158 11.2476 348.675 8.72974 348.675 5.6238C348.675 2.51786 346.158 0 343.052 0C339.946 0 337.428 2.51786 337.428 5.6238C337.428 8.72974 339.946 11.2476 343.052 11.2476Z" fill="#DD6969"/>
<path d="M380.545 11.2476C383.651 11.2476 386.169 8.72974 386.169 5.6238C386.169 2.51786 383.651 0 380.545 0C377.439 0 374.921 2.51786 374.921 5.6238C374.921 8.72974 377.439 11.2476 380.545 11.2476Z" fill="#DD6969"/>
<path d="M418.036 11.2476C421.142 11.2476 423.66 8.72974 423.66 5.6238C423.66 2.51786 421.142 0 418.036 0C414.93 0 412.412 2.51786 412.412 5.6238C412.412 8.72974 414.93 11.2476 418.036 11.2476Z" fill="#DD6969"/>
<path d="M455.528 11.2476C458.634 11.2476 461.152 8.72974 461.152 5.6238C461.152 2.51786 458.634 0 455.528 0C452.422 0 449.904 2.51786 449.904 5.6238C449.904 8.72974 452.422 11.2476 455.528 11.2476Z" fill="#DD6969"/>
<path d="M493.02 11.2476C496.126 11.2476 498.644 8.72974 498.644 5.6238C498.644 2.51786 496.126 0 493.02 0C489.914 0 487.396 2.51786 487.396 5.6238C487.396 8.72974 489.914 11.2476 493.02 11.2476Z" fill="#DD6969"/>
<path d="M5.62386 48.7388C8.7298 48.7388 11.2476 46.221 11.2476 43.115C11.2476 40.0091 8.7298 37.4912 5.62386 37.4912C2.51792 37.4912 0 40.0091 0 43.115C0 46.221 2.51792 48.7388 5.62386 48.7388Z" fill="#DD6969"/>
<path d="M43.1151 48.7388C46.221 48.7388 48.7388 46.221 48.7388 43.115C48.7388 40.0091 46.221 37.4912 43.1151 37.4912C40.0091 37.4912 37.4912 40.0091 37.4912 43.115C37.4912 46.221 40.0091 48.7388 43.1151 48.7388Z" fill="#DD6969"/>
<path d="M80.6082 48.7388C83.7142 48.7388 86.232 46.221 86.232 43.115C86.232 40.0091 83.7142 37.4912 80.6082 37.4912C77.5023 37.4912 74.9844 40.0091 74.9844 43.115C74.9844 46.221 77.5023 48.7388 80.6082 48.7388Z" fill="#DD6969"/>
<path d="M118.099 48.7388C121.205 48.7388 123.723 46.221 123.723 43.115C123.723 40.0091 121.205 37.4912 118.099 37.4912C114.994 37.4912 112.476 40.0091 112.476 43.115C112.476 46.221 114.994 48.7388 118.099 48.7388Z" fill="#DD6969"/>
<path d="M155.593 48.7388C158.699 48.7388 161.216 46.221 161.216 43.115C161.216 40.0091 158.699 37.4912 155.593 37.4912C152.487 37.4912 149.969 40.0091 149.969 43.115C149.969 46.221 152.487 48.7388 155.593 48.7388Z" fill="#DD6969"/>
<path d="M193.084 48.7388C196.19 48.7388 198.708 46.221 198.708 43.115C198.708 40.0091 196.19 37.4912 193.084 37.4912C189.978 37.4912 187.46 40.0091 187.46 43.115C187.46 46.221 189.978 48.7388 193.084 48.7388Z" fill="#DD6969"/>
<path d="M230.576 48.7388C233.682 48.7388 236.2 46.221 236.2 43.115C236.2 40.0091 233.682 37.4912 230.576 37.4912C227.47 37.4912 224.952 40.0091 224.952 43.115C224.952 46.221 227.47 48.7388 230.576 48.7388Z" fill="#DD6969"/>
<path d="M268.068 48.7388C271.174 48.7388 273.692 46.221 273.692 43.115C273.692 40.0091 271.174 37.4912 268.068 37.4912C264.962 37.4912 262.444 40.0091 262.444 43.115C262.444 46.221 264.962 48.7388 268.068 48.7388Z" fill="#DD6969"/>
<path d="M305.56 48.7388C308.666 48.7388 311.184 46.221 311.184 43.115C311.184 40.0091 308.666 37.4912 305.56 37.4912C302.454 37.4912 299.937 40.0091 299.937 43.115C299.937 46.221 302.454 48.7388 305.56 48.7388Z" fill="#DD6969"/>
<path d="M343.052 48.7388C346.158 48.7388 348.675 46.221 348.675 43.115C348.675 40.0091 346.158 37.4912 343.052 37.4912C339.946 37.4912 337.428 40.0091 337.428 43.115C337.428 46.221 339.946 48.7388 343.052 48.7388Z" fill="#DD6969"/>
<path d="M380.545 48.7388C383.651 48.7388 386.169 46.221 386.169 43.115C386.169 40.0091 383.651 37.4912 380.545 37.4912C377.439 37.4912 374.921 40.0091 374.921 43.115C374.921 46.221 377.439 48.7388 380.545 48.7388Z" fill="#DD6969"/>
<path d="M418.036 48.7388C421.142 48.7388 423.66 46.221 423.66 43.115C423.66 40.0091 421.142 37.4912 418.036 37.4912C414.93 37.4912 412.412 40.0091 412.412 43.115C412.412 46.221 414.93 48.7388 418.036 48.7388Z" fill="#DD6969"/>
<path d="M455.528 48.7388C458.634 48.7388 461.152 46.221 461.152 43.115C461.152 40.0091 458.634 37.4912 455.528 37.4912C452.422 37.4912 449.904 40.0091 449.904 43.115C449.904 46.221 452.422 48.7388 455.528 48.7388Z" fill="#DD6969"/>
<path d="M493.02 48.7388C496.126 48.7388 498.644 46.221 498.644 43.115C498.644 40.0091 496.126 37.4912 493.02 37.4912C489.914 37.4912 487.396 40.0091 487.396 43.115C487.396 46.221 489.914 48.7388 493.02 48.7388Z" fill="#DD6969"/>
<path d="M5.62386 86.232C8.7298 86.232 11.2476 83.7141 11.2476 80.6082C11.2476 77.5022 8.7298 74.9844 5.62386 74.9844C2.51792 74.9844 0 77.5022 0 80.6082C0 83.7141 2.51792 86.232 5.62386 86.232Z" fill="#DD6969"/>
<path d="M43.1151 86.232C46.221 86.232 48.7388 83.7141 48.7388 80.6082C48.7388 77.5022 46.221 74.9844 43.1151 74.9844C40.0091 74.9844 37.4912 77.5022 37.4912 80.6082C37.4912 83.7141 40.0091 86.232 43.1151 86.232Z" fill="#DD6969"/>
<path d="M80.6082 86.232C83.7142 86.232 86.232 83.7141 86.232 80.6082C86.232 77.5022 83.7142 74.9844 80.6082 74.9844C77.5023 74.9844 74.9844 77.5022 74.9844 80.6082C74.9844 83.7141 77.5023 86.232 80.6082 86.232Z" fill="#DD6969"/>
<path d="M118.099 86.232C121.205 86.232 123.723 83.7141 123.723 80.6082C123.723 77.5022 121.205 74.9844 118.099 74.9844C114.994 74.9844 112.476 77.5022 112.476 80.6082C112.476 83.7141 114.994 86.232 118.099 86.232Z" fill="#DD6969"/>
<path d="M155.593 86.232C158.699 86.232 161.216 83.7141 161.216 80.6082C161.216 77.5022 158.699 74.9844 155.593 74.9844C152.487 74.9844 149.969 77.5022 149.969 80.6082C149.969 83.7141 152.487 86.232 155.593 86.232Z" fill="#DD6969"/>
<path d="M193.084 86.232C196.19 86.232 198.708 83.7141 198.708 80.6082C198.708 77.5022 196.19 74.9844 193.084 74.9844C189.978 74.9844 187.46 77.5022 187.46 80.6082C187.46 83.7141 189.978 86.232 193.084 86.232Z" fill="#DD6969"/>
<path d="M230.576 86.232C233.682 86.232 236.2 83.7141 236.2 80.6082C236.2 77.5022 233.682 74.9844 230.576 74.9844C227.47 74.9844 224.952 77.5022 224.952 80.6082C224.952 83.7141 227.47 86.232 230.576 86.232Z" fill="#DD6969"/>
<path d="M268.068 86.232C271.174 86.232 273.692 83.7141 273.692 80.6082C273.692 77.5022 271.174 74.9844 268.068 74.9844C264.962 74.9844 262.444 77.5022 262.444 80.6082C262.444 83.7141 264.962 86.232 268.068 86.232Z" fill="#DD6969"/>
<path d="M305.56 86.232C308.666 86.232 311.184 83.7141 311.184 80.6082C311.184 77.5022 308.666 74.9844 305.56 74.9844C302.454 74.9844 299.937 77.5022 299.937 80.6082C299.937 83.7141 302.454 86.232 305.56 86.232Z" fill="#DD6969"/>
<path d="M343.052 86.232C346.158 86.232 348.675 83.7141 348.675 80.6082C348.675 77.5022 346.158 74.9844 343.052 74.9844C339.946 74.9844 337.428 77.5022 337.428 80.6082C337.428 83.7141 339.946 86.232 343.052 86.232Z" fill="#DD6969"/>
<path d="M380.545 86.232C383.651 86.232 386.169 83.7141 386.169 80.6082C386.169 77.5022 383.651 74.9844 380.545 74.9844C377.439 74.9844 374.921 77.5022 374.921 80.6082C374.921 83.7141 377.439 86.232 380.545 86.232Z" fill="#DD6969"/>
<path d="M418.036 86.232C421.142 86.232 423.66 83.7141 423.66 80.6082C423.66 77.5022 421.142 74.9844 418.036 74.9844C414.93 74.9844 412.412 77.5022 412.412 80.6082C412.412 83.7141 414.93 86.232 418.036 86.232Z" fill="#DD6969"/>
<path d="M455.528 86.232C458.634 86.232 461.152 83.7141 461.152 80.6082C461.152 77.5022 458.634 74.9844 455.528 74.9844C452.422 74.9844 449.904 77.5022 449.904 80.6082C449.904 83.7141 452.422 86.232 455.528 86.232Z" fill="#DD6969"/>
<path d="M493.02 86.232C496.126 86.232 498.644 83.7141 498.644 80.6082C498.644 77.5022 496.126 74.9844 493.02 74.9844C489.914 74.9844 487.396 77.5022 487.396 80.6082C487.396 83.7141 489.914 86.232 493.02 86.232Z" fill="#DD6969"/>
<path d="M5.62386 123.723C8.7298 123.723 11.2476 121.205 11.2476 118.099C11.2476 114.993 8.7298 112.476 5.62386 112.476C2.51792 112.476 0 114.993 0 118.099C0 121.205 2.51792 123.723 5.62386 123.723Z" fill="#DD6969"/>
<path d="M43.1151 123.723C46.221 123.723 48.7388 121.205 48.7388 118.099C48.7388 114.993 46.221 112.476 43.1151 112.476C40.0091 112.476 37.4912 114.993 37.4912 118.099C37.4912 121.205 40.0091 123.723 43.1151 123.723Z" fill="#DD6969"/>
<path d="M80.6082 123.723C83.7142 123.723 86.232 121.205 86.232 118.099C86.232 114.993 83.7142 112.476 80.6082 112.476C77.5023 112.476 74.9844 114.993 74.9844 118.099C74.9844 121.205 77.5023 123.723 80.6082 123.723Z" fill="#DD6969"/>
<path d="M118.099 123.723C121.205 123.723 123.723 121.205 123.723 118.099C123.723 114.993 121.205 112.476 118.099 112.476C114.994 112.476 112.476 114.993 112.476 118.099C112.476 121.205 114.994 123.723 118.099 123.723Z" fill="#DD6969"/>
<path d="M155.593 123.723C158.699 123.723 161.216 121.205 161.216 118.099C161.216 114.993 158.699 112.476 155.593 112.476C152.487 112.476 149.969 114.993 149.969 118.099C149.969 121.205 152.487 123.723 155.593 123.723Z" fill="#DD6969"/>
<path d="M193.084 123.723C196.19 123.723 198.708 121.205 198.708 118.099C198.708 114.993 196.19 112.476 193.084 112.476C189.978 112.476 187.46 114.993 187.46 118.099C187.46 121.205 189.978 123.723 193.084 123.723Z" fill="#DD6969"/>
<path d="M230.576 123.723C233.682 123.723 236.2 121.205 236.2 118.099C236.2 114.993 233.682 112.476 230.576 112.476C227.47 112.476 224.952 114.993 224.952 118.099C224.952 121.205 227.47 123.723 230.576 123.723Z" fill="#DD6969"/>
<path d="M268.068 123.723C271.174 123.723 273.692 121.205 273.692 118.099C273.692 114.993 271.174 112.476 268.068 112.476C264.962 112.476 262.444 114.993 262.444 118.099C262.444 121.205 264.962 123.723 268.068 123.723Z" fill="#DD6969"/>
<path d="M305.56 123.723C308.666 123.723 311.184 121.205 311.184 118.099C311.184 114.993 308.666 112.476 305.56 112.476C302.454 112.476 299.937 114.993 299.937 118.099C299.937 121.205 302.454 123.723 305.56 123.723Z" fill="#DD6969"/>
<path d="M343.052 123.723C346.158 123.723 348.675 121.205 348.675 118.099C348.675 114.993 346.158 112.476 343.052 112.476C339.946 112.476 337.428 114.993 337.428 118.099C337.428 121.205 339.946 123.723 343.052 123.723Z" fill="#DD6969"/>
<path d="M380.545 123.723C383.651 123.723 386.169 121.205 386.169 118.099C386.169 114.993 383.651 112.476 380.545 112.476C377.439 112.476 374.921 114.993 374.921 118.099C374.921 121.205 377.439 123.723 380.545 123.723Z" fill="#DD6969"/>
<path d="M418.036 123.723C421.142 123.723 423.66 121.205 423.66 118.099C423.66 114.993 421.142 112.476 418.036 112.476C414.93 112.476 412.412 114.993 412.412 118.099C412.412 121.205 414.93 123.723 418.036 123.723Z" fill="#DD6969"/>
<path d="M455.528 123.723C458.634 123.723 461.152 121.205 461.152 118.099C461.152 114.993 458.634 112.476 455.528 112.476C452.422 112.476 449.904 114.993 449.904 118.099C449.904 121.205 452.422 123.723 455.528 123.723Z" fill="#DD6969"/>
<path d="M493.02 123.723C496.126 123.723 498.644 121.205 498.644 118.099C498.644 114.993 496.126 112.476 493.02 112.476C489.914 112.476 487.396 114.993 487.396 118.099C487.396 121.205 489.914 123.723 493.02 123.723Z" fill="#DD6969"/>
<path d="M5.62386 161.216C8.7298 161.216 11.2476 158.698 11.2476 155.592C11.2476 152.486 8.7298 149.968 5.62386 149.968C2.51792 149.968 0 152.486 0 155.592C0 158.698 2.51792 161.216 5.62386 161.216Z" fill="#DD6969"/>
<path d="M43.1151 161.216C46.221 161.216 48.7388 158.698 48.7388 155.592C48.7388 152.486 46.221 149.968 43.1151 149.968C40.0091 149.968 37.4912 152.486 37.4912 155.592C37.4912 158.698 40.0091 161.216 43.1151 161.216Z" fill="#DD6969"/>
<path d="M80.6082 161.216C83.7142 161.216 86.232 158.698 86.232 155.592C86.232 152.486 83.7142 149.968 80.6082 149.968C77.5023 149.968 74.9844 152.486 74.9844 155.592C74.9844 158.698 77.5023 161.216 80.6082 161.216Z" fill="#DD6969"/>
<path d="M118.099 161.216C121.205 161.216 123.723 158.698 123.723 155.592C123.723 152.486 121.205 149.968 118.099 149.968C114.994 149.968 112.476 152.486 112.476 155.592C112.476 158.698 114.994 161.216 118.099 161.216Z" fill="#DD6969"/>
<path d="M155.593 161.216C158.699 161.216 161.216 158.698 161.216 155.592C161.216 152.486 158.699 149.968 155.593 149.968C152.487 149.968 149.969 152.486 149.969 155.592C149.969 158.698 152.487 161.216 155.593 161.216Z" fill="#DD6969"/>
<path d="M193.084 161.216C196.19 161.216 198.708 158.698 198.708 155.592C198.708 152.486 196.19 149.968 193.084 149.968C189.978 149.968 187.46 152.486 187.46 155.592C187.46 158.698 189.978 161.216 193.084 161.216Z" fill="#DD6969"/>
<path d="M230.576 161.216C233.682 161.216 236.2 158.698 236.2 155.592C236.2 152.486 233.682 149.968 230.576 149.968C227.47 149.968 224.952 152.486 224.952 155.592C224.952 158.698 227.47 161.216 230.576 161.216Z" fill="#DD6969"/>
<path d="M268.068 161.216C271.174 161.216 273.692 158.698 273.692 155.592C273.692 152.486 271.174 149.968 268.068 149.968C264.962 149.968 262.444 152.486 262.444 155.592C262.444 158.698 264.962 161.216 268.068 161.216Z" fill="#DD6969"/>
<path d="M305.56 161.216C308.666 161.216 311.184 158.698 311.184 155.592C311.184 152.486 308.666 149.968 305.56 149.968C302.454 149.968 299.937 152.486 299.937 155.592C299.937 158.698 302.454 161.216 305.56 161.216Z" fill="#DD6969"/>
<path d="M343.052 161.216C346.158 161.216 348.675 158.698 348.675 155.592C348.675 152.486 346.158 149.968 343.052 149.968C339.946 149.968 337.428 152.486 337.428 155.592C337.428 158.698 339.946 161.216 343.052 161.216Z" fill="#DD6969"/>
<path d="M380.545 161.216C383.651 161.216 386.169 158.698 386.169 155.592C386.169 152.486 383.651 149.968 380.545 149.968C377.439 149.968 374.921 152.486 374.921 155.592C374.921 158.698 377.439 161.216 380.545 161.216Z" fill="#DD6969"/>
<path d="M418.036 161.216C421.142 161.216 423.66 158.698 423.66 155.592C423.66 152.486 421.142 149.968 418.036 149.968C414.93 149.968 412.412 152.486 412.412 155.592C412.412 158.698 414.93 161.216 418.036 161.216Z" fill="#DD6969"/>
<path d="M455.528 161.216C458.634 161.216 461.152 158.698 461.152 155.592C461.152 152.486 458.634 149.968 455.528 149.968C452.422 149.968 449.904 152.486 449.904 155.592C449.904 158.698 452.422 161.216 455.528 161.216Z" fill="#DD6969"/>
<path d="M493.02 161.216C496.126 161.216 498.644 158.698 498.644 155.592C498.644 152.486 496.126 149.968 493.02 149.968C489.914 149.968 487.396 152.486 487.396 155.592C487.396 158.698 489.914 161.216 493.02 161.216Z" fill="#DD6969"/>
<path d="M5.62386 198.708C8.7298 198.708 11.2476 196.19 11.2476 193.084C11.2476 189.978 8.7298 187.46 5.62386 187.46C2.51792 187.46 0 189.978 0 193.084C0 196.19 2.51792 198.708 5.62386 198.708Z" fill="#DD6969"/>
<path d="M43.1151 198.708C46.221 198.708 48.7388 196.19 48.7388 193.084C48.7388 189.978 46.221 187.46 43.1151 187.46C40.0091 187.46 37.4912 189.978 37.4912 193.084C37.4912 196.19 40.0091 198.708 43.1151 198.708Z" fill="#DD6969"/>
<path d="M80.6082 198.708C83.7142 198.708 86.232 196.19 86.232 193.084C86.232 189.978 83.7142 187.46 80.6082 187.46C77.5023 187.46 74.9844 189.978 74.9844 193.084C74.9844 196.19 77.5023 198.708 80.6082 198.708Z" fill="#DD6969"/>
<path d="M118.099 198.708C121.205 198.708 123.723 196.19 123.723 193.084C123.723 189.978 121.205 187.46 118.099 187.46C114.994 187.46 112.476 189.978 112.476 193.084C112.476 196.19 114.994 198.708 118.099 198.708Z" fill="#DD6969"/>
<path d="M155.593 198.708C158.699 198.708 161.216 196.19 161.216 193.084C161.216 189.978 158.699 187.46 155.593 187.46C152.487 187.46 149.969 189.978 149.969 193.084C149.969 196.19 152.487 198.708 155.593 198.708Z" fill="#DD6969"/>
<path d="M193.084 198.708C196.19 198.708 198.708 196.19 198.708 193.084C198.708 189.978 196.19 187.46 193.084 187.46C189.978 187.46 187.46 189.978 187.46 193.084C187.46 196.19 189.978 198.708 193.084 198.708Z" fill="#DD6969"/>
<path d="M230.576 198.708C233.682 198.708 236.2 196.19 236.2 193.084C236.2 189.978 233.682 187.46 230.576 187.46C227.47 187.46 224.952 189.978 224.952 193.084C224.952 196.19 227.47 198.708 230.576 198.708Z" fill="#DD6969"/>
<path d="M268.068 198.708C271.174 198.708 273.692 196.19 273.692 193.084C273.692 189.978 271.174 187.46 268.068 187.46C264.962 187.46 262.444 189.978 262.444 193.084C262.444 196.19 264.962 198.708 268.068 198.708Z" fill="#DD6969"/>
<path d="M305.56 198.708C308.666 198.708 311.184 196.19 311.184 193.084C311.184 189.978 308.666 187.46 305.56 187.46C302.454 187.46 299.937 189.978 299.937 193.084C299.937 196.19 302.454 198.708 305.56 198.708Z" fill="#DD6969"/>
<path d="M343.052 198.708C346.158 198.708 348.675 196.19 348.675 193.084C348.675 189.978 346.158 187.46 343.052 187.46C339.946 187.46 337.428 189.978 337.428 193.084C337.428 196.19 339.946 198.708 343.052 198.708Z" fill="#DD6969"/>
<path d="M380.545 198.708C383.651 198.708 386.169 196.19 386.169 193.084C386.169 189.978 383.651 187.46 380.545 187.46C377.439 187.46 374.921 189.978 374.921 193.084C374.921 196.19 377.439 198.708 380.545 198.708Z" fill="#DD6969"/>
<path d="M418.036 198.708C421.142 198.708 423.66 196.19 423.66 193.084C423.66 189.978 421.142 187.46 418.036 187.46C414.93 187.46 412.412 189.978 412.412 193.084C412.412 196.19 414.93 198.708 418.036 198.708Z" fill="#DD6969"/>
<path d="M455.528 198.708C458.634 198.708 461.152 196.19 461.152 193.084C461.152 189.978 458.634 187.46 455.528 187.46C452.422 187.46 449.904 189.978 449.904 193.084C449.904 196.19 452.422 198.708 455.528 198.708Z" fill="#DD6969"/>
<path d="M493.02 198.708C496.126 198.708 498.644 196.19 498.644 193.084C498.644 189.978 496.126 187.46 493.02 187.46C489.914 187.46 487.396 189.978 487.396 193.084C487.396 196.19 489.914 198.708 493.02 198.708Z" fill="#DD6969"/>
<path d="M5.62386 236.2C8.7298 236.2 11.2476 233.682 11.2476 230.576C11.2476 227.47 8.7298 224.952 5.62386 224.952C2.51792 224.952 0 227.47 0 230.576C0 233.682 2.51792 236.2 5.62386 236.2Z" fill="#DD6969"/>
<path d="M43.1151 236.2C46.221 236.2 48.7388 233.682 48.7388 230.576C48.7388 227.47 46.221 224.952 43.1151 224.952C40.0091 224.952 37.4912 227.47 37.4912 230.576C37.4912 233.682 40.0091 236.2 43.1151 236.2Z" fill="#DD6969"/>
<path d="M80.6082 236.2C83.7142 236.2 86.232 233.682 86.232 230.576C86.232 227.47 83.7142 224.952 80.6082 224.952C77.5023 224.952 74.9844 227.47 74.9844 230.576C74.9844 233.682 77.5023 236.2 80.6082 236.2Z" fill="#DD6969"/>
<path d="M118.099 236.2C121.205 236.2 123.723 233.682 123.723 230.576C123.723 227.47 121.205 224.952 118.099 224.952C114.994 224.952 112.476 227.47 112.476 230.576C112.476 233.682 114.994 236.2 118.099 236.2Z" fill="#DD6969"/>
<path d="M155.593 236.2C158.699 236.2 161.216 233.682 161.216 230.576C161.216 227.47 158.699 224.952 155.593 224.952C152.487 224.952 149.969 227.47 149.969 230.576C149.969 233.682 152.487 236.2 155.593 236.2Z" fill="#DD6969"/>
<path d="M193.084 236.2C196.19 236.2 198.708 233.682 198.708 230.576C198.708 227.47 196.19 224.952 193.084 224.952C189.978 224.952 187.46 227.47 187.46 230.576C187.46 233.682 189.978 236.2 193.084 236.2Z" fill="#DD6969"/>
<path d="M230.576 236.2C233.682 236.2 236.2 233.682 236.2 230.576C236.2 227.47 233.682 224.952 230.576 224.952C227.47 224.952 224.952 227.47 224.952 230.576C224.952 233.682 227.47 236.2 230.576 236.2Z" fill="#DD6969"/>
<path d="M268.068 236.2C271.174 236.2 273.692 233.682 273.692 230.576C273.692 227.47 271.174 224.952 268.068 224.952C264.962 224.952 262.444 227.47 262.444 230.576C262.444 233.682 264.962 236.2 268.068 236.2Z" fill="#DD6969"/>
<path d="M305.56 236.2C308.666 236.2 311.184 233.682 311.184 230.576C311.184 227.47 308.666 224.952 305.56 224.952C302.454 224.952 299.937 227.47 299.937 230.576C299.937 233.682 302.454 236.2 305.56 236.2Z" fill="#DD6969"/>
<path d="M343.052 236.2C346.158 236.2 348.675 233.682 348.675 230.576C348.675 227.47 346.158 224.952 343.052 224.952C339.946 224.952 337.428 227.47 337.428 230.576C337.428 233.682 339.946 236.2 343.052 236.2Z" fill="#DD6969"/>
<path d="M380.545 236.2C383.651 236.2 386.169 233.682 386.169 230.576C386.169 227.47 383.651 224.952 380.545 224.952C377.439 224.952 374.921 227.47 374.921 230.576C374.921 233.682 377.439 236.2 380.545 236.2Z" fill="#DD6969"/>
<path d="M418.036 236.2C421.142 236.2 423.66 233.682 423.66 230.576C423.66 227.47 421.142 224.952 418.036 224.952C414.93 224.952 412.412 227.47 412.412 230.576C412.412 233.682 414.93 236.2 418.036 236.2Z" fill="#DD6969"/>
<path d="M455.528 236.2C458.634 236.2 461.152 233.682 461.152 230.576C461.152 227.47 458.634 224.952 455.528 224.952C452.422 224.952 449.904 227.47 449.904 230.576C449.904 233.682 452.422 236.2 455.528 236.2Z" fill="#DD6969"/>
<path d="M493.02 236.2C496.126 236.2 498.644 233.682 498.644 230.576C498.644 227.47 496.126 224.952 493.02 224.952C489.914 224.952 487.396 227.47 487.396 230.576C487.396 233.682 489.914 236.2 493.02 236.2Z" fill="#DD6969"/>
</g>
</svg>
