<svg width="241" height="359" viewBox="0 0 241 359" fill="none" xmlns="http://www.w3.org/2000/svg">
<rect x="52" y="310" width="137" height="49" rx="5" fill="#3988FF"/>
<path d="M80.4246 341L77.4366 335.87H75.4566V341H73.8186V328.454H77.8686C78.8166 328.454 79.6146 328.616 80.2626 328.94C80.9226 329.264 81.4146 329.702 81.7386 330.254C82.0626 330.806 82.2246 331.436 82.2246 332.144C82.2246 333.008 81.9726 333.77 81.4686 334.43C80.9766 335.09 80.2326 335.528 79.2366 335.744L82.3866 341H80.4246ZM75.4566 334.556H77.8686C78.7566 334.556 79.4226 334.34 79.8666 333.908C80.3106 333.464 80.5326 332.876 80.5326 332.144C80.5326 331.4 80.3106 330.824 79.8666 330.416C79.4346 330.008 78.7686 329.804 77.8686 329.804H75.4566V334.556ZM93.7698 335.69C93.7698 336.002 93.7518 336.332 93.7158 336.68H85.8318C85.8918 337.652 86.2218 338.414 86.8218 338.966C87.4338 339.506 88.1718 339.776 89.0358 339.776C89.7438 339.776 90.3318 339.614 90.7998 339.29C91.2798 338.954 91.6158 338.51 91.8078 337.958H93.5718C93.3078 338.906 92.7798 339.68 91.9878 340.28C91.1958 340.868 90.2118 341.162 89.0358 341.162C88.0998 341.162 87.2598 340.952 86.5158 340.532C85.7838 340.112 85.2078 339.518 84.7878 338.75C84.3678 337.97 84.1578 337.07 84.1578 336.05C84.1578 335.03 84.3618 334.136 84.7698 333.368C85.1778 332.6 85.7478 332.012 86.4798 331.604C87.2238 331.184 88.0758 330.974 89.0358 330.974C89.9718 330.974 90.7998 331.178 91.5198 331.586C92.2398 331.994 92.7918 332.558 93.1758 333.278C93.5718 333.986 93.7698 334.79 93.7698 335.69ZM92.0778 335.348C92.0778 334.724 91.9398 334.19 91.6638 333.746C91.3878 333.29 91.0098 332.948 90.5298 332.72C90.0618 332.48 89.5398 332.36 88.9638 332.36C88.1358 332.36 87.4278 332.624 86.8398 333.152C86.2638 333.68 85.9338 334.412 85.8498 335.348H92.0778ZM95.3199 336.032C95.3199 335.024 95.5239 334.142 95.9319 333.386C96.3399 332.618 96.8979 332.024 97.6059 331.604C98.3259 331.184 99.1239 330.974 99.9999 330.974C100.864 330.974 101.614 331.16 102.25 331.532C102.886 331.904 103.36 332.372 103.672 332.936V331.136H105.328V341H103.672V339.164C103.348 339.74 102.862 340.22 102.214 340.604C101.578 340.976 100.834 341.162 99.9819 341.162C99.1059 341.162 98.3139 340.946 97.6059 340.514C96.8979 340.082 96.3399 339.476 95.9319 338.696C95.5239 337.916 95.3199 337.028 95.3199 336.032ZM103.672 336.05C103.672 335.306 103.522 334.658 103.222 334.106C102.922 333.554 102.514 333.134 101.998 332.846C101.494 332.546 100.936 332.396 100.324 332.396C99.7119 332.396 99.1539 332.54 98.6499 332.828C98.1459 333.116 97.7439 333.536 97.4439 334.088C97.1439 334.64 96.9939 335.288 96.9939 336.032C96.9939 336.788 97.1439 337.448 97.4439 338.012C97.7439 338.564 98.1459 338.99 98.6499 339.29C99.1539 339.578 99.7119 339.722 100.324 339.722C100.936 339.722 101.494 339.578 101.998 339.29C102.514 338.99 102.922 338.564 103.222 338.012C103.522 337.448 103.672 336.794 103.672 336.05ZM107.484 336.032C107.484 335.024 107.688 334.142 108.096 333.386C108.504 332.618 109.062 332.024 109.77 331.604C110.49 331.184 111.294 330.974 112.182 330.974C112.95 330.974 113.664 331.154 114.324 331.514C114.984 331.862 115.488 332.324 115.836 332.9V327.68H117.492V341H115.836V339.146C115.512 339.734 115.032 340.22 114.396 340.604C113.76 340.976 113.016 341.162 112.164 341.162C111.288 341.162 110.49 340.946 109.77 340.514C109.062 340.082 108.504 339.476 108.096 338.696C107.688 337.916 107.484 337.028 107.484 336.032ZM115.836 336.05C115.836 335.306 115.686 334.658 115.386 334.106C115.086 333.554 114.678 333.134 114.162 332.846C113.658 332.546 113.1 332.396 112.488 332.396C111.876 332.396 111.318 332.54 110.814 332.828C110.31 333.116 109.908 333.536 109.608 334.088C109.308 334.64 109.158 335.288 109.158 336.032C109.158 336.788 109.308 337.448 109.608 338.012C109.908 338.564 110.31 338.99 110.814 339.29C111.318 339.578 111.876 339.722 112.488 339.722C113.1 339.722 113.658 339.578 114.162 339.29C114.678 338.99 115.086 338.564 115.386 338.012C115.686 337.448 115.836 336.794 115.836 336.05ZM137.785 328.544V341H136.147V331.712L132.007 341H130.855L126.697 331.694V341H125.059V328.544H126.823L131.431 338.84L136.039 328.544H137.785ZM144.865 341.162C143.941 341.162 143.101 340.952 142.345 340.532C141.601 340.112 141.013 339.518 140.581 338.75C140.161 337.97 139.951 337.07 139.951 336.05C139.951 335.042 140.167 334.154 140.599 333.386C141.043 332.606 141.643 332.012 142.399 331.604C143.155 331.184 144.001 330.974 144.937 330.974C145.873 330.974 146.719 331.184 147.475 331.604C148.231 332.012 148.825 332.6 149.257 333.368C149.701 334.136 149.923 335.03 149.923 336.05C149.923 337.07 149.695 337.97 149.239 338.75C148.795 339.518 148.189 340.112 147.421 340.532C146.653 340.952 145.801 341.162 144.865 341.162ZM144.865 339.722C145.453 339.722 146.005 339.584 146.521 339.308C147.037 339.032 147.451 338.618 147.763 338.066C148.087 337.514 148.249 336.842 148.249 336.05C148.249 335.258 148.093 334.586 147.781 334.034C147.469 333.482 147.061 333.074 146.557 332.81C146.053 332.534 145.507 332.396 144.919 332.396C144.319 332.396 143.767 332.534 143.263 332.81C142.771 333.074 142.375 333.482 142.075 334.034C141.775 334.586 141.625 335.258 141.625 336.05C141.625 336.854 141.769 337.532 142.057 338.084C142.357 338.636 142.753 339.05 143.245 339.326C143.737 339.59 144.277 339.722 144.865 339.722ZM153.714 332.738C154.002 332.174 154.41 331.736 154.938 331.424C155.478 331.112 156.132 330.956 156.9 330.956V332.648H156.468C154.632 332.648 153.714 333.644 153.714 335.636V341H152.076V331.136H153.714V332.738ZM167.791 335.69C167.791 336.002 167.773 336.332 167.737 336.68H159.853C159.913 337.652 160.243 338.414 160.843 338.966C161.455 339.506 162.193 339.776 163.057 339.776C163.765 339.776 164.353 339.614 164.821 339.29C165.301 338.954 165.637 338.51 165.829 337.958H167.593C167.329 338.906 166.801 339.68 166.009 340.28C165.217 340.868 164.233 341.162 163.057 341.162C162.121 341.162 161.281 340.952 160.537 340.532C159.805 340.112 159.229 339.518 158.809 338.75C158.389 337.97 158.179 337.07 158.179 336.05C158.179 335.03 158.383 334.136 158.791 333.368C159.199 332.6 159.769 332.012 160.501 331.604C161.245 331.184 162.097 330.974 163.057 330.974C163.993 330.974 164.821 331.178 165.541 331.586C166.261 331.994 166.813 332.558 167.197 333.278C167.593 333.986 167.791 334.79 167.791 335.69ZM166.099 335.348C166.099 334.724 165.961 334.19 165.685 333.746C165.409 333.29 165.031 332.948 164.551 332.72C164.083 332.48 163.561 332.36 162.985 332.36C162.157 332.36 161.449 332.624 160.861 333.152C160.285 333.68 159.955 334.412 159.871 335.348H166.099Z" fill="white"/>
<path d="M58.7767 206.687C59.0433 206.687 59.2517 206.767 59.4017 206.925C59.5517 207.075 59.6267 207.275 59.6267 207.525V209H47.5767V208.162C47.5767 207.996 47.61 207.821 47.6767 207.637C47.7433 207.446 47.8558 207.275 48.0142 207.125L53.6892 201.437C54.1642 200.962 54.5933 200.504 54.9767 200.062C55.36 199.621 55.685 199.183 55.9517 198.75C56.2183 198.308 56.4225 197.858 56.5642 197.4C56.7142 196.942 56.7892 196.458 56.7892 195.95C56.7892 195.45 56.71 195.012 56.5517 194.637C56.3933 194.254 56.1767 193.937 55.9017 193.687C55.6267 193.437 55.3017 193.25 54.9267 193.125C54.5517 193 54.1475 192.937 53.7142 192.937C53.2808 192.937 52.8808 193 52.5142 193.125C52.1558 193.25 51.835 193.425 51.5517 193.65C51.2683 193.875 51.0308 194.142 50.8392 194.45C50.6475 194.758 50.51 195.092 50.4267 195.45C50.31 195.767 50.16 195.979 49.9767 196.088C49.8017 196.196 49.5433 196.221 49.2017 196.162L47.9267 195.937C48.0433 195.104 48.2725 194.371 48.6142 193.737C48.9558 193.104 49.385 192.575 49.9017 192.15C50.4183 191.717 51.01 191.392 51.6767 191.175C52.3517 190.958 53.0767 190.85 53.8517 190.85C54.635 190.85 55.3558 190.967 56.0142 191.2C56.6808 191.425 57.2558 191.754 57.7392 192.187C58.2225 192.621 58.6017 193.15 58.8767 193.775C59.1517 194.392 59.2892 195.092 59.2892 195.875C59.2892 196.542 59.1892 197.162 58.9892 197.737C58.7975 198.304 58.5308 198.846 58.1892 199.362C57.8558 199.879 57.4642 200.383 57.0142 200.875C56.5725 201.358 56.1017 201.85 55.6017 202.35L51.0517 207C51.4017 206.908 51.7517 206.833 52.1017 206.775C52.46 206.717 52.7975 206.687 53.1142 206.687H58.7767ZM70.0286 202.45V195.45C70.0286 195.208 70.0328 194.954 70.0411 194.687C70.0578 194.412 70.0869 194.129 70.1286 193.837L63.8411 202.45H70.0286ZM74.7661 202.45V203.862C74.7661 204.004 74.7203 204.125 74.6286 204.225C74.5369 204.325 74.4078 204.375 74.2411 204.375H72.1661V209H70.0286V204.375H62.1536C61.9703 204.375 61.8161 204.325 61.6911 204.225C61.5661 204.117 61.4828 203.983 61.4411 203.825L61.1911 202.575L69.8661 191.037H72.1661V202.45H74.7661ZM78.6181 209.2C78.5014 209.517 78.3181 209.75 78.0681 209.9C77.8181 210.058 77.5597 210.138 77.2931 210.138H76.2681L83.7181 191.437C83.8347 191.154 84.0014 190.937 84.2181 190.787C84.4431 190.629 84.7014 190.55 84.9931 190.55H86.0306L78.6181 209.2ZM100.383 191.05V192.137C100.383 192.454 100.345 192.712 100.27 192.912C100.203 193.104 100.137 193.271 100.07 193.412L92.795 208.137C92.6784 208.379 92.5159 208.583 92.3075 208.75C92.0992 208.917 91.82 209 91.47 209H89.72L97.1075 194.487C97.2325 194.254 97.3575 194.042 97.4825 193.85C97.6075 193.65 97.745 193.467 97.895 193.3H88.72C88.5617 193.3 88.4242 193.242 88.3075 193.125C88.1909 193.008 88.1325 192.871 88.1325 192.712V191.05H100.383ZM119.158 193.975C119.074 194.117 118.987 194.221 118.895 194.287C118.804 194.354 118.687 194.387 118.545 194.387C118.395 194.387 118.224 194.321 118.033 194.187C117.841 194.046 117.599 193.892 117.308 193.725C117.024 193.55 116.683 193.396 116.283 193.262C115.883 193.121 115.404 193.05 114.845 193.05C114.32 193.05 113.858 193.121 113.458 193.262C113.066 193.396 112.737 193.583 112.47 193.825C112.204 194.058 111.999 194.337 111.858 194.662C111.724 194.979 111.658 195.325 111.658 195.7C111.658 196.183 111.779 196.583 112.02 196.9C112.27 197.217 112.595 197.487 112.995 197.712C113.395 197.937 113.849 198.133 114.358 198.3C114.866 198.467 115.387 198.642 115.92 198.825C116.454 199 116.974 199.204 117.483 199.437C117.991 199.671 118.445 199.967 118.845 200.325C119.245 200.675 119.566 201.108 119.808 201.625C120.058 202.133 120.183 202.758 120.183 203.5C120.183 204.292 120.045 205.033 119.77 205.725C119.504 206.417 119.112 207.021 118.595 207.537C118.079 208.054 117.441 208.462 116.683 208.762C115.933 209.054 115.079 209.2 114.12 209.2C113.545 209.2 112.987 209.142 112.445 209.025C111.904 208.917 111.391 208.762 110.908 208.562C110.424 208.354 109.97 208.108 109.545 207.825C109.129 207.533 108.754 207.208 108.42 206.85L109.183 205.575C109.258 205.475 109.345 205.392 109.445 205.325C109.554 205.258 109.674 205.225 109.808 205.225C109.983 205.225 110.183 205.317 110.408 205.5C110.641 205.683 110.924 205.887 111.258 206.112C111.599 206.329 112.004 206.529 112.47 206.712C112.945 206.896 113.52 206.987 114.195 206.987C114.745 206.987 115.237 206.917 115.67 206.775C116.104 206.625 116.466 206.417 116.758 206.15C117.058 205.875 117.287 205.546 117.445 205.162C117.604 204.779 117.683 204.354 117.683 203.887C117.683 203.362 117.562 202.933 117.32 202.6C117.079 202.267 116.758 201.987 116.358 201.762C115.958 201.537 115.504 201.346 114.995 201.188C114.487 201.029 113.966 200.867 113.433 200.7C112.899 200.525 112.379 200.325 111.87 200.1C111.362 199.875 110.908 199.583 110.508 199.225C110.108 198.858 109.787 198.404 109.545 197.862C109.304 197.312 109.183 196.637 109.183 195.837C109.183 195.196 109.308 194.575 109.558 193.975C109.808 193.375 110.17 192.846 110.645 192.387C111.129 191.921 111.72 191.55 112.42 191.275C113.12 190.992 113.92 190.85 114.82 190.85C115.829 190.85 116.754 191.012 117.595 191.337C118.445 191.654 119.183 192.112 119.808 192.712L119.158 193.975ZM133.287 196.3V209H131.825C131.491 209 131.275 208.837 131.175 208.512L131 207.237C130.725 207.529 130.437 207.796 130.137 208.037C129.837 208.279 129.516 208.487 129.175 208.662C128.833 208.829 128.471 208.958 128.087 209.05C127.704 209.15 127.291 209.2 126.85 209.2C126.15 209.2 125.533 209.083 125 208.85C124.475 208.617 124.033 208.292 123.675 207.875C123.316 207.45 123.046 206.942 122.862 206.35C122.679 205.758 122.587 205.104 122.587 204.387V196.3H125.037V204.387C125.037 205.296 125.246 206.004 125.662 206.512C126.079 207.012 126.716 207.262 127.575 207.262C128.2 207.262 128.783 207.117 129.325 206.825C129.866 206.525 130.375 206.117 130.85 205.6V196.3H133.287ZM139.127 205.875C139.527 206.4 139.956 206.767 140.415 206.975C140.881 207.183 141.402 207.287 141.977 207.287C143.094 207.287 143.956 206.887 144.565 206.087C145.181 205.279 145.49 204.104 145.49 202.562C145.49 201.754 145.419 201.067 145.277 200.5C145.144 199.925 144.944 199.458 144.677 199.1C144.419 198.733 144.098 198.467 143.715 198.3C143.331 198.125 142.898 198.037 142.415 198.037C141.706 198.037 141.09 198.196 140.565 198.512C140.048 198.829 139.569 199.279 139.127 199.862V205.875ZM139.002 198.2C139.269 197.883 139.552 197.596 139.852 197.337C140.16 197.071 140.49 196.846 140.84 196.662C141.19 196.471 141.56 196.325 141.952 196.225C142.352 196.117 142.777 196.062 143.227 196.062C143.952 196.062 144.606 196.204 145.19 196.487C145.781 196.771 146.285 197.187 146.702 197.737C147.119 198.287 147.44 198.967 147.665 199.775C147.898 200.583 148.015 201.512 148.015 202.562C148.015 203.504 147.885 204.379 147.627 205.187C147.377 205.987 147.015 206.683 146.54 207.275C146.073 207.867 145.498 208.333 144.815 208.675C144.14 209.008 143.377 209.175 142.527 209.175C141.769 209.175 141.119 209.05 140.577 208.8C140.035 208.55 139.552 208.2 139.127 207.75V213.263H136.69V196.3H138.152C138.494 196.3 138.706 196.462 138.79 196.787L139.002 198.2ZM153.19 205.875C153.59 206.4 154.019 206.767 154.477 206.975C154.944 207.183 155.465 207.287 156.04 207.287C157.156 207.287 158.019 206.887 158.627 206.087C159.244 205.279 159.552 204.104 159.552 202.562C159.552 201.754 159.481 201.067 159.34 200.5C159.206 199.925 159.006 199.458 158.74 199.1C158.481 198.733 158.16 198.467 157.777 198.3C157.394 198.125 156.96 198.037 156.477 198.037C155.769 198.037 155.152 198.196 154.627 198.512C154.11 198.829 153.631 199.279 153.19 199.862V205.875ZM153.065 198.2C153.331 197.883 153.615 197.596 153.915 197.337C154.223 197.071 154.552 196.846 154.902 196.662C155.252 196.471 155.623 196.325 156.015 196.225C156.415 196.117 156.84 196.062 157.29 196.062C158.015 196.062 158.669 196.204 159.252 196.487C159.844 196.771 160.348 197.187 160.765 197.737C161.181 198.287 161.502 198.967 161.727 199.775C161.96 200.583 162.077 201.512 162.077 202.562C162.077 203.504 161.948 204.379 161.69 205.187C161.44 205.987 161.077 206.683 160.602 207.275C160.135 207.867 159.56 208.333 158.877 208.675C158.202 209.008 157.44 209.175 156.59 209.175C155.831 209.175 155.181 209.05 154.64 208.8C154.098 208.55 153.615 208.2 153.19 207.75V213.263H150.752V196.3H152.215C152.556 196.3 152.769 196.462 152.852 196.787L153.065 198.2ZM170.227 196.1C171.16 196.1 172.002 196.254 172.752 196.562C173.51 196.862 174.152 197.3 174.677 197.875C175.21 198.442 175.619 199.129 175.902 199.937C176.185 200.737 176.327 201.637 176.327 202.637C176.327 203.637 176.185 204.542 175.902 205.35C175.619 206.158 175.21 206.846 174.677 207.412C174.152 207.979 173.51 208.417 172.752 208.725C172.002 209.025 171.16 209.175 170.227 209.175C169.285 209.175 168.435 209.025 167.677 208.725C166.927 208.417 166.285 207.979 165.752 207.412C165.219 206.846 164.806 206.158 164.515 205.35C164.231 204.542 164.09 203.637 164.09 202.637C164.09 201.637 164.231 200.737 164.515 199.937C164.806 199.129 165.219 198.442 165.752 197.875C166.285 197.3 166.927 196.862 167.677 196.562C168.435 196.254 169.285 196.1 170.227 196.1ZM170.227 207.275C171.427 207.275 172.323 206.871 172.915 206.062C173.506 205.254 173.802 204.117 173.802 202.65C173.802 201.183 173.506 200.046 172.915 199.237C172.323 198.421 171.427 198.012 170.227 198.012C169.01 198.012 168.102 198.421 167.502 199.237C166.91 200.046 166.615 201.183 166.615 202.65C166.615 204.117 166.91 205.254 167.502 206.062C168.102 206.871 169.01 207.275 170.227 207.275ZM181.348 198.737C181.756 197.904 182.248 197.25 182.823 196.775C183.398 196.3 184.09 196.062 184.898 196.062C185.173 196.062 185.431 196.096 185.673 196.162C185.923 196.221 186.14 196.312 186.323 196.438L186.16 198.275C186.102 198.5 185.965 198.612 185.748 198.612C185.631 198.612 185.456 198.592 185.223 198.55C184.99 198.5 184.74 198.475 184.473 198.475C184.081 198.475 183.735 198.533 183.435 198.65C183.135 198.758 182.865 198.925 182.623 199.15C182.39 199.367 182.181 199.637 181.998 199.962C181.815 200.279 181.644 200.642 181.485 201.05V209H179.048V196.3H180.448C180.715 196.3 180.894 196.35 180.985 196.45C181.085 196.542 181.156 196.708 181.198 196.95L181.348 198.737ZM192.178 209.2C191.153 209.2 190.362 208.912 189.803 208.337C189.253 207.762 188.978 206.942 188.978 205.875V198.275H187.503C187.362 198.275 187.241 198.233 187.141 198.15C187.049 198.058 187.003 197.925 187.003 197.75V196.762L189.066 196.475L189.616 192.687C189.649 192.546 189.712 192.437 189.803 192.362C189.903 192.279 190.028 192.237 190.178 192.237H191.416V196.5H195.016V198.275H191.416V205.712C191.416 206.212 191.537 206.587 191.778 206.837C192.028 207.079 192.345 207.2 192.728 207.2C192.953 207.2 193.145 207.171 193.303 207.112C193.47 207.054 193.612 206.992 193.728 206.925C193.845 206.85 193.945 206.783 194.028 206.725C194.112 206.667 194.187 206.637 194.253 206.637C194.337 206.637 194.399 206.658 194.441 206.7C194.491 206.733 194.541 206.792 194.591 206.875L195.316 208.05C194.916 208.417 194.441 208.7 193.891 208.9C193.341 209.1 192.77 209.2 192.178 209.2Z" fill="#050C26"/>
<path d="M31.1053 249.52H26.2413L25.3453 252H23.8092L27.8413 240.912H29.5213L33.5373 252H32.0013L31.1053 249.52ZM30.6893 248.336L28.6733 242.704L26.6573 248.336H30.6893ZM39.5665 243.072C40.6332 243.072 41.4972 243.397 42.1585 244.048C42.8198 244.688 43.1505 245.616 43.1505 246.832V252H41.7105V247.04C41.7105 246.165 41.4918 245.499 41.0545 245.04C40.6172 244.571 40.0198 244.336 39.2625 244.336C38.4945 244.336 37.8812 244.576 37.4225 245.056C36.9745 245.536 36.7505 246.235 36.7505 247.152V252H35.2945V243.232H36.7505V244.48C37.0385 244.032 37.4278 243.685 37.9185 243.44C38.4198 243.195 38.9692 243.072 39.5665 243.072ZM49.2505 247.584C49.2505 246.688 49.4318 245.904 49.7945 245.232C50.1572 244.549 50.6532 244.021 51.2825 243.648C51.9225 243.275 52.6318 243.088 53.4105 243.088C54.1785 243.088 54.8452 243.253 55.4105 243.584C55.9758 243.915 56.3972 244.331 56.6745 244.832V243.232H58.1465V252H56.6745V250.368C56.3865 250.88 55.9545 251.307 55.3785 251.648C54.8132 251.979 54.1518 252.144 53.3945 252.144C52.6158 252.144 51.9118 251.952 51.2825 251.568C50.6532 251.184 50.1572 250.645 49.7945 249.952C49.4318 249.259 49.2505 248.469 49.2505 247.584ZM56.6745 247.6C56.6745 246.939 56.5412 246.363 56.2745 245.872C56.0078 245.381 55.6452 245.008 55.1865 244.752C54.7385 244.485 54.2425 244.352 53.6985 244.352C53.1545 244.352 52.6585 244.48 52.2105 244.736C51.7625 244.992 51.4052 245.365 51.1385 245.856C50.8718 246.347 50.7385 246.923 50.7385 247.584C50.7385 248.256 50.8718 248.843 51.1385 249.344C51.4052 249.835 51.7625 250.213 52.2105 250.48C52.6585 250.736 53.1545 250.864 53.6985 250.864C54.2425 250.864 54.7385 250.736 55.1865 250.48C55.6452 250.213 56.0078 249.835 56.2745 249.344C56.5412 248.843 56.6745 248.261 56.6745 247.6ZM64.223 243.088C64.9803 243.088 65.6417 243.253 66.207 243.584C66.783 243.915 67.2097 244.331 67.487 244.832V243.232H68.959V252.192C68.959 252.992 68.7883 253.701 68.447 254.32C68.1057 254.949 67.615 255.44 66.975 255.792C66.3457 256.144 65.6097 256.32 64.767 256.32C63.615 256.32 62.655 256.048 61.887 255.504C61.119 254.96 60.6657 254.219 60.527 253.28H61.967C62.127 253.813 62.4577 254.24 62.959 254.56C63.4603 254.891 64.063 255.056 64.767 255.056C65.567 255.056 66.2177 254.805 66.719 254.304C67.231 253.803 67.487 253.099 67.487 252.192V250.352C67.199 250.864 66.7723 251.291 66.207 251.632C65.6417 251.973 64.9803 252.144 64.223 252.144C63.4443 252.144 62.735 251.952 62.095 251.568C61.4657 251.184 60.9697 250.645 60.607 249.952C60.2443 249.259 60.063 248.469 60.063 247.584C60.063 246.688 60.2443 245.904 60.607 245.232C60.9697 244.549 61.4657 244.021 62.095 243.648C62.735 243.275 63.4443 243.088 64.223 243.088ZM67.487 247.6C67.487 246.939 67.3537 246.363 67.087 245.872C66.8203 245.381 66.4577 245.008 65.999 244.752C65.551 244.485 65.055 244.352 64.511 244.352C63.967 244.352 63.471 244.48 63.023 244.736C62.575 244.992 62.2177 245.365 61.951 245.856C61.6843 246.347 61.551 246.923 61.551 247.584C61.551 248.256 61.6843 248.843 61.951 249.344C62.2177 249.835 62.575 250.213 63.023 250.48C63.471 250.736 63.967 250.864 64.511 250.864C65.055 250.864 65.551 250.736 65.999 250.48C66.4577 250.213 66.8203 249.835 67.087 249.344C67.3537 248.843 67.487 248.261 67.487 247.6ZM79.4195 247.28C79.4195 247.557 79.4035 247.851 79.3715 248.16H72.3635C72.4168 249.024 72.7102 249.701 73.2435 250.192C73.7875 250.672 74.4435 250.912 75.2115 250.912C75.8408 250.912 76.3635 250.768 76.7795 250.48C77.2062 250.181 77.5048 249.787 77.6755 249.296H79.2435C79.0088 250.139 78.5395 250.827 77.8355 251.36C77.1315 251.883 76.2568 252.144 75.2115 252.144C74.3795 252.144 73.6328 251.957 72.9715 251.584C72.3208 251.211 71.8088 250.683 71.4355 250C71.0622 249.307 70.8755 248.507 70.8755 247.6C70.8755 246.693 71.0568 245.899 71.4195 245.216C71.7822 244.533 72.2888 244.011 72.9395 243.648C73.6008 243.275 74.3582 243.088 75.2115 243.088C76.0435 243.088 76.7795 243.269 77.4195 243.632C78.0595 243.995 78.5502 244.496 78.8915 245.136C79.2435 245.765 79.4195 246.48 79.4195 247.28ZM77.9155 246.976C77.9155 246.421 77.7928 245.947 77.5475 245.552C77.3022 245.147 76.9662 244.843 76.5395 244.64C76.1235 244.427 75.6595 244.32 75.1475 244.32C74.4115 244.32 73.7822 244.555 73.2595 245.024C72.7475 245.493 72.4542 246.144 72.3795 246.976H77.9155ZM85.6134 243.072C86.68 243.072 87.544 243.397 88.2054 244.048C88.8667 244.688 89.1974 245.616 89.1974 246.832V252H87.7574V247.04C87.7574 246.165 87.5387 245.499 87.1014 245.04C86.664 244.571 86.0667 244.336 85.3094 244.336C84.5414 244.336 83.928 244.576 83.4694 245.056C83.0214 245.536 82.7974 246.235 82.7974 247.152V252H81.3414V243.232H82.7974V244.48C83.0854 244.032 83.4747 243.685 83.9654 243.44C84.4667 243.195 85.016 243.072 85.6134 243.072ZM91.0318 247.6C91.0318 246.693 91.2131 245.904 91.5758 245.232C91.9384 244.549 92.4398 244.021 93.0798 243.648C93.7304 243.275 94.4718 243.088 95.3038 243.088C96.3811 243.088 97.2664 243.349 97.9598 243.872C98.6638 244.395 99.1278 245.12 99.3518 246.048H97.7838C97.6344 245.515 97.3411 245.093 96.9038 244.784C96.4771 244.475 95.9438 244.32 95.3038 244.32C94.4718 244.32 93.7998 244.608 93.2878 245.184C92.7758 245.749 92.5198 246.555 92.5198 247.6C92.5198 248.656 92.7758 249.472 93.2878 250.048C93.7998 250.624 94.4718 250.912 95.3038 250.912C95.9438 250.912 96.4771 250.763 96.9038 250.464C97.3304 250.165 97.6238 249.739 97.7838 249.184H99.3518C99.1171 250.08 98.6478 250.8 97.9438 251.344C97.2398 251.877 96.3598 252.144 95.3038 252.144C94.4718 252.144 93.7304 251.957 93.0798 251.584C92.4398 251.211 91.9384 250.683 91.5758 250C91.2131 249.317 91.0318 248.517 91.0318 247.6ZM108.847 243.232L103.567 256.128H102.062L103.791 251.904L100.255 243.232H101.871L104.623 250.336L107.343 243.232H108.847ZM116.032 244.848C116.32 244.347 116.746 243.931 117.312 243.6C117.888 243.259 118.554 243.088 119.312 243.088C120.09 243.088 120.794 243.275 121.424 243.648C122.064 244.021 122.565 244.549 122.928 245.232C123.29 245.904 123.472 246.688 123.472 247.584C123.472 248.469 123.29 249.259 122.928 249.952C122.565 250.645 122.064 251.184 121.424 251.568C120.794 251.952 120.09 252.144 119.312 252.144C118.565 252.144 117.904 251.979 117.328 251.648C116.762 251.307 116.33 250.885 116.032 250.384V256.16H114.576V243.232H116.032V244.848ZM121.984 247.584C121.984 246.923 121.85 246.347 121.584 245.856C121.317 245.365 120.954 244.992 120.496 244.736C120.048 244.48 119.552 244.352 119.008 244.352C118.474 244.352 117.978 244.485 117.52 244.752C117.072 245.008 116.709 245.387 116.432 245.888C116.165 246.379 116.032 246.949 116.032 247.6C116.032 248.261 116.165 248.843 116.432 249.344C116.709 249.835 117.072 250.213 117.52 250.48C117.978 250.736 118.474 250.864 119.008 250.864C119.552 250.864 120.048 250.736 120.496 250.48C120.954 250.213 121.317 249.835 121.584 249.344C121.85 248.843 121.984 248.256 121.984 247.584ZM129.74 243.072C130.402 243.072 130.999 243.216 131.532 243.504C132.066 243.781 132.482 244.203 132.78 244.768C133.09 245.333 133.244 246.021 133.244 246.832V252H131.804V247.04C131.804 246.165 131.586 245.499 131.148 245.04C130.711 244.571 130.114 244.336 129.356 244.336C128.588 244.336 127.975 244.576 127.516 245.056C127.068 245.536 126.844 246.235 126.844 247.152V252H125.388V240.16H126.844V244.48C127.132 244.032 127.527 243.685 128.028 243.44C128.54 243.195 129.111 243.072 129.74 243.072ZM136.375 241.808C136.097 241.808 135.863 241.712 135.671 241.52C135.479 241.328 135.383 241.093 135.383 240.816C135.383 240.539 135.479 240.304 135.671 240.112C135.863 239.92 136.097 239.824 136.375 239.824C136.641 239.824 136.865 239.92 137.047 240.112C137.239 240.304 137.335 240.539 137.335 240.816C137.335 241.093 137.239 241.328 137.047 241.52C136.865 241.712 136.641 241.808 136.375 241.808ZM137.079 243.232V252H135.623V243.232H137.079ZM141.016 240.16V252H139.56V240.16H141.016ZM147.322 252.144C146.5 252.144 145.754 251.957 145.082 251.584C144.42 251.211 143.898 250.683 143.514 250C143.14 249.307 142.954 248.507 142.954 247.6C142.954 246.704 143.146 245.915 143.53 245.232C143.924 244.539 144.458 244.011 145.13 243.648C145.802 243.275 146.554 243.088 147.386 243.088C148.218 243.088 148.97 243.275 149.642 243.648C150.314 244.011 150.842 244.533 151.226 245.216C151.62 245.899 151.818 246.693 151.818 247.6C151.818 248.507 151.615 249.307 151.21 250C150.815 250.683 150.276 251.211 149.594 251.584C148.911 251.957 148.154 252.144 147.322 252.144ZM147.322 250.864C147.844 250.864 148.335 250.741 148.794 250.496C149.252 250.251 149.62 249.883 149.898 249.392C150.186 248.901 150.33 248.304 150.33 247.6C150.33 246.896 150.191 246.299 149.914 245.808C149.636 245.317 149.274 244.955 148.826 244.72C148.378 244.475 147.892 244.352 147.37 244.352C146.836 244.352 146.346 244.475 145.898 244.72C145.46 244.955 145.108 245.317 144.842 245.808C144.575 246.299 144.442 246.896 144.442 247.6C144.442 248.315 144.57 248.917 144.826 249.408C145.092 249.899 145.444 250.267 145.882 250.512C146.319 250.747 146.799 250.864 147.322 250.864ZM156.836 252.144C156.164 252.144 155.561 252.032 155.028 251.808C154.495 251.573 154.073 251.253 153.764 250.848C153.455 250.432 153.284 249.957 153.252 249.424H154.756C154.799 249.861 155.001 250.219 155.364 250.496C155.737 250.773 156.223 250.912 156.82 250.912C157.375 250.912 157.812 250.789 158.132 250.544C158.452 250.299 158.612 249.989 158.612 249.616C158.612 249.232 158.441 248.949 158.1 248.768C157.759 248.576 157.231 248.389 156.516 248.208C155.865 248.037 155.332 247.867 154.916 247.696C154.511 247.515 154.159 247.253 153.86 246.912C153.572 246.56 153.428 246.101 153.428 245.536C153.428 245.088 153.561 244.677 153.828 244.304C154.095 243.931 154.473 243.637 154.964 243.424C155.455 243.2 156.015 243.088 156.644 243.088C157.615 243.088 158.399 243.333 158.996 243.824C159.593 244.315 159.913 244.987 159.956 245.84H158.5C158.468 245.381 158.281 245.013 157.94 244.736C157.609 244.459 157.161 244.32 156.596 244.32C156.073 244.32 155.657 244.432 155.348 244.656C155.039 244.88 154.884 245.173 154.884 245.536C154.884 245.824 154.975 246.064 155.156 246.256C155.348 246.437 155.583 246.587 155.86 246.704C156.148 246.811 156.543 246.933 157.044 247.072C157.673 247.243 158.185 247.413 158.58 247.584C158.975 247.744 159.311 247.989 159.588 248.32C159.876 248.651 160.025 249.083 160.036 249.616C160.036 250.096 159.903 250.528 159.636 250.912C159.369 251.296 158.991 251.6 158.5 251.824C158.02 252.037 157.465 252.144 156.836 252.144ZM165.915 252.144C165.094 252.144 164.347 251.957 163.675 251.584C163.014 251.211 162.491 250.683 162.107 250C161.734 249.307 161.547 248.507 161.547 247.6C161.547 246.704 161.739 245.915 162.123 245.232C162.518 244.539 163.051 244.011 163.723 243.648C164.395 243.275 165.147 243.088 165.979 243.088C166.811 243.088 167.563 243.275 168.235 243.648C168.907 244.011 169.435 244.533 169.819 245.216C170.214 245.899 170.411 246.693 170.411 247.6C170.411 248.507 170.209 249.307 169.803 250C169.409 250.683 168.87 251.211 168.187 251.584C167.505 251.957 166.747 252.144 165.915 252.144ZM165.915 250.864C166.438 250.864 166.929 250.741 167.387 250.496C167.846 250.251 168.214 249.883 168.491 249.392C168.779 248.901 168.923 248.304 168.923 247.6C168.923 246.896 168.785 246.299 168.507 245.808C168.23 245.317 167.867 244.955 167.419 244.72C166.971 244.475 166.486 244.352 165.963 244.352C165.43 244.352 164.939 244.475 164.491 244.72C164.054 244.955 163.702 245.317 163.435 245.808C163.169 246.299 163.035 246.896 163.035 247.6C163.035 248.315 163.163 248.917 163.419 249.408C163.686 249.899 164.038 250.267 164.475 250.512C164.913 250.747 165.393 250.864 165.915 250.864ZM173.782 244.848C174.07 244.347 174.496 243.931 175.062 243.6C175.638 243.259 176.304 243.088 177.062 243.088C177.84 243.088 178.544 243.275 179.174 243.648C179.814 244.021 180.315 244.549 180.678 245.232C181.04 245.904 181.222 246.688 181.222 247.584C181.222 248.469 181.04 249.259 180.678 249.952C180.315 250.645 179.814 251.184 179.174 251.568C178.544 251.952 177.84 252.144 177.062 252.144C176.315 252.144 175.654 251.979 175.078 251.648C174.512 251.307 174.08 250.885 173.782 250.384V256.16H172.326V243.232H173.782V244.848ZM179.734 247.584C179.734 246.923 179.6 246.347 179.334 245.856C179.067 245.365 178.704 244.992 178.246 244.736C177.798 244.48 177.302 244.352 176.758 244.352C176.224 244.352 175.728 244.485 175.27 244.752C174.822 245.008 174.459 245.387 174.182 245.888C173.915 246.379 173.782 246.949 173.782 247.6C173.782 248.261 173.915 248.843 174.182 249.344C174.459 249.835 174.822 250.213 175.27 250.48C175.728 250.736 176.224 250.864 176.758 250.864C177.302 250.864 177.798 250.736 178.246 250.48C178.704 250.213 179.067 249.835 179.334 249.344C179.6 248.843 179.734 248.256 179.734 247.584ZM187.49 243.072C188.152 243.072 188.749 243.216 189.282 243.504C189.816 243.781 190.232 244.203 190.53 244.768C190.84 245.333 190.994 246.021 190.994 246.832V252H189.554V247.04C189.554 246.165 189.336 245.499 188.898 245.04C188.461 244.571 187.864 244.336 187.106 244.336C186.338 244.336 185.725 244.576 185.266 245.056C184.818 245.536 184.594 246.235 184.594 247.152V252H183.138V240.16H184.594V244.48C184.882 244.032 185.277 243.685 185.778 243.44C186.29 243.195 186.861 243.072 187.49 243.072ZM200.925 243.232L195.645 256.128H194.141L195.869 251.904L192.333 243.232H193.949L196.701 250.336L199.421 243.232H200.925ZM207.406 241.808C207.129 241.808 206.894 241.712 206.702 241.52C206.51 241.328 206.414 241.093 206.414 240.816C206.414 240.539 206.51 240.304 206.702 240.112C206.894 239.92 207.129 239.824 207.406 239.824C207.673 239.824 207.897 239.92 208.078 240.112C208.27 240.304 208.366 240.539 208.366 240.816C208.366 241.093 208.27 241.328 208.078 241.52C207.897 241.712 207.673 241.808 207.406 241.808ZM208.11 243.232V252H206.654V243.232H208.11ZM213.695 252.144C213.023 252.144 212.421 252.032 211.887 251.808C211.354 251.573 210.933 251.253 210.623 250.848C210.314 250.432 210.143 249.957 210.111 249.424H211.615C211.658 249.861 211.861 250.219 212.223 250.496C212.597 250.773 213.082 250.912 213.679 250.912C214.234 250.912 214.671 250.789 214.991 250.544C215.311 250.299 215.471 249.989 215.471 249.616C215.471 249.232 215.301 248.949 214.959 248.768C214.618 248.576 214.09 248.389 213.375 248.208C212.725 248.037 212.191 247.867 211.775 247.696C211.37 247.515 211.018 247.253 210.719 246.912C210.431 246.56 210.287 246.101 210.287 245.536C210.287 245.088 210.421 244.677 210.687 244.304C210.954 243.931 211.333 243.637 211.823 243.424C212.314 243.2 212.874 243.088 213.503 243.088C214.474 243.088 215.258 243.333 215.855 243.824C216.453 244.315 216.773 244.987 216.815 245.84H215.359C215.327 245.381 215.141 245.013 214.799 244.736C214.469 244.459 214.021 244.32 213.455 244.32C212.933 244.32 212.517 244.432 212.207 244.656C211.898 244.88 211.743 245.173 211.743 245.536C211.743 245.824 211.834 246.064 212.015 246.256C212.207 246.437 212.442 246.587 212.719 246.704C213.007 246.811 213.402 246.933 213.903 247.072C214.533 247.243 215.045 247.413 215.439 247.584C215.834 247.744 216.17 247.989 216.447 248.32C216.735 248.651 216.885 249.083 216.895 249.616C216.895 250.096 216.762 250.528 216.495 250.912C216.229 251.296 215.85 251.6 215.359 251.824C214.879 252.037 214.325 252.144 213.695 252.144ZM41.3443 273.584C41.3443 272.688 41.5256 271.904 41.8883 271.232C42.2509 270.549 42.7469 270.021 43.3763 269.648C44.0163 269.275 44.7309 269.088 45.5203 269.088C46.2029 269.088 46.8376 269.248 47.4243 269.568C48.0109 269.877 48.4589 270.288 48.7683 270.8V266.16H50.2403V278H48.7683V276.352C48.4803 276.875 48.0536 277.307 47.4883 277.648C46.9229 277.979 46.2616 278.144 45.5043 278.144C44.7256 278.144 44.0163 277.952 43.3763 277.568C42.7469 277.184 42.2509 276.645 41.8883 275.952C41.5256 275.259 41.3443 274.469 41.3443 273.584ZM48.7683 273.6C48.7683 272.939 48.6349 272.363 48.3683 271.872C48.1016 271.381 47.7389 271.008 47.2803 270.752C46.8323 270.485 46.3363 270.352 45.7923 270.352C45.2483 270.352 44.7523 270.48 44.3043 270.736C43.8563 270.992 43.4989 271.365 43.2323 271.856C42.9656 272.347 42.8323 272.923 42.8323 273.584C42.8323 274.256 42.9656 274.843 43.2323 275.344C43.4989 275.835 43.8563 276.213 44.3043 276.48C44.7523 276.736 45.2483 276.864 45.7923 276.864C46.3363 276.864 46.8323 276.736 47.2803 276.48C47.7389 276.213 48.1016 275.835 48.3683 275.344C48.6349 274.843 48.7683 274.261 48.7683 273.6ZM53.4528 267.808C53.1754 267.808 52.9408 267.712 52.7488 267.52C52.5568 267.328 52.4608 267.093 52.4608 266.816C52.4608 266.539 52.5568 266.304 52.7488 266.112C52.9408 265.92 53.1754 265.824 53.4528 265.824C53.7194 265.824 53.9434 265.92 54.1248 266.112C54.3168 266.304 54.4128 266.539 54.4128 266.816C54.4128 267.093 54.3168 267.328 54.1248 267.52C53.9434 267.712 53.7194 267.808 53.4528 267.808ZM54.1568 269.232V278H52.7008V269.232H54.1568ZM59.7423 278.144C59.0703 278.144 58.4676 278.032 57.9343 277.808C57.4009 277.573 56.9796 277.253 56.6703 276.848C56.3609 276.432 56.1903 275.957 56.1583 275.424H57.6623C57.7049 275.861 57.9076 276.219 58.2703 276.496C58.6436 276.773 59.1289 276.912 59.7263 276.912C60.2809 276.912 60.7183 276.789 61.0383 276.544C61.3583 276.299 61.5183 275.989 61.5183 275.616C61.5183 275.232 61.3476 274.949 61.0063 274.768C60.6649 274.576 60.1369 274.389 59.4223 274.208C58.7716 274.037 58.2383 273.867 57.8223 273.696C57.4169 273.515 57.0649 273.253 56.7663 272.912C56.4783 272.56 56.3343 272.101 56.3343 271.536C56.3343 271.088 56.4676 270.677 56.7343 270.304C57.0009 269.931 57.3796 269.637 57.8703 269.424C58.3609 269.2 58.9209 269.088 59.5503 269.088C60.5209 269.088 61.3049 269.333 61.9023 269.824C62.4996 270.315 62.8196 270.987 62.8623 271.84H61.4063C61.3743 271.381 61.1876 271.013 60.8463 270.736C60.5156 270.459 60.0676 270.32 59.5023 270.32C58.9796 270.32 58.5636 270.432 58.2543 270.656C57.9449 270.88 57.7903 271.173 57.7903 271.536C57.7903 271.824 57.8809 272.064 58.0623 272.256C58.2543 272.437 58.4889 272.587 58.7663 272.704C59.0543 272.811 59.4489 272.933 59.9503 273.072C60.5796 273.243 61.0916 273.413 61.4863 273.584C61.8809 273.744 62.2169 273.989 62.4943 274.32C62.7823 274.651 62.9316 275.083 62.9423 275.616C62.9423 276.096 62.8089 276.528 62.5423 276.912C62.2756 277.296 61.8969 277.6 61.4063 277.824C60.9263 278.037 60.3716 278.144 59.7423 278.144ZM66.7736 270.432V275.6C66.7736 276.027 66.8643 276.331 67.0456 276.512C67.227 276.683 67.5416 276.768 67.9896 276.768H69.0616V278H67.7496C66.939 278 66.331 277.813 65.9256 277.44C65.5203 277.067 65.3176 276.453 65.3176 275.6V270.432H64.1816V269.232H65.3176V267.024H66.7736V269.232H69.0616V270.432H66.7736ZM71.5778 267.808C71.3004 267.808 71.0658 267.712 70.8738 267.52C70.6818 267.328 70.5858 267.093 70.5858 266.816C70.5858 266.539 70.6818 266.304 70.8738 266.112C71.0658 265.92 71.3004 265.824 71.5778 265.824C71.8444 265.824 72.0684 265.92 72.2498 266.112C72.4418 266.304 72.5378 266.539 72.5378 266.816C72.5378 267.093 72.4418 267.328 72.2498 267.52C72.0684 267.712 71.8444 267.808 71.5778 267.808ZM72.2818 269.232V278H70.8258V269.232H72.2818ZM79.0353 269.072C80.1019 269.072 80.9659 269.397 81.6273 270.048C82.2886 270.688 82.6193 271.616 82.6193 272.832V278H81.1793V273.04C81.1793 272.165 80.9606 271.499 80.5233 271.04C80.0859 270.571 79.4886 270.336 78.7313 270.336C77.9633 270.336 77.3499 270.576 76.8913 271.056C76.4433 271.536 76.2193 272.235 76.2193 273.152V278H74.7633V269.232H76.2193V270.48C76.5073 270.032 76.8966 269.685 77.3873 269.44C77.8886 269.195 78.4379 269.072 79.0353 269.072ZM84.4536 273.6C84.4536 272.693 84.635 271.904 84.9976 271.232C85.3603 270.549 85.8616 270.021 86.5016 269.648C87.1523 269.275 87.8936 269.088 88.7256 269.088C89.803 269.088 90.6883 269.349 91.3816 269.872C92.0856 270.395 92.5496 271.12 92.7736 272.048H91.2056C91.0563 271.515 90.763 271.093 90.3256 270.784C89.899 270.475 89.3656 270.32 88.7256 270.32C87.8936 270.32 87.2216 270.608 86.7096 271.184C86.1976 271.749 85.9416 272.555 85.9416 273.6C85.9416 274.656 86.1976 275.472 86.7096 276.048C87.2216 276.624 87.8936 276.912 88.7256 276.912C89.3656 276.912 89.899 276.763 90.3256 276.464C90.7523 276.165 91.0456 275.739 91.2056 275.184H92.7736C92.539 276.08 92.0696 276.8 91.3656 277.344C90.6616 277.877 89.7816 278.144 88.7256 278.144C87.8936 278.144 87.1523 277.957 86.5016 277.584C85.8616 277.211 85.3603 276.683 84.9976 276C84.635 275.317 84.4536 274.517 84.4536 273.6ZM96.4924 270.432V275.6C96.4924 276.027 96.583 276.331 96.7644 276.512C96.9457 276.683 97.2604 276.768 97.7084 276.768H98.7804V278H97.4684C96.6577 278 96.0497 277.813 95.6444 277.44C95.239 277.067 95.0364 276.453 95.0364 275.6V270.432H93.9004V269.232H95.0364V267.024H96.4924V269.232H98.7804V270.432H96.4924ZM101.297 267.808C101.019 267.808 100.785 267.712 100.593 267.52C100.401 267.328 100.305 267.093 100.305 266.816C100.305 266.539 100.401 266.304 100.593 266.112C100.785 265.92 101.019 265.824 101.297 265.824C101.563 265.824 101.787 265.92 101.969 266.112C102.161 266.304 102.257 266.539 102.257 266.816C102.257 267.093 102.161 267.328 101.969 267.52C101.787 267.712 101.563 267.808 101.297 267.808ZM102.001 269.232V278H100.545V269.232H102.001ZM107.746 276.656L110.466 269.232H112.018L108.578 278H106.882L103.442 269.232H105.01L107.746 276.656ZM121.451 273.28C121.451 273.557 121.435 273.851 121.403 274.16H114.395C114.448 275.024 114.741 275.701 115.275 276.192C115.819 276.672 116.475 276.912 117.243 276.912C117.872 276.912 118.395 276.768 118.811 276.48C119.237 276.181 119.536 275.787 119.707 275.296H121.275C121.04 276.139 120.571 276.827 119.867 277.36C119.163 277.883 118.288 278.144 117.243 278.144C116.411 278.144 115.664 277.957 115.003 277.584C114.352 277.211 113.84 276.683 113.467 276C113.093 275.307 112.907 274.507 112.907 273.6C112.907 272.693 113.088 271.899 113.451 271.216C113.813 270.533 114.32 270.011 114.971 269.648C115.632 269.275 116.389 269.088 117.243 269.088C118.075 269.088 118.811 269.269 119.451 269.632C120.091 269.995 120.581 270.496 120.923 271.136C121.275 271.765 121.451 272.48 121.451 273.28ZM119.947 272.976C119.947 272.421 119.824 271.947 119.579 271.552C119.333 271.147 118.997 270.843 118.571 270.64C118.155 270.427 117.691 270.32 117.179 270.32C116.443 270.32 115.813 270.555 115.291 271.024C114.779 271.493 114.485 272.144 114.411 272.976H119.947ZM131.206 270.432H129.366V278H127.91V270.432H126.774V269.232H127.91V268.608C127.91 267.627 128.161 266.912 128.662 266.464C129.174 266.005 129.99 265.776 131.11 265.776V266.992C130.47 266.992 130.017 267.12 129.75 267.376C129.494 267.621 129.366 268.032 129.366 268.608V269.232H131.206V270.432ZM140.904 273.28C140.904 273.557 140.888 273.851 140.856 274.16H133.848C133.901 275.024 134.195 275.701 134.728 276.192C135.272 276.672 135.928 276.912 136.696 276.912C137.325 276.912 137.848 276.768 138.264 276.48C138.691 276.181 138.989 275.787 139.16 275.296H140.728C140.493 276.139 140.024 276.827 139.32 277.36C138.616 277.883 137.741 278.144 136.696 278.144C135.864 278.144 135.117 277.957 134.456 277.584C133.805 277.211 133.293 276.683 132.92 276C132.547 275.307 132.36 274.507 132.36 273.6C132.36 272.693 132.541 271.899 132.904 271.216C133.267 270.533 133.773 270.011 134.424 269.648C135.085 269.275 135.843 269.088 136.696 269.088C137.528 269.088 138.264 269.269 138.904 269.632C139.544 269.995 140.035 270.496 140.376 271.136C140.728 271.765 140.904 272.48 140.904 273.28ZM139.4 272.976C139.4 272.421 139.277 271.947 139.032 271.552C138.787 271.147 138.451 270.843 138.024 270.64C137.608 270.427 137.144 270.32 136.632 270.32C135.896 270.32 135.267 270.555 134.744 271.024C134.232 271.493 133.939 272.144 133.864 272.976H139.4ZM142.282 273.584C142.282 272.688 142.463 271.904 142.826 271.232C143.188 270.549 143.684 270.021 144.314 269.648C144.954 269.275 145.663 269.088 146.442 269.088C147.21 269.088 147.876 269.253 148.442 269.584C149.007 269.915 149.428 270.331 149.706 270.832V269.232H151.178V278H149.706V276.368C149.418 276.88 148.986 277.307 148.41 277.648C147.844 277.979 147.183 278.144 146.426 278.144C145.647 278.144 144.943 277.952 144.314 277.568C143.684 277.184 143.188 276.645 142.826 275.952C142.463 275.259 142.282 274.469 142.282 273.584ZM149.706 273.6C149.706 272.939 149.572 272.363 149.306 271.872C149.039 271.381 148.676 271.008 148.218 270.752C147.77 270.485 147.274 270.352 146.73 270.352C146.186 270.352 145.69 270.48 145.242 270.736C144.794 270.992 144.436 271.365 144.17 271.856C143.903 272.347 143.77 272.923 143.77 273.584C143.77 274.256 143.903 274.843 144.17 275.344C144.436 275.835 144.794 276.213 145.242 276.48C145.69 276.736 146.186 276.864 146.73 276.864C147.274 276.864 147.77 276.736 148.218 276.48C148.676 276.213 149.039 275.835 149.306 275.344C149.572 274.843 149.706 274.261 149.706 273.6ZM155.414 270.432V275.6C155.414 276.027 155.505 276.331 155.686 276.512C155.868 276.683 156.182 276.768 156.63 276.768H157.702V278H156.39C155.58 278 154.972 277.813 154.566 277.44C154.161 277.067 153.958 276.453 153.958 275.6V270.432H152.822V269.232H153.958V267.024H155.414V269.232H157.702V270.432H155.414ZM167.242 269.232V278H165.786V276.704C165.509 277.152 165.12 277.504 164.618 277.76C164.128 278.005 163.584 278.128 162.986 278.128C162.304 278.128 161.69 277.989 161.146 277.712C160.602 277.424 160.17 276.997 159.85 276.432C159.541 275.867 159.386 275.179 159.386 274.368V269.232H160.826V274.176C160.826 275.04 161.045 275.707 161.482 276.176C161.92 276.635 162.517 276.864 163.274 276.864C164.053 276.864 164.666 276.624 165.114 276.144C165.562 275.664 165.786 274.965 165.786 274.048V269.232H167.242ZM171.157 270.656C171.413 270.155 171.775 269.765 172.245 269.488C172.725 269.211 173.306 269.072 173.989 269.072V270.576H173.605C171.973 270.576 171.157 271.461 171.157 273.232V278H169.701V269.232H171.157V270.656ZM183.67 273.28C183.67 273.557 183.654 273.851 183.622 274.16H176.614C176.667 275.024 176.96 275.701 177.494 276.192C178.038 276.672 178.694 276.912 179.462 276.912C180.091 276.912 180.614 276.768 181.03 276.48C181.456 276.181 181.755 275.787 181.926 275.296H183.494C183.259 276.139 182.79 276.827 182.086 277.36C181.382 277.883 180.507 278.144 179.462 278.144C178.63 278.144 177.883 277.957 177.222 277.584C176.571 277.211 176.059 276.683 175.686 276C175.312 275.307 175.126 274.507 175.126 273.6C175.126 272.693 175.307 271.899 175.67 271.216C176.032 270.533 176.539 270.011 177.19 269.648C177.851 269.275 178.608 269.088 179.462 269.088C180.294 269.088 181.03 269.269 181.67 269.632C182.31 269.995 182.8 270.496 183.142 271.136C183.494 271.765 183.67 272.48 183.67 273.28ZM182.166 272.976C182.166 272.421 182.043 271.947 181.798 271.552C181.552 271.147 181.216 270.843 180.79 270.64C180.374 270.427 179.91 270.32 179.398 270.32C178.662 270.32 178.032 270.555 177.51 271.024C176.998 271.493 176.704 272.144 176.63 272.976H182.166ZM188.695 278.144C188.023 278.144 187.421 278.032 186.887 277.808C186.354 277.573 185.933 277.253 185.623 276.848C185.314 276.432 185.143 275.957 185.111 275.424H186.615C186.658 275.861 186.861 276.219 187.223 276.496C187.597 276.773 188.082 276.912 188.679 276.912C189.234 276.912 189.671 276.789 189.991 276.544C190.311 276.299 190.471 275.989 190.471 275.616C190.471 275.232 190.301 274.949 189.959 274.768C189.618 274.576 189.09 274.389 188.375 274.208C187.725 274.037 187.191 273.867 186.775 273.696C186.37 273.515 186.018 273.253 185.719 272.912C185.431 272.56 185.287 272.101 185.287 271.536C185.287 271.088 185.421 270.677 185.687 270.304C185.954 269.931 186.333 269.637 186.823 269.424C187.314 269.2 187.874 269.088 188.503 269.088C189.474 269.088 190.258 269.333 190.855 269.824C191.453 270.315 191.773 270.987 191.815 271.84H190.359C190.327 271.381 190.141 271.013 189.799 270.736C189.469 270.459 189.021 270.32 188.455 270.32C187.933 270.32 187.517 270.432 187.207 270.656C186.898 270.88 186.743 271.173 186.743 271.536C186.743 271.824 186.834 272.064 187.015 272.256C187.207 272.437 187.442 272.587 187.719 272.704C188.007 272.811 188.402 272.933 188.903 273.072C189.533 273.243 190.045 273.413 190.439 273.584C190.834 273.744 191.17 273.989 191.447 274.32C191.735 274.651 191.885 275.083 191.895 275.616C191.895 276.096 191.762 276.528 191.495 276.912C191.229 277.296 190.85 277.6 190.359 277.824C189.879 278.037 189.325 278.144 188.695 278.144ZM198.68 278.096C198.403 278.096 198.168 278 197.976 277.808C197.784 277.616 197.688 277.381 197.688 277.104C197.688 276.827 197.784 276.592 197.976 276.4C198.168 276.208 198.403 276.112 198.68 276.112C198.947 276.112 199.171 276.208 199.352 276.4C199.544 276.592 199.64 276.827 199.64 277.104C199.64 277.381 199.544 277.616 199.352 277.808C199.171 278 198.947 278.096 198.68 278.096Z" fill="#575859"/>
<circle cx="121" cy="75" r="75" fill="#4F9EFC" fill-opacity="0.1"/>
<path d="M121 98C133.703 98 144 87.7025 144 75C144 62.2975 133.703 52 121 52C108.297 52 98 62.2975 98 75C98 87.7025 108.297 98 121 98Z" stroke="#1660B7" stroke-width="2" stroke-linecap="round" stroke-linejoin="round"/>
<path d="M121 61.1998V74.9998L130.2 79.5998" stroke="#1660B7" stroke-width="2" stroke-linecap="round" stroke-linejoin="round"/>
</svg>
