<svg width="105" height="105" viewBox="0 0 105 105" fill="none" xmlns="http://www.w3.org/2000/svg">
<circle cx="52.5" cy="52.5" r="52.5" fill="#FAE1E7"/>
<path d="M63.2334 52.5817V49.9421H64.0708C64.8972 49.9421 65.5693 49.2699 65.5693 48.4436C65.5693 48.1726 65.4958 47.9058 65.3556 47.6728L62.2827 42.5506C61.9925 42.0671 61.4616 41.7664 60.8975 41.7664C60.3334 41.7664 59.8025 42.0671 59.5123 42.5506L56.4388 47.6728C56.2992 47.9058 56.2256 48.1721 56.2256 48.4436C56.2256 49.2699 56.8978 49.9421 57.7241 49.9421H58.5616V52.5817C55.2451 53.4372 52.6972 56.05 51.8551 59.2858H49.8018C49.4882 59.2858 49.198 59.3752 48.9428 59.52C48.6321 59.03 48.0878 58.7018 47.4659 58.7018H36.9542C35.3442 58.7018 34.0343 60.0117 34.0343 61.6218C34.0343 63.2318 35.3442 64.5417 36.9542 64.5417H47.4659C48.0878 64.5417 48.6321 64.2135 48.9428 63.7235C49.198 63.8683 49.4882 63.9577 49.8018 63.9577H51.8615C52.9028 67.9807 56.5532 70.9655 60.8975 70.9655C66.0494 70.9655 70.2412 66.7736 70.2412 61.6218C70.2412 57.3581 67.3195 53.6358 63.2334 52.5817ZM63.2334 56.2725C65.3287 57.1899 66.7373 59.287 66.7373 61.6218C66.7373 64.0108 65.2931 66.067 63.2334 66.9704V56.2725ZM57.7241 48.7741C57.5419 48.7741 57.3936 48.6258 57.3936 48.4436C57.3936 48.3835 57.4099 48.3251 57.4409 48.2737L60.5138 43.1516C60.6744 42.8835 61.1206 42.8835 61.2812 43.1516L64.3541 48.2731C64.385 48.3245 64.4014 48.3835 64.4014 48.4436C64.4014 48.6258 64.253 48.7741 64.0708 48.7741H62.0654V67.3436C61.6882 67.4207 61.2975 67.4616 60.8975 67.4616C60.4975 67.4616 60.1068 67.4207 59.7295 67.3436V48.7741H57.7241ZM58.5616 66.9704C56.5019 66.067 55.0577 64.0108 55.0577 61.6218C55.0577 59.287 56.4662 57.1899 58.5616 56.2725V66.9704ZM48.0499 62.7897C48.0499 63.1121 47.7877 63.3737 47.4659 63.3737H36.9542C35.9883 63.3737 35.2023 62.5877 35.2023 61.6218C35.2023 60.6558 35.9883 59.8698 36.9542 59.8698H47.4659C47.7877 59.8698 48.0499 60.1314 48.0499 60.4538V61.0378V62.2057V62.7897ZM49.8018 62.7897C49.48 62.7897 49.2178 62.5281 49.2178 62.2057V61.0378C49.2178 60.7154 49.48 60.4538 49.8018 60.4538H51.6361C51.5871 60.838 51.5538 61.2264 51.5538 61.6218C51.5538 62.0183 51.5865 62.406 51.6349 62.7897H49.8018ZM60.8975 69.7975C56.3891 69.7975 52.7217 66.1301 52.7217 61.6218C52.7217 57.9929 55.1388 54.8038 58.5616 53.7847V55.0175C55.7906 55.998 53.8897 58.6493 53.8897 61.6218C53.8897 65.486 57.0333 68.6295 60.8975 68.6295C64.7617 68.6295 67.9053 65.486 67.9053 61.6218C67.9053 58.6499 66.0044 55.9986 63.2334 55.0175V53.7847C66.6567 54.8038 69.0732 57.9917 69.0732 61.6218C69.0732 66.1301 65.4058 69.7975 60.8975 69.7975Z" fill="#D93059"/>
<path d="M44.5458 65.7097H36.3701V66.8777H44.5458V65.7097Z" fill="#D93059"/>
<path d="M44.5458 68.0457H36.3701V69.2136H44.5458V68.0457Z" fill="#D93059"/>
<path d="M50.3858 48.1902H45.7139V56.3659H44.546V44.6863H39.8741V56.3659H38.7062V50.5261H34.0343V57.5339H50.3858V48.1902ZM37.5382 56.3659H35.2023V51.6941H37.5382V56.3659ZM41.0421 45.8542H43.378V56.3659H41.0421V45.8542ZM49.2178 56.3659H46.8819V49.3581H49.2178V56.3659Z" fill="#D93059"/>
<path d="M36.3706 49.3581C37.6589 49.3581 38.7065 48.3104 38.7065 47.0222C38.7065 46.59 38.581 46.1906 38.3754 45.8431L41.0314 43.1872C41.3788 43.3927 41.7783 43.5183 42.2104 43.5183C42.8475 43.5183 43.4251 43.2607 43.8467 42.8455L45.82 44.0293C45.7581 44.2389 45.7143 44.4567 45.7143 44.6862C45.7143 45.9745 46.762 47.0222 48.0502 47.0222C49.3385 47.0222 50.3862 45.9745 50.3862 44.6862C50.3862 44.49 50.3546 44.302 50.3085 44.1198L58.6787 39.5542C59.2148 40.1872 60.0055 40.5984 60.8979 40.5984C62.5079 40.5984 63.8178 39.2885 63.8178 37.6785C63.8178 36.0684 62.5079 34.7585 60.8979 34.7585C59.2878 34.7585 57.9779 36.0684 57.9779 37.6785C57.9779 37.9763 58.0358 38.2578 58.1193 38.5287L49.7496 43.0943C49.3233 42.6388 48.7218 42.3503 48.0502 42.3503C47.4131 42.3503 46.8356 42.6079 46.4139 43.0231L44.4406 41.8393C44.5025 41.6297 44.5463 41.4119 44.5463 41.1823C44.5463 39.8941 43.4987 38.8464 42.2104 38.8464C40.9222 38.8464 39.8745 39.8941 39.8745 41.1823C39.8745 41.6145 40 42.0139 40.2056 42.3614L37.5497 45.0174C37.2022 44.8118 36.8027 44.6862 36.3706 44.6862C35.0823 44.6862 34.0347 45.7339 34.0347 47.0222C34.0347 48.3104 35.0823 49.3581 36.3706 49.3581ZM60.8979 35.9265C61.8638 35.9265 62.6498 36.7125 62.6498 37.6785C62.6498 38.6444 61.8638 39.4304 60.8979 39.4304C59.9319 39.4304 59.1459 38.6444 59.1459 37.6785C59.1459 36.7125 59.9319 35.9265 60.8979 35.9265ZM48.0502 43.5183C48.6944 43.5183 49.2182 44.0421 49.2182 44.6862C49.2182 45.3304 48.6944 45.8542 48.0502 45.8542C47.4061 45.8542 46.8823 45.3304 46.8823 44.6862C46.8823 44.0421 47.4061 43.5183 48.0502 43.5183ZM42.2104 40.0144C42.8546 40.0144 43.3784 40.5382 43.3784 41.1823C43.3784 41.8265 42.8546 42.3503 42.2104 42.3503C41.5663 42.3503 41.0425 41.8265 41.0425 41.1823C41.0425 40.5382 41.5663 40.0144 42.2104 40.0144ZM36.3706 45.8542C37.0147 45.8542 37.5386 46.378 37.5386 47.0222C37.5386 47.6663 37.0147 48.1901 36.3706 48.1901C35.7265 48.1901 35.2026 47.6663 35.2026 47.0222C35.2026 46.378 35.7265 45.8542 36.3706 45.8542Z" fill="#D93059"/>
</svg>
