<svg width="239" height="359" viewBox="0 0 239 359" fill="none" xmlns="http://www.w3.org/2000/svg">
<rect x="51" y="310" width="137" height="49" rx="5" fill="#3988FF"/>
<path d="M79.4246 341L76.4366 335.87H74.4566V341H72.8186V328.454H76.8686C77.8166 328.454 78.6146 328.616 79.2626 328.94C79.9226 329.264 80.4146 329.702 80.7386 330.254C81.0626 330.806 81.2246 331.436 81.2246 332.144C81.2246 333.008 80.9726 333.77 80.4686 334.43C79.9766 335.09 79.2326 335.528 78.2366 335.744L81.3866 341H79.4246ZM74.4566 334.556H76.8686C77.7566 334.556 78.4226 334.34 78.8666 333.908C79.3106 333.464 79.5326 332.876 79.5326 332.144C79.5326 331.4 79.3106 330.824 78.8666 330.416C78.4346 330.008 77.7686 329.804 76.8686 329.804H74.4566V334.556ZM92.7698 335.69C92.7698 336.002 92.7518 336.332 92.7158 336.68H84.8318C84.8918 337.652 85.2218 338.414 85.8218 338.966C86.4338 339.506 87.1718 339.776 88.0358 339.776C88.7438 339.776 89.3318 339.614 89.7998 339.29C90.2798 338.954 90.6158 338.51 90.8078 337.958H92.5718C92.3078 338.906 91.7798 339.68 90.9878 340.28C90.1958 340.868 89.2118 341.162 88.0358 341.162C87.0998 341.162 86.2598 340.952 85.5158 340.532C84.7838 340.112 84.2078 339.518 83.7878 338.75C83.3678 337.97 83.1578 337.07 83.1578 336.05C83.1578 335.03 83.3618 334.136 83.7698 333.368C84.1778 332.6 84.7478 332.012 85.4798 331.604C86.2238 331.184 87.0758 330.974 88.0358 330.974C88.9718 330.974 89.7998 331.178 90.5198 331.586C91.2398 331.994 91.7918 332.558 92.1758 333.278C92.5718 333.986 92.7698 334.79 92.7698 335.69ZM91.0778 335.348C91.0778 334.724 90.9398 334.19 90.6638 333.746C90.3878 333.29 90.0098 332.948 89.5298 332.72C89.0618 332.48 88.5398 332.36 87.9638 332.36C87.1358 332.36 86.4278 332.624 85.8398 333.152C85.2638 333.68 84.9338 334.412 84.8498 335.348H91.0778ZM94.3199 336.032C94.3199 335.024 94.5239 334.142 94.9319 333.386C95.3399 332.618 95.8979 332.024 96.6059 331.604C97.3259 331.184 98.1239 330.974 98.9999 330.974C99.8639 330.974 100.614 331.16 101.25 331.532C101.886 331.904 102.36 332.372 102.672 332.936V331.136H104.328V341H102.672V339.164C102.348 339.74 101.862 340.22 101.214 340.604C100.578 340.976 99.8339 341.162 98.9819 341.162C98.1059 341.162 97.3139 340.946 96.6059 340.514C95.8979 340.082 95.3399 339.476 94.9319 338.696C94.5239 337.916 94.3199 337.028 94.3199 336.032ZM102.672 336.05C102.672 335.306 102.522 334.658 102.222 334.106C101.922 333.554 101.514 333.134 100.998 332.846C100.494 332.546 99.9359 332.396 99.3239 332.396C98.7119 332.396 98.1539 332.54 97.6499 332.828C97.1459 333.116 96.7439 333.536 96.4439 334.088C96.1439 334.64 95.9939 335.288 95.9939 336.032C95.9939 336.788 96.1439 337.448 96.4439 338.012C96.7439 338.564 97.1459 338.99 97.6499 339.29C98.1539 339.578 98.7119 339.722 99.3239 339.722C99.9359 339.722 100.494 339.578 100.998 339.29C101.514 338.99 101.922 338.564 102.222 338.012C102.522 337.448 102.672 336.794 102.672 336.05ZM106.484 336.032C106.484 335.024 106.688 334.142 107.096 333.386C107.504 332.618 108.062 332.024 108.77 331.604C109.49 331.184 110.294 330.974 111.182 330.974C111.95 330.974 112.664 331.154 113.324 331.514C113.984 331.862 114.488 332.324 114.836 332.9V327.68H116.492V341H114.836V339.146C114.512 339.734 114.032 340.22 113.396 340.604C112.76 340.976 112.016 341.162 111.164 341.162C110.288 341.162 109.49 340.946 108.77 340.514C108.062 340.082 107.504 339.476 107.096 338.696C106.688 337.916 106.484 337.028 106.484 336.032ZM114.836 336.05C114.836 335.306 114.686 334.658 114.386 334.106C114.086 333.554 113.678 333.134 113.162 332.846C112.658 332.546 112.1 332.396 111.488 332.396C110.876 332.396 110.318 332.54 109.814 332.828C109.31 333.116 108.908 333.536 108.608 334.088C108.308 334.64 108.158 335.288 108.158 336.032C108.158 336.788 108.308 337.448 108.608 338.012C108.908 338.564 109.31 338.99 109.814 339.29C110.318 339.578 110.876 339.722 111.488 339.722C112.1 339.722 112.658 339.578 113.162 339.29C113.678 338.99 114.086 338.564 114.386 338.012C114.686 337.448 114.836 336.794 114.836 336.05ZM136.785 328.544V341H135.147V331.712L131.007 341H129.855L125.697 331.694V341H124.059V328.544H125.823L130.431 338.84L135.039 328.544H136.785ZM143.865 341.162C142.941 341.162 142.101 340.952 141.345 340.532C140.601 340.112 140.013 339.518 139.581 338.75C139.161 337.97 138.951 337.07 138.951 336.05C138.951 335.042 139.167 334.154 139.599 333.386C140.043 332.606 140.643 332.012 141.399 331.604C142.155 331.184 143.001 330.974 143.937 330.974C144.873 330.974 145.719 331.184 146.475 331.604C147.231 332.012 147.825 332.6 148.257 333.368C148.701 334.136 148.923 335.03 148.923 336.05C148.923 337.07 148.695 337.97 148.239 338.75C147.795 339.518 147.189 340.112 146.421 340.532C145.653 340.952 144.801 341.162 143.865 341.162ZM143.865 339.722C144.453 339.722 145.005 339.584 145.521 339.308C146.037 339.032 146.451 338.618 146.763 338.066C147.087 337.514 147.249 336.842 147.249 336.05C147.249 335.258 147.093 334.586 146.781 334.034C146.469 333.482 146.061 333.074 145.557 332.81C145.053 332.534 144.507 332.396 143.919 332.396C143.319 332.396 142.767 332.534 142.263 332.81C141.771 333.074 141.375 333.482 141.075 334.034C140.775 334.586 140.625 335.258 140.625 336.05C140.625 336.854 140.769 337.532 141.057 338.084C141.357 338.636 141.753 339.05 142.245 339.326C142.737 339.59 143.277 339.722 143.865 339.722ZM152.714 332.738C153.002 332.174 153.41 331.736 153.938 331.424C154.478 331.112 155.132 330.956 155.9 330.956V332.648H155.468C153.632 332.648 152.714 333.644 152.714 335.636V341H151.076V331.136H152.714V332.738ZM166.791 335.69C166.791 336.002 166.773 336.332 166.737 336.68H158.853C158.913 337.652 159.243 338.414 159.843 338.966C160.455 339.506 161.193 339.776 162.057 339.776C162.765 339.776 163.353 339.614 163.821 339.29C164.301 338.954 164.637 338.51 164.829 337.958H166.593C166.329 338.906 165.801 339.68 165.009 340.28C164.217 340.868 163.233 341.162 162.057 341.162C161.121 341.162 160.281 340.952 159.537 340.532C158.805 340.112 158.229 339.518 157.809 338.75C157.389 337.97 157.179 337.07 157.179 336.05C157.179 335.03 157.383 334.136 157.791 333.368C158.199 332.6 158.769 332.012 159.501 331.604C160.245 331.184 161.097 330.974 162.057 330.974C162.993 330.974 163.821 331.178 164.541 331.586C165.261 331.994 165.813 332.558 166.197 333.278C166.593 333.986 166.791 334.79 166.791 335.69ZM165.099 335.348C165.099 334.724 164.961 334.19 164.685 333.746C164.409 333.29 164.031 332.948 163.551 332.72C163.083 332.48 162.561 332.36 161.985 332.36C161.157 332.36 160.449 332.624 159.861 333.152C159.285 333.68 158.955 334.412 158.871 335.348H165.099Z" fill="white"/>
<path d="M56.5196 206.862C57.2363 206.862 57.878 206.742 58.4446 206.5C59.0113 206.258 59.4905 205.921 59.8821 205.487C60.2738 205.046 60.5738 204.525 60.7821 203.925C60.9905 203.317 61.0946 202.646 61.0946 201.912V191.05H63.7446V201.912C63.7446 202.962 63.578 203.933 63.2446 204.825C62.9113 205.717 62.4321 206.487 61.8071 207.137C61.1821 207.787 60.4238 208.296 59.5321 208.662C58.6405 209.029 57.6363 209.213 56.5196 209.213C55.403 209.213 54.3988 209.029 53.5071 208.662C52.6155 208.296 51.8571 207.787 51.2321 207.137C50.6071 206.487 50.128 205.717 49.7946 204.825C49.4613 203.933 49.2946 202.962 49.2946 201.912V191.05H51.9571V201.9C51.9571 202.633 52.0571 203.304 52.2571 203.912C52.4655 204.521 52.7655 205.046 53.1571 205.487C53.5488 205.921 54.028 206.258 54.5946 206.5C55.1613 206.742 55.803 206.862 56.5196 206.862ZM74.3538 198.487C74.2871 198.596 74.2163 198.675 74.1413 198.725C74.0663 198.767 73.9705 198.787 73.8538 198.787C73.7205 198.787 73.5705 198.742 73.4038 198.65C73.2455 198.558 73.0496 198.458 72.8163 198.35C72.5913 198.242 72.3246 198.142 72.0163 198.05C71.708 197.958 71.3413 197.912 70.9163 197.912C70.5663 197.912 70.2455 197.958 69.9538 198.05C69.6705 198.133 69.4288 198.254 69.2288 198.412C69.0288 198.562 68.8746 198.746 68.7663 198.962C68.658 199.171 68.6038 199.396 68.6038 199.637C68.6038 199.954 68.6955 200.217 68.8788 200.425C69.0705 200.633 69.3163 200.812 69.6163 200.962C69.9246 201.112 70.2705 201.25 70.6538 201.375C71.0455 201.492 71.4413 201.617 71.8413 201.75C72.2496 201.883 72.6455 202.037 73.0288 202.212C73.4205 202.379 73.7663 202.592 74.0663 202.85C74.3746 203.1 74.6205 203.404 74.8038 203.762C74.9955 204.121 75.0913 204.558 75.0913 205.075C75.0913 205.667 74.983 206.217 74.7663 206.725C74.558 207.225 74.2455 207.658 73.8288 208.025C73.4205 208.392 72.9121 208.679 72.3038 208.887C71.6955 209.096 70.9996 209.2 70.2163 209.2C69.3413 209.2 68.533 209.054 67.7913 208.762C67.0496 208.471 66.4288 208.1 65.9288 207.65L66.5038 206.712C66.5705 206.596 66.6538 206.508 66.7538 206.45C66.8538 206.383 66.9871 206.35 67.1538 206.35C67.3121 206.35 67.4746 206.408 67.6413 206.525C67.808 206.642 68.008 206.771 68.2413 206.912C68.4746 207.046 68.758 207.171 69.0913 207.287C69.4246 207.396 69.8413 207.45 70.3413 207.45C70.758 207.45 71.1205 207.4 71.4288 207.3C71.7371 207.192 71.9913 207.05 72.1913 206.875C72.3996 206.692 72.5538 206.483 72.6538 206.25C72.7538 206.017 72.8038 205.771 72.8038 205.512C72.8038 205.179 72.708 204.904 72.5163 204.687C72.333 204.462 72.0871 204.271 71.7788 204.112C71.4788 203.954 71.133 203.817 70.7413 203.7C70.3496 203.583 69.9496 203.458 69.5413 203.325C69.133 203.192 68.733 203.037 68.3413 202.862C67.9496 202.687 67.5996 202.467 67.2913 202.2C66.9913 201.933 66.7455 201.608 66.5538 201.225C66.3705 200.842 66.2788 200.375 66.2788 199.825C66.2788 199.333 66.3788 198.862 66.5788 198.412C66.7871 197.962 67.083 197.567 67.4663 197.225C67.858 196.883 68.3371 196.612 68.9038 196.412C69.4788 196.204 70.133 196.1 70.8663 196.1C71.708 196.1 72.4663 196.233 73.1413 196.5C73.8246 196.767 74.408 197.133 74.8913 197.6L74.3538 198.487ZM86.1431 201.237C86.1431 200.754 86.0722 200.308 85.9306 199.9C85.7972 199.492 85.5972 199.137 85.3306 198.837C85.0639 198.537 84.7389 198.304 84.3556 198.137C83.9722 197.971 83.5306 197.887 83.0306 197.887C82.0056 197.887 81.1972 198.183 80.6056 198.775C80.0222 199.367 79.6514 200.187 79.4931 201.237H86.1431ZM88.1556 207.187C87.8556 207.537 87.5097 207.842 87.1181 208.1C86.7264 208.35 86.3097 208.554 85.8681 208.712C85.4264 208.871 84.9681 208.987 84.4931 209.063C84.0264 209.138 83.5639 209.175 83.1056 209.175C82.2306 209.175 81.4181 209.029 80.6681 208.737C79.9264 208.437 79.2806 208.004 78.7306 207.438C78.1889 206.862 77.7639 206.154 77.4556 205.312C77.1556 204.462 77.0056 203.487 77.0056 202.387C77.0056 201.504 77.1431 200.683 77.4181 199.925C77.6931 199.158 78.0847 198.492 78.5931 197.925C79.1097 197.358 79.7389 196.912 80.4806 196.587C81.2222 196.262 82.0556 196.1 82.9806 196.1C83.7556 196.1 84.4681 196.229 85.1181 196.487C85.7764 196.737 86.3431 197.104 86.8181 197.587C87.2931 198.071 87.6639 198.667 87.9306 199.375C88.2056 200.083 88.3431 200.892 88.3431 201.8C88.3431 202.175 88.3014 202.429 88.2181 202.562C88.1347 202.687 87.9806 202.75 87.7556 202.75H79.4306C79.4556 203.508 79.5639 204.171 79.7556 204.737C79.9472 205.296 80.2097 205.762 80.5431 206.137C80.8847 206.512 81.2889 206.792 81.7556 206.975C82.2222 207.158 82.7431 207.25 83.3181 207.25C83.8597 207.25 84.3264 207.187 84.7181 207.062C85.1181 206.937 85.4597 206.804 85.7431 206.662C86.0347 206.512 86.2764 206.375 86.4681 206.25C86.6681 206.125 86.8431 206.062 86.9931 206.062C87.1931 206.062 87.3472 206.137 87.4556 206.287L88.1556 207.187ZM93.263 198.737C93.6713 197.904 94.163 197.25 94.738 196.775C95.313 196.3 96.0047 196.062 96.813 196.062C97.088 196.062 97.3463 196.096 97.588 196.162C97.838 196.221 98.0547 196.312 98.238 196.438L98.0755 198.275C98.0172 198.5 97.8797 198.612 97.663 198.612C97.5463 198.612 97.3713 198.592 97.138 198.55C96.9047 198.5 96.6547 198.475 96.388 198.475C95.9963 198.475 95.6505 198.533 95.3505 198.65C95.0505 198.758 94.7797 198.925 94.538 199.15C94.3047 199.367 94.0963 199.637 93.913 199.962C93.7297 200.279 93.5588 200.642 93.4005 201.05V209H90.963V196.3H92.363C92.6297 196.3 92.8088 196.35 92.9005 196.45C93.0005 196.542 93.0713 196.708 93.113 196.95L93.263 198.737ZM109.079 193.212V199.225H116.279V201.387H109.079V209H106.404V191.05H117.529V193.212H109.079ZM121.266 198.737C121.674 197.904 122.166 197.25 122.741 196.775C123.316 196.3 124.008 196.062 124.816 196.062C125.091 196.062 125.349 196.096 125.591 196.162C125.841 196.221 126.058 196.312 126.241 196.438L126.078 198.275C126.02 198.5 125.883 198.612 125.666 198.612C125.549 198.612 125.374 198.592 125.141 198.55C124.908 198.5 124.658 198.475 124.391 198.475C123.999 198.475 123.653 198.533 123.353 198.65C123.053 198.758 122.783 198.925 122.541 199.15C122.308 199.367 122.099 199.637 121.916 199.962C121.733 200.279 121.562 200.642 121.403 201.05V209H118.966V196.3H120.366C120.633 196.3 120.812 196.35 120.903 196.45C121.003 196.542 121.074 196.708 121.116 196.95L121.266 198.737ZM130.671 196.3V209H128.234V196.3H130.671ZM131.134 192.375C131.134 192.6 131.088 192.817 130.996 193.025C130.905 193.225 130.78 193.404 130.621 193.562C130.471 193.712 130.292 193.833 130.084 193.925C129.875 194.008 129.659 194.05 129.434 194.05C129.209 194.05 128.996 194.008 128.796 193.925C128.596 193.833 128.417 193.712 128.259 193.562C128.109 193.404 127.988 193.225 127.896 193.025C127.813 192.817 127.771 192.6 127.771 192.375C127.771 192.142 127.813 191.925 127.896 191.725C127.988 191.517 128.109 191.337 128.259 191.187C128.417 191.029 128.596 190.908 128.796 190.825C128.996 190.733 129.209 190.687 129.434 190.687C129.659 190.687 129.875 190.733 130.084 190.825C130.292 190.908 130.471 191.029 130.621 191.187C130.78 191.337 130.905 191.517 130.996 191.725C131.088 191.925 131.134 192.142 131.134 192.375ZM142.613 201.237C142.613 200.754 142.542 200.308 142.4 199.9C142.267 199.492 142.067 199.137 141.8 198.837C141.534 198.537 141.209 198.304 140.825 198.137C140.442 197.971 140 197.887 139.5 197.887C138.475 197.887 137.667 198.183 137.075 198.775C136.492 199.367 136.121 200.187 135.963 201.237H142.613ZM144.625 207.187C144.325 207.537 143.979 207.842 143.588 208.1C143.196 208.35 142.779 208.554 142.338 208.712C141.896 208.871 141.438 208.987 140.963 209.063C140.496 209.138 140.034 209.175 139.575 209.175C138.7 209.175 137.888 209.029 137.138 208.737C136.396 208.437 135.75 208.004 135.2 207.438C134.659 206.862 134.234 206.154 133.925 205.312C133.625 204.462 133.475 203.487 133.475 202.387C133.475 201.504 133.613 200.683 133.888 199.925C134.163 199.158 134.554 198.492 135.063 197.925C135.579 197.358 136.209 196.912 136.95 196.587C137.692 196.262 138.525 196.1 139.45 196.1C140.225 196.1 140.938 196.229 141.588 196.487C142.246 196.737 142.813 197.104 143.288 197.587C143.763 198.071 144.134 198.667 144.4 199.375C144.675 200.083 144.813 200.892 144.813 201.8C144.813 202.175 144.771 202.429 144.688 202.562C144.604 202.687 144.45 202.75 144.225 202.75H135.9C135.925 203.508 136.034 204.171 136.225 204.737C136.417 205.296 136.679 205.762 137.013 206.137C137.354 206.512 137.759 206.792 138.225 206.975C138.692 207.158 139.213 207.25 139.788 207.25C140.329 207.25 140.796 207.187 141.188 207.062C141.588 206.937 141.929 206.804 142.213 206.662C142.504 206.512 142.746 206.375 142.938 206.25C143.138 206.125 143.313 206.062 143.463 206.062C143.663 206.062 143.817 206.137 143.925 206.287L144.625 207.187ZM149.72 198.062C149.995 197.771 150.283 197.504 150.583 197.262C150.883 197.021 151.199 196.817 151.533 196.65C151.874 196.475 152.237 196.342 152.62 196.25C153.012 196.15 153.429 196.1 153.87 196.1C154.57 196.1 155.183 196.217 155.708 196.45C156.241 196.683 156.687 197.012 157.045 197.437C157.404 197.854 157.674 198.358 157.858 198.95C158.041 199.542 158.133 200.196 158.133 200.912V209H155.683V200.912C155.683 200.004 155.474 199.3 155.058 198.8C154.641 198.292 154.004 198.037 153.145 198.037C152.52 198.037 151.933 198.187 151.383 198.487C150.841 198.779 150.337 199.179 149.87 199.687V209H147.433V196.3H148.895C149.237 196.3 149.449 196.462 149.533 196.787L149.72 198.062ZM169.609 199.375C169.209 198.85 168.776 198.483 168.309 198.275C167.851 198.067 167.334 197.962 166.759 197.962C165.643 197.962 164.776 198.367 164.159 199.175C163.551 199.975 163.247 201.146 163.247 202.688C163.247 203.496 163.314 204.187 163.447 204.762C163.589 205.329 163.789 205.796 164.047 206.162C164.314 206.521 164.639 206.787 165.022 206.962C165.405 207.129 165.839 207.212 166.322 207.212C167.03 207.212 167.643 207.054 168.159 206.737C168.676 206.421 169.159 205.975 169.609 205.4V199.375ZM172.059 190.55V209H170.584C170.243 209 170.03 208.837 169.947 208.512L169.734 207.05C169.193 207.692 168.576 208.208 167.884 208.6C167.201 208.983 166.409 209.175 165.509 209.175C164.784 209.175 164.126 209.033 163.534 208.75C162.951 208.467 162.451 208.054 162.034 207.512C161.618 206.962 161.297 206.283 161.072 205.475C160.847 204.667 160.734 203.737 160.734 202.688C160.734 201.746 160.859 200.871 161.109 200.062C161.359 199.254 161.722 198.554 162.197 197.962C162.672 197.371 163.247 196.908 163.922 196.575C164.597 196.233 165.359 196.062 166.209 196.062C166.976 196.062 167.626 196.187 168.159 196.438C168.701 196.687 169.184 197.042 169.609 197.5V190.55H172.059ZM177.96 190.55V209H175.51V190.55H177.96ZM192.542 196.3L185.492 212.688C185.417 212.871 185.317 213.013 185.192 213.113C185.067 213.213 184.883 213.263 184.642 213.263H182.829L185.154 208.2L179.942 196.3H182.067C182.275 196.3 182.437 196.35 182.554 196.45C182.671 196.55 182.754 196.662 182.804 196.787L186.029 204.412C186.096 204.604 186.158 204.8 186.217 205C186.283 205.192 186.337 205.383 186.379 205.575C186.437 205.375 186.5 205.179 186.567 204.987C186.633 204.787 186.704 204.592 186.779 204.4L189.892 196.787C189.95 196.646 190.042 196.529 190.167 196.438C190.292 196.346 190.433 196.3 190.592 196.3H192.542Z" fill="#050C26"/>
<path d="M30.1053 249.52H25.2413L24.3453 252H22.8092L26.8413 240.912H28.5213L32.5373 252H31.0013L30.1053 249.52ZM29.6893 248.336L27.6733 242.704L25.6573 248.336H29.6893ZM38.5665 243.072C39.6332 243.072 40.4972 243.397 41.1585 244.048C41.8198 244.688 42.1505 245.616 42.1505 246.832V252H40.7105V247.04C40.7105 246.165 40.4918 245.499 40.0545 245.04C39.6172 244.571 39.0198 244.336 38.2625 244.336C37.4945 244.336 36.8812 244.576 36.4225 245.056C35.9745 245.536 35.7505 246.235 35.7505 247.152V252H34.2945V243.232H35.7505V244.48C36.0385 244.032 36.4278 243.685 36.9185 243.44C37.4198 243.195 37.9692 243.072 38.5665 243.072ZM48.2505 247.584C48.2505 246.688 48.4318 245.904 48.7945 245.232C49.1572 244.549 49.6532 244.021 50.2825 243.648C50.9225 243.275 51.6318 243.088 52.4105 243.088C53.1785 243.088 53.8452 243.253 54.4105 243.584C54.9758 243.915 55.3972 244.331 55.6745 244.832V243.232H57.1465V252H55.6745V250.368C55.3865 250.88 54.9545 251.307 54.3785 251.648C53.8132 251.979 53.1518 252.144 52.3945 252.144C51.6158 252.144 50.9118 251.952 50.2825 251.568C49.6532 251.184 49.1572 250.645 48.7945 249.952C48.4318 249.259 48.2505 248.469 48.2505 247.584ZM55.6745 247.6C55.6745 246.939 55.5412 246.363 55.2745 245.872C55.0078 245.381 54.6452 245.008 54.1865 244.752C53.7385 244.485 53.2425 244.352 52.6985 244.352C52.1545 244.352 51.6585 244.48 51.2105 244.736C50.7625 244.992 50.4052 245.365 50.1385 245.856C49.8718 246.347 49.7385 246.923 49.7385 247.584C49.7385 248.256 49.8718 248.843 50.1385 249.344C50.4052 249.835 50.7625 250.213 51.2105 250.48C51.6585 250.736 52.1545 250.864 52.6985 250.864C53.2425 250.864 53.7385 250.736 54.1865 250.48C54.6452 250.213 55.0078 249.835 55.2745 249.344C55.5412 248.843 55.6745 248.261 55.6745 247.6ZM63.223 243.088C63.9803 243.088 64.6417 243.253 65.207 243.584C65.783 243.915 66.2097 244.331 66.487 244.832V243.232H67.959V252.192C67.959 252.992 67.7883 253.701 67.447 254.32C67.1057 254.949 66.615 255.44 65.975 255.792C65.3457 256.144 64.6097 256.32 63.767 256.32C62.615 256.32 61.655 256.048 60.887 255.504C60.119 254.96 59.6657 254.219 59.527 253.28H60.967C61.127 253.813 61.4577 254.24 61.959 254.56C62.4603 254.891 63.063 255.056 63.767 255.056C64.567 255.056 65.2177 254.805 65.719 254.304C66.231 253.803 66.487 253.099 66.487 252.192V250.352C66.199 250.864 65.7723 251.291 65.207 251.632C64.6417 251.973 63.9803 252.144 63.223 252.144C62.4443 252.144 61.735 251.952 61.095 251.568C60.4657 251.184 59.9697 250.645 59.607 249.952C59.2443 249.259 59.063 248.469 59.063 247.584C59.063 246.688 59.2443 245.904 59.607 245.232C59.9697 244.549 60.4657 244.021 61.095 243.648C61.735 243.275 62.4443 243.088 63.223 243.088ZM66.487 247.6C66.487 246.939 66.3537 246.363 66.087 245.872C65.8203 245.381 65.4577 245.008 64.999 244.752C64.551 244.485 64.055 244.352 63.511 244.352C62.967 244.352 62.471 244.48 62.023 244.736C61.575 244.992 61.2177 245.365 60.951 245.856C60.6843 246.347 60.551 246.923 60.551 247.584C60.551 248.256 60.6843 248.843 60.951 249.344C61.2177 249.835 61.575 250.213 62.023 250.48C62.471 250.736 62.967 250.864 63.511 250.864C64.055 250.864 64.551 250.736 64.999 250.48C65.4577 250.213 65.8203 249.835 66.087 249.344C66.3537 248.843 66.487 248.261 66.487 247.6ZM78.4195 247.28C78.4195 247.557 78.4035 247.851 78.3715 248.16H71.3635C71.4168 249.024 71.7102 249.701 72.2435 250.192C72.7875 250.672 73.4435 250.912 74.2115 250.912C74.8408 250.912 75.3635 250.768 75.7795 250.48C76.2062 250.181 76.5048 249.787 76.6755 249.296H78.2435C78.0088 250.139 77.5395 250.827 76.8355 251.36C76.1315 251.883 75.2568 252.144 74.2115 252.144C73.3795 252.144 72.6328 251.957 71.9715 251.584C71.3208 251.211 70.8088 250.683 70.4355 250C70.0622 249.307 69.8755 248.507 69.8755 247.6C69.8755 246.693 70.0568 245.899 70.4195 245.216C70.7822 244.533 71.2888 244.011 71.9395 243.648C72.6008 243.275 73.3582 243.088 74.2115 243.088C75.0435 243.088 75.7795 243.269 76.4195 243.632C77.0595 243.995 77.5502 244.496 77.8915 245.136C78.2435 245.765 78.4195 246.48 78.4195 247.28ZM76.9155 246.976C76.9155 246.421 76.7928 245.947 76.5475 245.552C76.3022 245.147 75.9662 244.843 75.5395 244.64C75.1235 244.427 74.6595 244.32 74.1475 244.32C73.4115 244.32 72.7822 244.555 72.2595 245.024C71.7475 245.493 71.4542 246.144 71.3795 246.976H76.9155ZM84.6134 243.072C85.68 243.072 86.544 243.397 87.2054 244.048C87.8667 244.688 88.1974 245.616 88.1974 246.832V252H86.7574V247.04C86.7574 246.165 86.5387 245.499 86.1014 245.04C85.664 244.571 85.0667 244.336 84.3094 244.336C83.5414 244.336 82.928 244.576 82.4694 245.056C82.0214 245.536 81.7974 246.235 81.7974 247.152V252H80.3414V243.232H81.7974V244.48C82.0854 244.032 82.4747 243.685 82.9654 243.44C83.4667 243.195 84.016 243.072 84.6134 243.072ZM90.0318 247.6C90.0318 246.693 90.2131 245.904 90.5758 245.232C90.9384 244.549 91.4398 244.021 92.0798 243.648C92.7304 243.275 93.4718 243.088 94.3038 243.088C95.3811 243.088 96.2664 243.349 96.9598 243.872C97.6638 244.395 98.1278 245.12 98.3518 246.048H96.7838C96.6344 245.515 96.3411 245.093 95.9038 244.784C95.4771 244.475 94.9438 244.32 94.3038 244.32C93.4718 244.32 92.7998 244.608 92.2878 245.184C91.7758 245.749 91.5198 246.555 91.5198 247.6C91.5198 248.656 91.7758 249.472 92.2878 250.048C92.7998 250.624 93.4718 250.912 94.3038 250.912C94.9438 250.912 95.4771 250.763 95.9038 250.464C96.3304 250.165 96.6238 249.739 96.7838 249.184H98.3518C98.1171 250.08 97.6478 250.8 96.9438 251.344C96.2398 251.877 95.3598 252.144 94.3038 252.144C93.4718 252.144 92.7304 251.957 92.0798 251.584C91.4398 251.211 90.9384 250.683 90.5758 250C90.2131 249.317 90.0318 248.517 90.0318 247.6ZM107.847 243.232L102.567 256.128H101.062L102.791 251.904L99.2545 243.232H100.871L103.623 250.336L106.343 243.232H107.847ZM115.032 244.848C115.32 244.347 115.746 243.931 116.312 243.6C116.888 243.259 117.554 243.088 118.312 243.088C119.09 243.088 119.794 243.275 120.424 243.648C121.064 244.021 121.565 244.549 121.928 245.232C122.29 245.904 122.472 246.688 122.472 247.584C122.472 248.469 122.29 249.259 121.928 249.952C121.565 250.645 121.064 251.184 120.424 251.568C119.794 251.952 119.09 252.144 118.312 252.144C117.565 252.144 116.904 251.979 116.328 251.648C115.762 251.307 115.33 250.885 115.032 250.384V256.16H113.576V243.232H115.032V244.848ZM120.984 247.584C120.984 246.923 120.85 246.347 120.584 245.856C120.317 245.365 119.954 244.992 119.496 244.736C119.048 244.48 118.552 244.352 118.008 244.352C117.474 244.352 116.978 244.485 116.52 244.752C116.072 245.008 115.709 245.387 115.432 245.888C115.165 246.379 115.032 246.949 115.032 247.6C115.032 248.261 115.165 248.843 115.432 249.344C115.709 249.835 116.072 250.213 116.52 250.48C116.978 250.736 117.474 250.864 118.008 250.864C118.552 250.864 119.048 250.736 119.496 250.48C119.954 250.213 120.317 249.835 120.584 249.344C120.85 248.843 120.984 248.256 120.984 247.584ZM128.74 243.072C129.402 243.072 129.999 243.216 130.532 243.504C131.066 243.781 131.482 244.203 131.78 244.768C132.09 245.333 132.244 246.021 132.244 246.832V252H130.804V247.04C130.804 246.165 130.586 245.499 130.148 245.04C129.711 244.571 129.114 244.336 128.356 244.336C127.588 244.336 126.975 244.576 126.516 245.056C126.068 245.536 125.844 246.235 125.844 247.152V252H124.388V240.16H125.844V244.48C126.132 244.032 126.527 243.685 127.028 243.44C127.54 243.195 128.111 243.072 128.74 243.072ZM135.375 241.808C135.097 241.808 134.863 241.712 134.671 241.52C134.479 241.328 134.383 241.093 134.383 240.816C134.383 240.539 134.479 240.304 134.671 240.112C134.863 239.92 135.097 239.824 135.375 239.824C135.641 239.824 135.865 239.92 136.047 240.112C136.239 240.304 136.335 240.539 136.335 240.816C136.335 241.093 136.239 241.328 136.047 241.52C135.865 241.712 135.641 241.808 135.375 241.808ZM136.079 243.232V252H134.623V243.232H136.079ZM140.016 240.16V252H138.56V240.16H140.016ZM146.322 252.144C145.5 252.144 144.754 251.957 144.082 251.584C143.42 251.211 142.898 250.683 142.514 250C142.14 249.307 141.954 248.507 141.954 247.6C141.954 246.704 142.146 245.915 142.53 245.232C142.924 244.539 143.458 244.011 144.13 243.648C144.802 243.275 145.554 243.088 146.386 243.088C147.218 243.088 147.97 243.275 148.642 243.648C149.314 244.011 149.842 244.533 150.226 245.216C150.62 245.899 150.818 246.693 150.818 247.6C150.818 248.507 150.615 249.307 150.21 250C149.815 250.683 149.276 251.211 148.594 251.584C147.911 251.957 147.154 252.144 146.322 252.144ZM146.322 250.864C146.844 250.864 147.335 250.741 147.794 250.496C148.252 250.251 148.62 249.883 148.898 249.392C149.186 248.901 149.33 248.304 149.33 247.6C149.33 246.896 149.191 246.299 148.914 245.808C148.636 245.317 148.274 244.955 147.826 244.72C147.378 244.475 146.892 244.352 146.37 244.352C145.836 244.352 145.346 244.475 144.898 244.72C144.46 244.955 144.108 245.317 143.842 245.808C143.575 246.299 143.442 246.896 143.442 247.6C143.442 248.315 143.57 248.917 143.826 249.408C144.092 249.899 144.444 250.267 144.882 250.512C145.319 250.747 145.799 250.864 146.322 250.864ZM155.836 252.144C155.164 252.144 154.561 252.032 154.028 251.808C153.495 251.573 153.073 251.253 152.764 250.848C152.455 250.432 152.284 249.957 152.252 249.424H153.756C153.799 249.861 154.001 250.219 154.364 250.496C154.737 250.773 155.223 250.912 155.82 250.912C156.375 250.912 156.812 250.789 157.132 250.544C157.452 250.299 157.612 249.989 157.612 249.616C157.612 249.232 157.441 248.949 157.1 248.768C156.759 248.576 156.231 248.389 155.516 248.208C154.865 248.037 154.332 247.867 153.916 247.696C153.511 247.515 153.159 247.253 152.86 246.912C152.572 246.56 152.428 246.101 152.428 245.536C152.428 245.088 152.561 244.677 152.828 244.304C153.095 243.931 153.473 243.637 153.964 243.424C154.455 243.2 155.015 243.088 155.644 243.088C156.615 243.088 157.399 243.333 157.996 243.824C158.593 244.315 158.913 244.987 158.956 245.84H157.5C157.468 245.381 157.281 245.013 156.94 244.736C156.609 244.459 156.161 244.32 155.596 244.32C155.073 244.32 154.657 244.432 154.348 244.656C154.039 244.88 153.884 245.173 153.884 245.536C153.884 245.824 153.975 246.064 154.156 246.256C154.348 246.437 154.583 246.587 154.86 246.704C155.148 246.811 155.543 246.933 156.044 247.072C156.673 247.243 157.185 247.413 157.58 247.584C157.975 247.744 158.311 247.989 158.588 248.32C158.876 248.651 159.025 249.083 159.036 249.616C159.036 250.096 158.903 250.528 158.636 250.912C158.369 251.296 157.991 251.6 157.5 251.824C157.02 252.037 156.465 252.144 155.836 252.144ZM164.915 252.144C164.094 252.144 163.347 251.957 162.675 251.584C162.014 251.211 161.491 250.683 161.107 250C160.734 249.307 160.547 248.507 160.547 247.6C160.547 246.704 160.739 245.915 161.123 245.232C161.518 244.539 162.051 244.011 162.723 243.648C163.395 243.275 164.147 243.088 164.979 243.088C165.811 243.088 166.563 243.275 167.235 243.648C167.907 244.011 168.435 244.533 168.819 245.216C169.214 245.899 169.411 246.693 169.411 247.6C169.411 248.507 169.209 249.307 168.803 250C168.409 250.683 167.87 251.211 167.187 251.584C166.505 251.957 165.747 252.144 164.915 252.144ZM164.915 250.864C165.438 250.864 165.929 250.741 166.387 250.496C166.846 250.251 167.214 249.883 167.491 249.392C167.779 248.901 167.923 248.304 167.923 247.6C167.923 246.896 167.785 246.299 167.507 245.808C167.23 245.317 166.867 244.955 166.419 244.72C165.971 244.475 165.486 244.352 164.963 244.352C164.43 244.352 163.939 244.475 163.491 244.72C163.054 244.955 162.702 245.317 162.435 245.808C162.169 246.299 162.035 246.896 162.035 247.6C162.035 248.315 162.163 248.917 162.419 249.408C162.686 249.899 163.038 250.267 163.475 250.512C163.913 250.747 164.393 250.864 164.915 250.864ZM172.782 244.848C173.07 244.347 173.496 243.931 174.062 243.6C174.638 243.259 175.304 243.088 176.062 243.088C176.84 243.088 177.544 243.275 178.174 243.648C178.814 244.021 179.315 244.549 179.678 245.232C180.04 245.904 180.222 246.688 180.222 247.584C180.222 248.469 180.04 249.259 179.678 249.952C179.315 250.645 178.814 251.184 178.174 251.568C177.544 251.952 176.84 252.144 176.062 252.144C175.315 252.144 174.654 251.979 174.078 251.648C173.512 251.307 173.08 250.885 172.782 250.384V256.16H171.326V243.232H172.782V244.848ZM178.734 247.584C178.734 246.923 178.6 246.347 178.334 245.856C178.067 245.365 177.704 244.992 177.246 244.736C176.798 244.48 176.302 244.352 175.758 244.352C175.224 244.352 174.728 244.485 174.27 244.752C173.822 245.008 173.459 245.387 173.182 245.888C172.915 246.379 172.782 246.949 172.782 247.6C172.782 248.261 172.915 248.843 173.182 249.344C173.459 249.835 173.822 250.213 174.27 250.48C174.728 250.736 175.224 250.864 175.758 250.864C176.302 250.864 176.798 250.736 177.246 250.48C177.704 250.213 178.067 249.835 178.334 249.344C178.6 248.843 178.734 248.256 178.734 247.584ZM186.49 243.072C187.152 243.072 187.749 243.216 188.282 243.504C188.816 243.781 189.232 244.203 189.53 244.768C189.84 245.333 189.994 246.021 189.994 246.832V252H188.554V247.04C188.554 246.165 188.336 245.499 187.898 245.04C187.461 244.571 186.864 244.336 186.106 244.336C185.338 244.336 184.725 244.576 184.266 245.056C183.818 245.536 183.594 246.235 183.594 247.152V252H182.138V240.16H183.594V244.48C183.882 244.032 184.277 243.685 184.778 243.44C185.29 243.195 185.861 243.072 186.49 243.072ZM199.925 243.232L194.645 256.128H193.141L194.869 251.904L191.333 243.232H192.949L195.701 250.336L198.421 243.232H199.925ZM206.406 241.808C206.129 241.808 205.894 241.712 205.702 241.52C205.51 241.328 205.414 241.093 205.414 240.816C205.414 240.539 205.51 240.304 205.702 240.112C205.894 239.92 206.129 239.824 206.406 239.824C206.673 239.824 206.897 239.92 207.078 240.112C207.27 240.304 207.366 240.539 207.366 240.816C207.366 241.093 207.27 241.328 207.078 241.52C206.897 241.712 206.673 241.808 206.406 241.808ZM207.11 243.232V252H205.654V243.232H207.11ZM212.695 252.144C212.023 252.144 211.421 252.032 210.887 251.808C210.354 251.573 209.933 251.253 209.623 250.848C209.314 250.432 209.143 249.957 209.111 249.424H210.615C210.658 249.861 210.861 250.219 211.223 250.496C211.597 250.773 212.082 250.912 212.679 250.912C213.234 250.912 213.671 250.789 213.991 250.544C214.311 250.299 214.471 249.989 214.471 249.616C214.471 249.232 214.301 248.949 213.959 248.768C213.618 248.576 213.09 248.389 212.375 248.208C211.725 248.037 211.191 247.867 210.775 247.696C210.37 247.515 210.018 247.253 209.719 246.912C209.431 246.56 209.287 246.101 209.287 245.536C209.287 245.088 209.421 244.677 209.687 244.304C209.954 243.931 210.333 243.637 210.823 243.424C211.314 243.2 211.874 243.088 212.503 243.088C213.474 243.088 214.258 243.333 214.855 243.824C215.453 244.315 215.773 244.987 215.815 245.84H214.359C214.327 245.381 214.141 245.013 213.799 244.736C213.469 244.459 213.021 244.32 212.455 244.32C211.933 244.32 211.517 244.432 211.207 244.656C210.898 244.88 210.743 245.173 210.743 245.536C210.743 245.824 210.834 246.064 211.015 246.256C211.207 246.437 211.442 246.587 211.719 246.704C212.007 246.811 212.402 246.933 212.903 247.072C213.533 247.243 214.045 247.413 214.439 247.584C214.834 247.744 215.17 247.989 215.447 248.32C215.735 248.651 215.885 249.083 215.895 249.616C215.895 250.096 215.762 250.528 215.495 250.912C215.229 251.296 214.85 251.6 214.359 251.824C213.879 252.037 213.325 252.144 212.695 252.144ZM40.3443 273.584C40.3443 272.688 40.5256 271.904 40.8883 271.232C41.2509 270.549 41.7469 270.021 42.3763 269.648C43.0163 269.275 43.7309 269.088 44.5203 269.088C45.2029 269.088 45.8376 269.248 46.4243 269.568C47.0109 269.877 47.4589 270.288 47.7683 270.8V266.16H49.2403V278H47.7683V276.352C47.4803 276.875 47.0536 277.307 46.4883 277.648C45.9229 277.979 45.2616 278.144 44.5043 278.144C43.7256 278.144 43.0163 277.952 42.3763 277.568C41.7469 277.184 41.2509 276.645 40.8883 275.952C40.5256 275.259 40.3443 274.469 40.3443 273.584ZM47.7683 273.6C47.7683 272.939 47.6349 272.363 47.3683 271.872C47.1016 271.381 46.7389 271.008 46.2803 270.752C45.8323 270.485 45.3363 270.352 44.7923 270.352C44.2483 270.352 43.7523 270.48 43.3043 270.736C42.8563 270.992 42.4989 271.365 42.2323 271.856C41.9656 272.347 41.8323 272.923 41.8323 273.584C41.8323 274.256 41.9656 274.843 42.2323 275.344C42.4989 275.835 42.8563 276.213 43.3043 276.48C43.7523 276.736 44.2483 276.864 44.7923 276.864C45.3363 276.864 45.8323 276.736 46.2803 276.48C46.7389 276.213 47.1016 275.835 47.3683 275.344C47.6349 274.843 47.7683 274.261 47.7683 273.6ZM52.4528 267.808C52.1754 267.808 51.9408 267.712 51.7488 267.52C51.5568 267.328 51.4608 267.093 51.4608 266.816C51.4608 266.539 51.5568 266.304 51.7488 266.112C51.9408 265.92 52.1754 265.824 52.4528 265.824C52.7194 265.824 52.9434 265.92 53.1248 266.112C53.3168 266.304 53.4128 266.539 53.4128 266.816C53.4128 267.093 53.3168 267.328 53.1248 267.52C52.9434 267.712 52.7194 267.808 52.4528 267.808ZM53.1568 269.232V278H51.7008V269.232H53.1568ZM58.7423 278.144C58.0703 278.144 57.4676 278.032 56.9343 277.808C56.4009 277.573 55.9796 277.253 55.6703 276.848C55.3609 276.432 55.1903 275.957 55.1583 275.424H56.6623C56.7049 275.861 56.9076 276.219 57.2703 276.496C57.6436 276.773 58.1289 276.912 58.7263 276.912C59.2809 276.912 59.7183 276.789 60.0383 276.544C60.3583 276.299 60.5183 275.989 60.5183 275.616C60.5183 275.232 60.3476 274.949 60.0063 274.768C59.6649 274.576 59.1369 274.389 58.4223 274.208C57.7716 274.037 57.2383 273.867 56.8223 273.696C56.4169 273.515 56.0649 273.253 55.7663 272.912C55.4783 272.56 55.3343 272.101 55.3343 271.536C55.3343 271.088 55.4676 270.677 55.7343 270.304C56.0009 269.931 56.3796 269.637 56.8703 269.424C57.3609 269.2 57.9209 269.088 58.5503 269.088C59.5209 269.088 60.3049 269.333 60.9023 269.824C61.4996 270.315 61.8196 270.987 61.8623 271.84H60.4063C60.3743 271.381 60.1876 271.013 59.8463 270.736C59.5156 270.459 59.0676 270.32 58.5023 270.32C57.9796 270.32 57.5636 270.432 57.2543 270.656C56.9449 270.88 56.7903 271.173 56.7903 271.536C56.7903 271.824 56.8809 272.064 57.0623 272.256C57.2543 272.437 57.4889 272.587 57.7663 272.704C58.0543 272.811 58.4489 272.933 58.9503 273.072C59.5796 273.243 60.0916 273.413 60.4863 273.584C60.8809 273.744 61.2169 273.989 61.4943 274.32C61.7823 274.651 61.9316 275.083 61.9423 275.616C61.9423 276.096 61.8089 276.528 61.5423 276.912C61.2756 277.296 60.8969 277.6 60.4063 277.824C59.9263 278.037 59.3716 278.144 58.7423 278.144ZM65.7736 270.432V275.6C65.7736 276.027 65.8643 276.331 66.0456 276.512C66.227 276.683 66.5416 276.768 66.9896 276.768H68.0616V278H66.7496C65.939 278 65.331 277.813 64.9256 277.44C64.5203 277.067 64.3176 276.453 64.3176 275.6V270.432H63.1816V269.232H64.3176V267.024H65.7736V269.232H68.0616V270.432H65.7736ZM70.5778 267.808C70.3004 267.808 70.0658 267.712 69.8738 267.52C69.6818 267.328 69.5858 267.093 69.5858 266.816C69.5858 266.539 69.6818 266.304 69.8738 266.112C70.0658 265.92 70.3004 265.824 70.5778 265.824C70.8444 265.824 71.0684 265.92 71.2498 266.112C71.4418 266.304 71.5378 266.539 71.5378 266.816C71.5378 267.093 71.4418 267.328 71.2498 267.52C71.0684 267.712 70.8444 267.808 70.5778 267.808ZM71.2818 269.232V278H69.8258V269.232H71.2818ZM78.0353 269.072C79.1019 269.072 79.9659 269.397 80.6273 270.048C81.2886 270.688 81.6193 271.616 81.6193 272.832V278H80.1793V273.04C80.1793 272.165 79.9606 271.499 79.5233 271.04C79.0859 270.571 78.4886 270.336 77.7313 270.336C76.9633 270.336 76.3499 270.576 75.8913 271.056C75.4433 271.536 75.2193 272.235 75.2193 273.152V278H73.7633V269.232H75.2193V270.48C75.5073 270.032 75.8966 269.685 76.3873 269.44C76.8886 269.195 77.4379 269.072 78.0353 269.072ZM83.4536 273.6C83.4536 272.693 83.635 271.904 83.9976 271.232C84.3603 270.549 84.8616 270.021 85.5016 269.648C86.1523 269.275 86.8936 269.088 87.7256 269.088C88.803 269.088 89.6883 269.349 90.3816 269.872C91.0856 270.395 91.5496 271.12 91.7736 272.048H90.2056C90.0563 271.515 89.763 271.093 89.3256 270.784C88.899 270.475 88.3656 270.32 87.7256 270.32C86.8936 270.32 86.2216 270.608 85.7096 271.184C85.1976 271.749 84.9416 272.555 84.9416 273.6C84.9416 274.656 85.1976 275.472 85.7096 276.048C86.2216 276.624 86.8936 276.912 87.7256 276.912C88.3656 276.912 88.899 276.763 89.3256 276.464C89.7523 276.165 90.0456 275.739 90.2056 275.184H91.7736C91.539 276.08 91.0696 276.8 90.3656 277.344C89.6616 277.877 88.7816 278.144 87.7256 278.144C86.8936 278.144 86.1523 277.957 85.5016 277.584C84.8616 277.211 84.3603 276.683 83.9976 276C83.635 275.317 83.4536 274.517 83.4536 273.6ZM95.4924 270.432V275.6C95.4924 276.027 95.583 276.331 95.7644 276.512C95.9457 276.683 96.2604 276.768 96.7084 276.768H97.7804V278H96.4684C95.6577 278 95.0497 277.813 94.6444 277.44C94.239 277.067 94.0364 276.453 94.0364 275.6V270.432H92.9004V269.232H94.0364V267.024H95.4924V269.232H97.7804V270.432H95.4924ZM100.297 267.808C100.019 267.808 99.7845 267.712 99.5925 267.52C99.4005 267.328 99.3045 267.093 99.3045 266.816C99.3045 266.539 99.4005 266.304 99.5925 266.112C99.7845 265.92 100.019 265.824 100.297 265.824C100.563 265.824 100.787 265.92 100.969 266.112C101.161 266.304 101.257 266.539 101.257 266.816C101.257 267.093 101.161 267.328 100.969 267.52C100.787 267.712 100.563 267.808 100.297 267.808ZM101.001 269.232V278H99.5445V269.232H101.001ZM106.746 276.656L109.466 269.232H111.018L107.578 278H105.882L102.442 269.232H104.01L106.746 276.656ZM120.451 273.28C120.451 273.557 120.435 273.851 120.403 274.16H113.395C113.448 275.024 113.741 275.701 114.275 276.192C114.819 276.672 115.475 276.912 116.243 276.912C116.872 276.912 117.395 276.768 117.811 276.48C118.237 276.181 118.536 275.787 118.707 275.296H120.275C120.04 276.139 119.571 276.827 118.867 277.36C118.163 277.883 117.288 278.144 116.243 278.144C115.411 278.144 114.664 277.957 114.003 277.584C113.352 277.211 112.84 276.683 112.467 276C112.093 275.307 111.907 274.507 111.907 273.6C111.907 272.693 112.088 271.899 112.451 271.216C112.813 270.533 113.32 270.011 113.971 269.648C114.632 269.275 115.389 269.088 116.243 269.088C117.075 269.088 117.811 269.269 118.451 269.632C119.091 269.995 119.581 270.496 119.923 271.136C120.275 271.765 120.451 272.48 120.451 273.28ZM118.947 272.976C118.947 272.421 118.824 271.947 118.579 271.552C118.333 271.147 117.997 270.843 117.571 270.64C117.155 270.427 116.691 270.32 116.179 270.32C115.443 270.32 114.813 270.555 114.291 271.024C113.779 271.493 113.485 272.144 113.411 272.976H118.947ZM130.206 270.432H128.366V278H126.91V270.432H125.774V269.232H126.91V268.608C126.91 267.627 127.161 266.912 127.662 266.464C128.174 266.005 128.99 265.776 130.11 265.776V266.992C129.47 266.992 129.017 267.12 128.75 267.376C128.494 267.621 128.366 268.032 128.366 268.608V269.232H130.206V270.432ZM139.904 273.28C139.904 273.557 139.888 273.851 139.856 274.16H132.848C132.901 275.024 133.195 275.701 133.728 276.192C134.272 276.672 134.928 276.912 135.696 276.912C136.325 276.912 136.848 276.768 137.264 276.48C137.691 276.181 137.989 275.787 138.16 275.296H139.728C139.493 276.139 139.024 276.827 138.32 277.36C137.616 277.883 136.741 278.144 135.696 278.144C134.864 278.144 134.117 277.957 133.456 277.584C132.805 277.211 132.293 276.683 131.92 276C131.547 275.307 131.36 274.507 131.36 273.6C131.36 272.693 131.541 271.899 131.904 271.216C132.267 270.533 132.773 270.011 133.424 269.648C134.085 269.275 134.843 269.088 135.696 269.088C136.528 269.088 137.264 269.269 137.904 269.632C138.544 269.995 139.035 270.496 139.376 271.136C139.728 271.765 139.904 272.48 139.904 273.28ZM138.4 272.976C138.4 272.421 138.277 271.947 138.032 271.552C137.787 271.147 137.451 270.843 137.024 270.64C136.608 270.427 136.144 270.32 135.632 270.32C134.896 270.32 134.267 270.555 133.744 271.024C133.232 271.493 132.939 272.144 132.864 272.976H138.4ZM141.282 273.584C141.282 272.688 141.463 271.904 141.826 271.232C142.188 270.549 142.684 270.021 143.314 269.648C143.954 269.275 144.663 269.088 145.442 269.088C146.21 269.088 146.876 269.253 147.442 269.584C148.007 269.915 148.428 270.331 148.706 270.832V269.232H150.178V278H148.706V276.368C148.418 276.88 147.986 277.307 147.41 277.648C146.844 277.979 146.183 278.144 145.426 278.144C144.647 278.144 143.943 277.952 143.314 277.568C142.684 277.184 142.188 276.645 141.826 275.952C141.463 275.259 141.282 274.469 141.282 273.584ZM148.706 273.6C148.706 272.939 148.572 272.363 148.306 271.872C148.039 271.381 147.676 271.008 147.218 270.752C146.77 270.485 146.274 270.352 145.73 270.352C145.186 270.352 144.69 270.48 144.242 270.736C143.794 270.992 143.436 271.365 143.17 271.856C142.903 272.347 142.77 272.923 142.77 273.584C142.77 274.256 142.903 274.843 143.17 275.344C143.436 275.835 143.794 276.213 144.242 276.48C144.69 276.736 145.186 276.864 145.73 276.864C146.274 276.864 146.77 276.736 147.218 276.48C147.676 276.213 148.039 275.835 148.306 275.344C148.572 274.843 148.706 274.261 148.706 273.6ZM154.414 270.432V275.6C154.414 276.027 154.505 276.331 154.686 276.512C154.868 276.683 155.182 276.768 155.63 276.768H156.702V278H155.39C154.58 278 153.972 277.813 153.566 277.44C153.161 277.067 152.958 276.453 152.958 275.6V270.432H151.822V269.232H152.958V267.024H154.414V269.232H156.702V270.432H154.414ZM166.242 269.232V278H164.786V276.704C164.509 277.152 164.12 277.504 163.618 277.76C163.128 278.005 162.584 278.128 161.986 278.128C161.304 278.128 160.69 277.989 160.146 277.712C159.602 277.424 159.17 276.997 158.85 276.432C158.541 275.867 158.386 275.179 158.386 274.368V269.232H159.826V274.176C159.826 275.04 160.045 275.707 160.482 276.176C160.92 276.635 161.517 276.864 162.274 276.864C163.053 276.864 163.666 276.624 164.114 276.144C164.562 275.664 164.786 274.965 164.786 274.048V269.232H166.242ZM170.157 270.656C170.413 270.155 170.775 269.765 171.245 269.488C171.725 269.211 172.306 269.072 172.989 269.072V270.576H172.605C170.973 270.576 170.157 271.461 170.157 273.232V278H168.701V269.232H170.157V270.656ZM182.67 273.28C182.67 273.557 182.654 273.851 182.622 274.16H175.614C175.667 275.024 175.96 275.701 176.494 276.192C177.038 276.672 177.694 276.912 178.462 276.912C179.091 276.912 179.614 276.768 180.03 276.48C180.456 276.181 180.755 275.787 180.926 275.296H182.494C182.259 276.139 181.79 276.827 181.086 277.36C180.382 277.883 179.507 278.144 178.462 278.144C177.63 278.144 176.883 277.957 176.222 277.584C175.571 277.211 175.059 276.683 174.686 276C174.312 275.307 174.126 274.507 174.126 273.6C174.126 272.693 174.307 271.899 174.67 271.216C175.032 270.533 175.539 270.011 176.19 269.648C176.851 269.275 177.608 269.088 178.462 269.088C179.294 269.088 180.03 269.269 180.67 269.632C181.31 269.995 181.8 270.496 182.142 271.136C182.494 271.765 182.67 272.48 182.67 273.28ZM181.166 272.976C181.166 272.421 181.043 271.947 180.798 271.552C180.552 271.147 180.216 270.843 179.79 270.64C179.374 270.427 178.91 270.32 178.398 270.32C177.662 270.32 177.032 270.555 176.51 271.024C175.998 271.493 175.704 272.144 175.63 272.976H181.166ZM187.695 278.144C187.023 278.144 186.421 278.032 185.887 277.808C185.354 277.573 184.933 277.253 184.623 276.848C184.314 276.432 184.143 275.957 184.111 275.424H185.615C185.658 275.861 185.861 276.219 186.223 276.496C186.597 276.773 187.082 276.912 187.679 276.912C188.234 276.912 188.671 276.789 188.991 276.544C189.311 276.299 189.471 275.989 189.471 275.616C189.471 275.232 189.301 274.949 188.959 274.768C188.618 274.576 188.09 274.389 187.375 274.208C186.725 274.037 186.191 273.867 185.775 273.696C185.37 273.515 185.018 273.253 184.719 272.912C184.431 272.56 184.287 272.101 184.287 271.536C184.287 271.088 184.421 270.677 184.687 270.304C184.954 269.931 185.333 269.637 185.823 269.424C186.314 269.2 186.874 269.088 187.503 269.088C188.474 269.088 189.258 269.333 189.855 269.824C190.453 270.315 190.773 270.987 190.815 271.84H189.359C189.327 271.381 189.141 271.013 188.799 270.736C188.469 270.459 188.021 270.32 187.455 270.32C186.933 270.32 186.517 270.432 186.207 270.656C185.898 270.88 185.743 271.173 185.743 271.536C185.743 271.824 185.834 272.064 186.015 272.256C186.207 272.437 186.442 272.587 186.719 272.704C187.007 272.811 187.402 272.933 187.903 273.072C188.533 273.243 189.045 273.413 189.439 273.584C189.834 273.744 190.17 273.989 190.447 274.32C190.735 274.651 190.885 275.083 190.895 275.616C190.895 276.096 190.762 276.528 190.495 276.912C190.229 277.296 189.85 277.6 189.359 277.824C188.879 278.037 188.325 278.144 187.695 278.144ZM197.68 278.096C197.403 278.096 197.168 278 196.976 277.808C196.784 277.616 196.688 277.381 196.688 277.104C196.688 276.827 196.784 276.592 196.976 276.4C197.168 276.208 197.403 276.112 197.68 276.112C197.947 276.112 198.171 276.208 198.352 276.4C198.544 276.592 198.64 276.827 198.64 277.104C198.64 277.381 198.544 277.616 198.352 277.808C198.171 278 197.947 278.096 197.68 278.096Z" fill="#575859"/>
<circle cx="120" cy="75" r="75" fill="#F353AA" fill-opacity="0.1"/>
<path d="M130.909 94.2727V89.9091C130.909 87.5945 129.99 85.3747 128.353 83.738C126.716 82.1013 124.496 81.1818 122.182 81.1818H104.727C102.413 81.1818 100.193 82.1013 98.5562 83.738C96.9195 85.3747 96 87.5945 96 89.9091V94.2727" stroke="#D7187F" stroke-width="2" stroke-linecap="round" stroke-linejoin="round"/>
<path d="M113.455 72.4545C118.274 72.4545 122.182 68.5472 122.182 63.7273C122.182 58.9073 118.274 55 113.455 55C108.635 55 104.727 58.9073 104.727 63.7273C104.727 68.5472 108.635 72.4545 113.455 72.4545Z" stroke="#D7187F" stroke-width="2" stroke-linecap="round" stroke-linejoin="round"/>
<path d="M144 94.2725V89.9088C143.999 87.9752 143.355 86.0967 142.17 84.5684C140.986 83.0402 139.327 81.9486 137.455 81.4652" stroke="#D7187F" stroke-width="2" stroke-linecap="round" stroke-linejoin="round"/>
<path d="M128.727 55.2834C130.605 55.764 132.268 56.8558 133.457 58.3866C134.645 59.9174 135.29 61.8001 135.29 63.7379C135.29 65.6758 134.645 67.5585 133.457 69.0893C132.268 70.62 130.605 71.7118 128.727 72.1925" stroke="#D7187F" stroke-width="2" stroke-linecap="round" stroke-linejoin="round"/>
</svg>
