<svg width="241" height="359" viewBox="0 0 241 359" fill="none" xmlns="http://www.w3.org/2000/svg">
<rect x="52" y="310" width="137" height="49" rx="5" fill="#3988FF"/>
<path d="M80.4246 341L77.4366 335.87H75.4566V341H73.8186V328.454H77.8686C78.8166 328.454 79.6146 328.616 80.2626 328.94C80.9226 329.264 81.4146 329.702 81.7386 330.254C82.0626 330.806 82.2246 331.436 82.2246 332.144C82.2246 333.008 81.9726 333.77 81.4686 334.43C80.9766 335.09 80.2326 335.528 79.2366 335.744L82.3866 341H80.4246ZM75.4566 334.556H77.8686C78.7566 334.556 79.4226 334.34 79.8666 333.908C80.3106 333.464 80.5326 332.876 80.5326 332.144C80.5326 331.4 80.3106 330.824 79.8666 330.416C79.4346 330.008 78.7686 329.804 77.8686 329.804H75.4566V334.556ZM93.7698 335.69C93.7698 336.002 93.7518 336.332 93.7158 336.68H85.8318C85.8918 337.652 86.2218 338.414 86.8218 338.966C87.4338 339.506 88.1718 339.776 89.0358 339.776C89.7438 339.776 90.3318 339.614 90.7998 339.29C91.2798 338.954 91.6158 338.51 91.8078 337.958H93.5718C93.3078 338.906 92.7798 339.68 91.9878 340.28C91.1958 340.868 90.2118 341.162 89.0358 341.162C88.0998 341.162 87.2598 340.952 86.5158 340.532C85.7838 340.112 85.2078 339.518 84.7878 338.75C84.3678 337.97 84.1578 337.07 84.1578 336.05C84.1578 335.03 84.3618 334.136 84.7698 333.368C85.1778 332.6 85.7478 332.012 86.4798 331.604C87.2238 331.184 88.0758 330.974 89.0358 330.974C89.9718 330.974 90.7998 331.178 91.5198 331.586C92.2398 331.994 92.7918 332.558 93.1758 333.278C93.5718 333.986 93.7698 334.79 93.7698 335.69ZM92.0778 335.348C92.0778 334.724 91.9398 334.19 91.6638 333.746C91.3878 333.29 91.0098 332.948 90.5298 332.72C90.0618 332.48 89.5398 332.36 88.9638 332.36C88.1358 332.36 87.4278 332.624 86.8398 333.152C86.2638 333.68 85.9338 334.412 85.8498 335.348H92.0778ZM95.3199 336.032C95.3199 335.024 95.5239 334.142 95.9319 333.386C96.3399 332.618 96.8979 332.024 97.6059 331.604C98.3259 331.184 99.1239 330.974 99.9999 330.974C100.864 330.974 101.614 331.16 102.25 331.532C102.886 331.904 103.36 332.372 103.672 332.936V331.136H105.328V341H103.672V339.164C103.348 339.74 102.862 340.22 102.214 340.604C101.578 340.976 100.834 341.162 99.9819 341.162C99.1059 341.162 98.3139 340.946 97.6059 340.514C96.8979 340.082 96.3399 339.476 95.9319 338.696C95.5239 337.916 95.3199 337.028 95.3199 336.032ZM103.672 336.05C103.672 335.306 103.522 334.658 103.222 334.106C102.922 333.554 102.514 333.134 101.998 332.846C101.494 332.546 100.936 332.396 100.324 332.396C99.7119 332.396 99.1539 332.54 98.6499 332.828C98.1459 333.116 97.7439 333.536 97.4439 334.088C97.1439 334.64 96.9939 335.288 96.9939 336.032C96.9939 336.788 97.1439 337.448 97.4439 338.012C97.7439 338.564 98.1459 338.99 98.6499 339.29C99.1539 339.578 99.7119 339.722 100.324 339.722C100.936 339.722 101.494 339.578 101.998 339.29C102.514 338.99 102.922 338.564 103.222 338.012C103.522 337.448 103.672 336.794 103.672 336.05ZM107.484 336.032C107.484 335.024 107.688 334.142 108.096 333.386C108.504 332.618 109.062 332.024 109.77 331.604C110.49 331.184 111.294 330.974 112.182 330.974C112.95 330.974 113.664 331.154 114.324 331.514C114.984 331.862 115.488 332.324 115.836 332.9V327.68H117.492V341H115.836V339.146C115.512 339.734 115.032 340.22 114.396 340.604C113.76 340.976 113.016 341.162 112.164 341.162C111.288 341.162 110.49 340.946 109.77 340.514C109.062 340.082 108.504 339.476 108.096 338.696C107.688 337.916 107.484 337.028 107.484 336.032ZM115.836 336.05C115.836 335.306 115.686 334.658 115.386 334.106C115.086 333.554 114.678 333.134 114.162 332.846C113.658 332.546 113.1 332.396 112.488 332.396C111.876 332.396 111.318 332.54 110.814 332.828C110.31 333.116 109.908 333.536 109.608 334.088C109.308 334.64 109.158 335.288 109.158 336.032C109.158 336.788 109.308 337.448 109.608 338.012C109.908 338.564 110.31 338.99 110.814 339.29C111.318 339.578 111.876 339.722 112.488 339.722C113.1 339.722 113.658 339.578 114.162 339.29C114.678 338.99 115.086 338.564 115.386 338.012C115.686 337.448 115.836 336.794 115.836 336.05ZM137.785 328.544V341H136.147V331.712L132.007 341H130.855L126.697 331.694V341H125.059V328.544H126.823L131.431 338.84L136.039 328.544H137.785ZM144.865 341.162C143.941 341.162 143.101 340.952 142.345 340.532C141.601 340.112 141.013 339.518 140.581 338.75C140.161 337.97 139.951 337.07 139.951 336.05C139.951 335.042 140.167 334.154 140.599 333.386C141.043 332.606 141.643 332.012 142.399 331.604C143.155 331.184 144.001 330.974 144.937 330.974C145.873 330.974 146.719 331.184 147.475 331.604C148.231 332.012 148.825 332.6 149.257 333.368C149.701 334.136 149.923 335.03 149.923 336.05C149.923 337.07 149.695 337.97 149.239 338.75C148.795 339.518 148.189 340.112 147.421 340.532C146.653 340.952 145.801 341.162 144.865 341.162ZM144.865 339.722C145.453 339.722 146.005 339.584 146.521 339.308C147.037 339.032 147.451 338.618 147.763 338.066C148.087 337.514 148.249 336.842 148.249 336.05C148.249 335.258 148.093 334.586 147.781 334.034C147.469 333.482 147.061 333.074 146.557 332.81C146.053 332.534 145.507 332.396 144.919 332.396C144.319 332.396 143.767 332.534 143.263 332.81C142.771 333.074 142.375 333.482 142.075 334.034C141.775 334.586 141.625 335.258 141.625 336.05C141.625 336.854 141.769 337.532 142.057 338.084C142.357 338.636 142.753 339.05 143.245 339.326C143.737 339.59 144.277 339.722 144.865 339.722ZM153.714 332.738C154.002 332.174 154.41 331.736 154.938 331.424C155.478 331.112 156.132 330.956 156.9 330.956V332.648H156.468C154.632 332.648 153.714 333.644 153.714 335.636V341H152.076V331.136H153.714V332.738ZM167.791 335.69C167.791 336.002 167.773 336.332 167.737 336.68H159.853C159.913 337.652 160.243 338.414 160.843 338.966C161.455 339.506 162.193 339.776 163.057 339.776C163.765 339.776 164.353 339.614 164.821 339.29C165.301 338.954 165.637 338.51 165.829 337.958H167.593C167.329 338.906 166.801 339.68 166.009 340.28C165.217 340.868 164.233 341.162 163.057 341.162C162.121 341.162 161.281 340.952 160.537 340.532C159.805 340.112 159.229 339.518 158.809 338.75C158.389 337.97 158.179 337.07 158.179 336.05C158.179 335.03 158.383 334.136 158.791 333.368C159.199 332.6 159.769 332.012 160.501 331.604C161.245 331.184 162.097 330.974 163.057 330.974C163.993 330.974 164.821 331.178 165.541 331.586C166.261 331.994 166.813 332.558 167.197 333.278C167.593 333.986 167.791 334.79 167.791 335.69ZM166.099 335.348C166.099 334.724 165.961 334.19 165.685 333.746C165.409 333.29 165.031 332.948 164.551 332.72C164.083 332.48 163.561 332.36 162.985 332.36C162.157 332.36 161.449 332.624 160.861 333.152C160.285 333.68 159.955 334.412 159.871 335.348H166.099Z" fill="white"/>
<path d="M67.0507 191.05V209H65.7007C65.4924 209 65.3174 208.962 65.1757 208.887C65.0424 208.812 64.9049 208.692 64.7632 208.525L54.6257 195.412C54.6424 195.637 54.6549 195.858 54.6632 196.075C54.6799 196.292 54.6882 196.496 54.6882 196.687V209H52.3507V191.05H53.7257C53.959 191.05 54.134 191.079 54.2507 191.137C54.3674 191.187 54.4965 191.308 54.6382 191.5L64.8007 204.625C64.7757 204.383 64.7549 204.15 64.7382 203.925C64.7299 203.692 64.7257 203.475 64.7257 203.275V191.05H67.0507ZM76.0132 196.1C76.9465 196.1 77.7882 196.254 78.5382 196.562C79.2965 196.862 79.9382 197.3 80.4632 197.875C80.9965 198.442 81.4049 199.129 81.6882 199.937C81.9715 200.737 82.1132 201.637 82.1132 202.637C82.1132 203.637 81.9715 204.542 81.6882 205.35C81.4049 206.158 80.9965 206.846 80.4632 207.412C79.9382 207.979 79.2965 208.417 78.5382 208.725C77.7882 209.025 76.9465 209.175 76.0132 209.175C75.0715 209.175 74.2215 209.025 73.4632 208.725C72.7132 208.417 72.0715 207.979 71.5382 207.412C71.0049 206.846 70.5924 206.158 70.3007 205.35C70.0174 204.542 69.8757 203.637 69.8757 202.637C69.8757 201.637 70.0174 200.737 70.3007 199.937C70.5924 199.129 71.0049 198.442 71.5382 197.875C72.0715 197.3 72.7132 196.862 73.4632 196.562C74.2215 196.254 75.0715 196.1 76.0132 196.1ZM76.0132 207.275C77.2132 207.275 78.109 206.871 78.7007 206.062C79.2924 205.254 79.5882 204.117 79.5882 202.65C79.5882 201.183 79.2924 200.046 78.7007 199.237C78.109 198.421 77.2132 198.012 76.0132 198.012C74.7965 198.012 73.8882 198.421 73.2882 199.237C72.6965 200.046 72.4007 201.183 72.4007 202.65C72.4007 204.117 72.6965 205.254 73.2882 206.062C73.8882 206.871 74.7965 207.275 76.0132 207.275ZM96.6274 209H94.1774V198.275H87.8024V205.712C87.8024 206.212 87.9233 206.587 88.1649 206.837C88.4149 207.079 88.7316 207.2 89.1149 207.2C89.3399 207.2 89.5316 207.171 89.6899 207.112C89.8566 207.054 89.9983 206.992 90.1149 206.925C90.2316 206.85 90.3316 206.783 90.4149 206.725C90.4983 206.667 90.5733 206.637 90.6399 206.637C90.7233 206.637 90.7858 206.658 90.8274 206.7C90.8774 206.733 90.9274 206.792 90.9774 206.875L91.7024 208.05C91.3024 208.417 90.8274 208.7 90.2774 208.9C89.7274 209.1 89.1566 209.2 88.5649 209.2C87.5399 209.2 86.7483 208.912 86.1899 208.337C85.6399 207.762 85.3649 206.942 85.3649 205.875V198.275H83.8899C83.7483 198.275 83.6274 198.233 83.5274 198.15C83.4358 198.058 83.3899 197.925 83.3899 197.75V196.762L85.4649 196.475L86.0024 192.687C86.0358 192.546 86.0983 192.437 86.1899 192.362C86.2899 192.279 86.4149 192.237 86.5649 192.237H87.8024V196.5H96.6274V209ZM97.1774 192.3C97.1774 192.525 97.1316 192.742 97.0399 192.95C96.9483 193.15 96.8233 193.329 96.6649 193.487C96.5149 193.637 96.3358 193.758 96.1274 193.85C95.9191 193.933 95.7024 193.975 95.4774 193.975C95.2524 193.975 95.0399 193.933 94.8399 193.85C94.6399 193.758 94.4608 193.637 94.3024 193.487C94.1524 193.329 94.0316 193.15 93.9399 192.95C93.8566 192.742 93.8149 192.525 93.8149 192.3C93.8149 192.067 93.8566 191.846 93.9399 191.637C94.0316 191.429 94.1524 191.25 94.3024 191.1C94.4608 190.942 94.6399 190.821 94.8399 190.737C95.0399 190.646 95.2524 190.6 95.4774 190.6C95.7024 190.6 95.9191 190.646 96.1274 190.737C96.3358 190.821 96.5149 190.942 96.6649 191.1C96.8233 191.25 96.9483 191.429 97.0399 191.637C97.1316 191.846 97.1774 192.067 97.1774 192.3ZM101.016 209V198.3L99.6911 198.137C99.4994 198.096 99.3411 198.029 99.2161 197.937C99.0994 197.837 99.0411 197.696 99.0411 197.512V196.5H101.016V195.887C101.016 195.112 101.137 194.4 101.379 193.75C101.629 193.092 101.999 192.525 102.491 192.05C102.991 191.575 103.608 191.208 104.341 190.95C105.083 190.683 105.949 190.55 106.941 190.55C107.258 190.55 107.591 190.571 107.941 190.612C108.291 190.654 108.587 190.717 108.829 190.8L108.741 192.075C108.724 192.242 108.62 192.329 108.429 192.337C108.237 192.346 107.97 192.35 107.629 192.35C106.87 192.35 106.224 192.425 105.691 192.575C105.158 192.725 104.72 192.95 104.379 193.25C104.037 193.55 103.787 193.929 103.629 194.387C103.47 194.837 103.391 195.362 103.391 195.962V196.5H111.116V209H108.666V198.275H103.466V209H101.016ZM123.544 198.675C123.469 198.767 123.394 198.842 123.319 198.9C123.252 198.95 123.152 198.975 123.019 198.975C122.885 198.975 122.744 198.925 122.594 198.825C122.452 198.717 122.269 198.604 122.044 198.487C121.827 198.362 121.56 198.25 121.244 198.15C120.935 198.042 120.552 197.987 120.094 197.987C119.494 197.987 118.964 198.096 118.506 198.312C118.048 198.529 117.664 198.837 117.356 199.237C117.056 199.637 116.827 200.125 116.669 200.7C116.51 201.275 116.431 201.921 116.431 202.637C116.431 203.379 116.514 204.042 116.681 204.625C116.848 205.2 117.085 205.687 117.394 206.087C117.702 206.479 118.077 206.779 118.519 206.987C118.96 207.187 119.452 207.287 119.994 207.287C120.519 207.287 120.952 207.225 121.294 207.1C121.635 206.967 121.919 206.825 122.144 206.675C122.369 206.525 122.556 206.387 122.706 206.262C122.856 206.129 123.01 206.062 123.169 206.062C123.369 206.062 123.523 206.137 123.631 206.287L124.331 207.187C124.039 207.546 123.71 207.85 123.344 208.1C122.985 208.35 122.602 208.554 122.194 208.712C121.785 208.871 121.356 208.987 120.906 209.063C120.464 209.138 120.014 209.175 119.556 209.175C118.764 209.175 118.023 209.029 117.331 208.737C116.648 208.446 116.052 208.021 115.544 207.462C115.044 206.904 114.648 206.221 114.356 205.412C114.064 204.596 113.919 203.671 113.919 202.637C113.919 201.696 114.048 200.825 114.306 200.025C114.573 199.225 114.96 198.537 115.469 197.962C115.985 197.379 116.619 196.925 117.369 196.6C118.119 196.267 118.977 196.1 119.944 196.1C120.852 196.1 121.652 196.246 122.344 196.537C123.035 196.829 123.652 197.242 124.194 197.775L123.544 198.675ZM133.432 203.362C132.44 203.396 131.598 203.475 130.907 203.6C130.215 203.717 129.652 203.875 129.219 204.075C128.786 204.275 128.473 204.512 128.282 204.787C128.09 205.054 127.994 205.354 127.994 205.687C127.994 206.004 128.044 206.279 128.144 206.512C128.252 206.737 128.394 206.925 128.569 207.075C128.752 207.217 128.965 207.321 129.207 207.387C129.448 207.454 129.711 207.487 129.994 207.487C130.369 207.487 130.711 207.45 131.019 207.375C131.336 207.3 131.632 207.196 131.907 207.062C132.182 206.921 132.444 206.75 132.694 206.55C132.944 206.35 133.19 206.121 133.432 205.862V203.362ZM126.282 198.075C126.99 197.4 127.757 196.896 128.582 196.562C129.415 196.229 130.327 196.062 131.319 196.062C132.044 196.062 132.686 196.183 133.244 196.425C133.802 196.658 134.273 196.987 134.657 197.412C135.04 197.837 135.327 198.346 135.519 198.937C135.719 199.529 135.819 200.183 135.819 200.9V209H134.732C134.49 209 134.307 208.962 134.182 208.887C134.057 208.804 133.957 208.654 133.882 208.437L133.619 207.325C133.294 207.625 132.973 207.892 132.657 208.125C132.34 208.35 132.007 208.546 131.657 208.712C131.315 208.871 130.948 208.992 130.557 209.075C130.165 209.158 129.732 209.2 129.257 209.2C128.757 209.2 128.286 209.133 127.844 209C127.411 208.858 127.032 208.646 126.707 208.362C126.382 208.079 126.123 207.725 125.932 207.3C125.748 206.875 125.657 206.379 125.657 205.812C125.657 205.312 125.79 204.833 126.057 204.375C126.332 203.908 126.773 203.492 127.382 203.125C127.998 202.758 128.798 202.458 129.782 202.225C130.773 201.992 131.99 201.858 133.432 201.825V200.9C133.432 199.942 133.227 199.225 132.819 198.75C132.411 198.275 131.811 198.037 131.019 198.037C130.486 198.037 130.036 198.104 129.669 198.237C129.311 198.371 128.998 198.521 128.732 198.687C128.473 198.846 128.244 198.992 128.044 199.125C127.852 199.258 127.652 199.325 127.444 199.325C127.277 199.325 127.132 199.279 127.007 199.187C126.89 199.096 126.794 198.987 126.719 198.862L126.282 198.075ZM150.949 209H148.499V198.275H142.124V205.712C142.124 206.212 142.245 206.587 142.486 206.837C142.736 207.079 143.053 207.2 143.436 207.2C143.661 207.2 143.853 207.171 144.011 207.112C144.178 207.054 144.32 206.992 144.436 206.925C144.553 206.85 144.653 206.783 144.736 206.725C144.82 206.667 144.895 206.637 144.961 206.637C145.045 206.637 145.107 206.658 145.149 206.7C145.199 206.733 145.249 206.792 145.299 206.875L146.024 208.05C145.624 208.417 145.149 208.7 144.599 208.9C144.049 209.1 143.478 209.2 142.886 209.2C141.861 209.2 141.07 208.912 140.511 208.337C139.961 207.762 139.686 206.942 139.686 205.875V198.275H138.211C138.07 198.275 137.949 198.233 137.849 198.15C137.757 198.058 137.711 197.925 137.711 197.75V196.762L139.786 196.475L140.324 192.687C140.357 192.546 140.42 192.437 140.511 192.362C140.611 192.279 140.736 192.237 140.886 192.237H142.124V196.5H150.949V209ZM151.499 192.3C151.499 192.525 151.453 192.742 151.361 192.95C151.27 193.15 151.145 193.329 150.986 193.487C150.836 193.637 150.657 193.758 150.449 193.85C150.24 193.933 150.024 193.975 149.799 193.975C149.574 193.975 149.361 193.933 149.161 193.85C148.961 193.758 148.782 193.637 148.624 193.487C148.474 193.329 148.353 193.15 148.261 192.95C148.178 192.742 148.136 192.525 148.136 192.3C148.136 192.067 148.178 191.846 148.261 191.637C148.353 191.429 148.474 191.25 148.624 191.1C148.782 190.942 148.961 190.821 149.161 190.737C149.361 190.646 149.574 190.6 149.799 190.6C150.024 190.6 150.24 190.646 150.449 190.737C150.657 190.821 150.836 190.942 150.986 191.1C151.145 191.25 151.27 191.429 151.361 191.637C151.453 191.846 151.499 192.067 151.499 192.3ZM159.9 196.1C160.833 196.1 161.675 196.254 162.425 196.562C163.183 196.862 163.825 197.3 164.35 197.875C164.883 198.442 165.292 199.129 165.575 199.937C165.858 200.737 166 201.637 166 202.637C166 203.637 165.858 204.542 165.575 205.35C165.292 206.158 164.883 206.846 164.35 207.412C163.825 207.979 163.183 208.417 162.425 208.725C161.675 209.025 160.833 209.175 159.9 209.175C158.958 209.175 158.108 209.025 157.35 208.725C156.6 208.417 155.958 207.979 155.425 207.412C154.892 206.846 154.479 206.158 154.187 205.35C153.904 204.542 153.762 203.637 153.762 202.637C153.762 201.637 153.904 200.737 154.187 199.937C154.479 199.129 154.892 198.442 155.425 197.875C155.958 197.3 156.6 196.862 157.35 196.562C158.108 196.254 158.958 196.1 159.9 196.1ZM159.9 207.275C161.1 207.275 161.996 206.871 162.587 206.062C163.179 205.254 163.475 204.117 163.475 202.65C163.475 201.183 163.179 200.046 162.587 199.237C161.996 198.421 161.1 198.012 159.9 198.012C158.683 198.012 157.775 198.421 157.175 199.237C156.583 200.046 156.287 201.183 156.287 202.65C156.287 204.117 156.583 205.254 157.175 206.062C157.775 206.871 158.683 207.275 159.9 207.275ZM171.008 198.062C171.283 197.771 171.571 197.504 171.871 197.262C172.171 197.021 172.487 196.817 172.821 196.65C173.162 196.475 173.525 196.342 173.908 196.25C174.3 196.15 174.717 196.1 175.158 196.1C175.858 196.1 176.471 196.217 176.996 196.45C177.529 196.683 177.975 197.012 178.333 197.437C178.692 197.854 178.962 198.358 179.146 198.95C179.329 199.542 179.421 200.196 179.421 200.912V209H176.971V200.912C176.971 200.004 176.762 199.3 176.346 198.8C175.929 198.292 175.292 198.037 174.433 198.037C173.808 198.037 173.221 198.187 172.671 198.487C172.129 198.779 171.625 199.179 171.158 199.687V209H168.721V196.3H170.183C170.525 196.3 170.737 196.462 170.821 196.787L171.008 198.062ZM190.198 198.487C190.131 198.596 190.06 198.675 189.985 198.725C189.91 198.767 189.814 198.787 189.698 198.787C189.564 198.787 189.414 198.742 189.248 198.65C189.089 198.558 188.893 198.458 188.66 198.35C188.435 198.242 188.168 198.142 187.86 198.05C187.552 197.958 187.185 197.912 186.76 197.912C186.41 197.912 186.089 197.958 185.798 198.05C185.514 198.133 185.273 198.254 185.073 198.412C184.873 198.562 184.718 198.746 184.61 198.962C184.502 199.171 184.448 199.396 184.448 199.637C184.448 199.954 184.539 200.217 184.723 200.425C184.914 200.633 185.16 200.812 185.46 200.962C185.768 201.112 186.114 201.25 186.498 201.375C186.889 201.492 187.285 201.617 187.685 201.75C188.093 201.883 188.489 202.037 188.873 202.212C189.264 202.379 189.61 202.592 189.91 202.85C190.218 203.1 190.464 203.404 190.648 203.762C190.839 204.121 190.935 204.558 190.935 205.075C190.935 205.667 190.827 206.217 190.61 206.725C190.402 207.225 190.089 207.658 189.673 208.025C189.264 208.392 188.756 208.679 188.148 208.887C187.539 209.096 186.843 209.2 186.06 209.2C185.185 209.2 184.377 209.054 183.635 208.762C182.893 208.471 182.273 208.1 181.773 207.65L182.348 206.712C182.414 206.596 182.498 206.508 182.598 206.45C182.698 206.383 182.831 206.35 182.998 206.35C183.156 206.35 183.318 206.408 183.485 206.525C183.652 206.642 183.852 206.771 184.085 206.912C184.318 207.046 184.602 207.171 184.935 207.287C185.268 207.396 185.685 207.45 186.185 207.45C186.602 207.45 186.964 207.4 187.273 207.3C187.581 207.192 187.835 207.05 188.035 206.875C188.243 206.692 188.398 206.483 188.498 206.25C188.598 206.017 188.648 205.771 188.648 205.512C188.648 205.179 188.552 204.904 188.36 204.687C188.177 204.462 187.931 204.271 187.623 204.112C187.323 203.954 186.977 203.817 186.585 203.7C186.193 203.583 185.793 203.458 185.385 203.325C184.977 203.192 184.577 203.037 184.185 202.862C183.793 202.687 183.443 202.467 183.135 202.2C182.835 201.933 182.589 201.608 182.398 201.225C182.214 200.842 182.123 200.375 182.123 199.825C182.123 199.333 182.223 198.862 182.423 198.412C182.631 197.962 182.927 197.567 183.31 197.225C183.702 196.883 184.181 196.612 184.748 196.412C185.323 196.204 185.977 196.1 186.71 196.1C187.552 196.1 188.31 196.233 188.985 196.5C189.668 196.767 190.252 197.133 190.735 197.6L190.198 198.487Z" fill="#050C26"/>
<path d="M31.1053 249.52H26.2413L25.3453 252H23.8092L27.8413 240.912H29.5213L33.5373 252H32.0013L31.1053 249.52ZM30.6893 248.336L28.6733 242.704L26.6573 248.336H30.6893ZM39.5665 243.072C40.6332 243.072 41.4972 243.397 42.1585 244.048C42.8198 244.688 43.1505 245.616 43.1505 246.832V252H41.7105V247.04C41.7105 246.165 41.4918 245.499 41.0545 245.04C40.6172 244.571 40.0198 244.336 39.2625 244.336C38.4945 244.336 37.8812 244.576 37.4225 245.056C36.9745 245.536 36.7505 246.235 36.7505 247.152V252H35.2945V243.232H36.7505V244.48C37.0385 244.032 37.4278 243.685 37.9185 243.44C38.4198 243.195 38.9692 243.072 39.5665 243.072ZM49.2505 247.584C49.2505 246.688 49.4318 245.904 49.7945 245.232C50.1572 244.549 50.6532 244.021 51.2825 243.648C51.9225 243.275 52.6318 243.088 53.4105 243.088C54.1785 243.088 54.8452 243.253 55.4105 243.584C55.9758 243.915 56.3972 244.331 56.6745 244.832V243.232H58.1465V252H56.6745V250.368C56.3865 250.88 55.9545 251.307 55.3785 251.648C54.8132 251.979 54.1518 252.144 53.3945 252.144C52.6158 252.144 51.9118 251.952 51.2825 251.568C50.6532 251.184 50.1572 250.645 49.7945 249.952C49.4318 249.259 49.2505 248.469 49.2505 247.584ZM56.6745 247.6C56.6745 246.939 56.5412 246.363 56.2745 245.872C56.0078 245.381 55.6452 245.008 55.1865 244.752C54.7385 244.485 54.2425 244.352 53.6985 244.352C53.1545 244.352 52.6585 244.48 52.2105 244.736C51.7625 244.992 51.4052 245.365 51.1385 245.856C50.8718 246.347 50.7385 246.923 50.7385 247.584C50.7385 248.256 50.8718 248.843 51.1385 249.344C51.4052 249.835 51.7625 250.213 52.2105 250.48C52.6585 250.736 53.1545 250.864 53.6985 250.864C54.2425 250.864 54.7385 250.736 55.1865 250.48C55.6452 250.213 56.0078 249.835 56.2745 249.344C56.5412 248.843 56.6745 248.261 56.6745 247.6ZM64.223 243.088C64.9803 243.088 65.6417 243.253 66.207 243.584C66.783 243.915 67.2097 244.331 67.487 244.832V243.232H68.959V252.192C68.959 252.992 68.7883 253.701 68.447 254.32C68.1057 254.949 67.615 255.44 66.975 255.792C66.3457 256.144 65.6097 256.32 64.767 256.32C63.615 256.32 62.655 256.048 61.887 255.504C61.119 254.96 60.6657 254.219 60.527 253.28H61.967C62.127 253.813 62.4577 254.24 62.959 254.56C63.4603 254.891 64.063 255.056 64.767 255.056C65.567 255.056 66.2177 254.805 66.719 254.304C67.231 253.803 67.487 253.099 67.487 252.192V250.352C67.199 250.864 66.7723 251.291 66.207 251.632C65.6417 251.973 64.9803 252.144 64.223 252.144C63.4443 252.144 62.735 251.952 62.095 251.568C61.4657 251.184 60.9697 250.645 60.607 249.952C60.2443 249.259 60.063 248.469 60.063 247.584C60.063 246.688 60.2443 245.904 60.607 245.232C60.9697 244.549 61.4657 244.021 62.095 243.648C62.735 243.275 63.4443 243.088 64.223 243.088ZM67.487 247.6C67.487 246.939 67.3537 246.363 67.087 245.872C66.8203 245.381 66.4577 245.008 65.999 244.752C65.551 244.485 65.055 244.352 64.511 244.352C63.967 244.352 63.471 244.48 63.023 244.736C62.575 244.992 62.2177 245.365 61.951 245.856C61.6843 246.347 61.551 246.923 61.551 247.584C61.551 248.256 61.6843 248.843 61.951 249.344C62.2177 249.835 62.575 250.213 63.023 250.48C63.471 250.736 63.967 250.864 64.511 250.864C65.055 250.864 65.551 250.736 65.999 250.48C66.4577 250.213 66.8203 249.835 67.087 249.344C67.3537 248.843 67.487 248.261 67.487 247.6ZM79.4195 247.28C79.4195 247.557 79.4035 247.851 79.3715 248.16H72.3635C72.4168 249.024 72.7102 249.701 73.2435 250.192C73.7875 250.672 74.4435 250.912 75.2115 250.912C75.8408 250.912 76.3635 250.768 76.7795 250.48C77.2062 250.181 77.5048 249.787 77.6755 249.296H79.2435C79.0088 250.139 78.5395 250.827 77.8355 251.36C77.1315 251.883 76.2568 252.144 75.2115 252.144C74.3795 252.144 73.6328 251.957 72.9715 251.584C72.3208 251.211 71.8088 250.683 71.4355 250C71.0622 249.307 70.8755 248.507 70.8755 247.6C70.8755 246.693 71.0568 245.899 71.4195 245.216C71.7822 244.533 72.2888 244.011 72.9395 243.648C73.6008 243.275 74.3582 243.088 75.2115 243.088C76.0435 243.088 76.7795 243.269 77.4195 243.632C78.0595 243.995 78.5502 244.496 78.8915 245.136C79.2435 245.765 79.4195 246.48 79.4195 247.28ZM77.9155 246.976C77.9155 246.421 77.7928 245.947 77.5475 245.552C77.3022 245.147 76.9662 244.843 76.5395 244.64C76.1235 244.427 75.6595 244.32 75.1475 244.32C74.4115 244.32 73.7822 244.555 73.2595 245.024C72.7475 245.493 72.4542 246.144 72.3795 246.976H77.9155ZM85.6134 243.072C86.68 243.072 87.544 243.397 88.2054 244.048C88.8667 244.688 89.1974 245.616 89.1974 246.832V252H87.7574V247.04C87.7574 246.165 87.5387 245.499 87.1014 245.04C86.664 244.571 86.0667 244.336 85.3094 244.336C84.5414 244.336 83.928 244.576 83.4694 245.056C83.0214 245.536 82.7974 246.235 82.7974 247.152V252H81.3414V243.232H82.7974V244.48C83.0854 244.032 83.4747 243.685 83.9654 243.44C84.4667 243.195 85.016 243.072 85.6134 243.072ZM91.0318 247.6C91.0318 246.693 91.2131 245.904 91.5758 245.232C91.9384 244.549 92.4398 244.021 93.0798 243.648C93.7304 243.275 94.4718 243.088 95.3038 243.088C96.3811 243.088 97.2664 243.349 97.9598 243.872C98.6638 244.395 99.1278 245.12 99.3518 246.048H97.7838C97.6344 245.515 97.3411 245.093 96.9038 244.784C96.4771 244.475 95.9438 244.32 95.3038 244.32C94.4718 244.32 93.7998 244.608 93.2878 245.184C92.7758 245.749 92.5198 246.555 92.5198 247.6C92.5198 248.656 92.7758 249.472 93.2878 250.048C93.7998 250.624 94.4718 250.912 95.3038 250.912C95.9438 250.912 96.4771 250.763 96.9038 250.464C97.3304 250.165 97.6238 249.739 97.7838 249.184H99.3518C99.1171 250.08 98.6478 250.8 97.9438 251.344C97.2398 251.877 96.3598 252.144 95.3038 252.144C94.4718 252.144 93.7304 251.957 93.0798 251.584C92.4398 251.211 91.9384 250.683 91.5758 250C91.2131 249.317 91.0318 248.517 91.0318 247.6ZM108.847 243.232L103.567 256.128H102.062L103.791 251.904L100.255 243.232H101.871L104.623 250.336L107.343 243.232H108.847ZM116.032 244.848C116.32 244.347 116.746 243.931 117.312 243.6C117.888 243.259 118.554 243.088 119.312 243.088C120.09 243.088 120.794 243.275 121.424 243.648C122.064 244.021 122.565 244.549 122.928 245.232C123.29 245.904 123.472 246.688 123.472 247.584C123.472 248.469 123.29 249.259 122.928 249.952C122.565 250.645 122.064 251.184 121.424 251.568C120.794 251.952 120.09 252.144 119.312 252.144C118.565 252.144 117.904 251.979 117.328 251.648C116.762 251.307 116.33 250.885 116.032 250.384V256.16H114.576V243.232H116.032V244.848ZM121.984 247.584C121.984 246.923 121.85 246.347 121.584 245.856C121.317 245.365 120.954 244.992 120.496 244.736C120.048 244.48 119.552 244.352 119.008 244.352C118.474 244.352 117.978 244.485 117.52 244.752C117.072 245.008 116.709 245.387 116.432 245.888C116.165 246.379 116.032 246.949 116.032 247.6C116.032 248.261 116.165 248.843 116.432 249.344C116.709 249.835 117.072 250.213 117.52 250.48C117.978 250.736 118.474 250.864 119.008 250.864C119.552 250.864 120.048 250.736 120.496 250.48C120.954 250.213 121.317 249.835 121.584 249.344C121.85 248.843 121.984 248.256 121.984 247.584ZM129.74 243.072C130.402 243.072 130.999 243.216 131.532 243.504C132.066 243.781 132.482 244.203 132.78 244.768C133.09 245.333 133.244 246.021 133.244 246.832V252H131.804V247.04C131.804 246.165 131.586 245.499 131.148 245.04C130.711 244.571 130.114 244.336 129.356 244.336C128.588 244.336 127.975 244.576 127.516 245.056C127.068 245.536 126.844 246.235 126.844 247.152V252H125.388V240.16H126.844V244.48C127.132 244.032 127.527 243.685 128.028 243.44C128.54 243.195 129.111 243.072 129.74 243.072ZM136.375 241.808C136.097 241.808 135.863 241.712 135.671 241.52C135.479 241.328 135.383 241.093 135.383 240.816C135.383 240.539 135.479 240.304 135.671 240.112C135.863 239.92 136.097 239.824 136.375 239.824C136.641 239.824 136.865 239.92 137.047 240.112C137.239 240.304 137.335 240.539 137.335 240.816C137.335 241.093 137.239 241.328 137.047 241.52C136.865 241.712 136.641 241.808 136.375 241.808ZM137.079 243.232V252H135.623V243.232H137.079ZM141.016 240.16V252H139.56V240.16H141.016ZM147.322 252.144C146.5 252.144 145.754 251.957 145.082 251.584C144.42 251.211 143.898 250.683 143.514 250C143.14 249.307 142.954 248.507 142.954 247.6C142.954 246.704 143.146 245.915 143.53 245.232C143.924 244.539 144.458 244.011 145.13 243.648C145.802 243.275 146.554 243.088 147.386 243.088C148.218 243.088 148.97 243.275 149.642 243.648C150.314 244.011 150.842 244.533 151.226 245.216C151.62 245.899 151.818 246.693 151.818 247.6C151.818 248.507 151.615 249.307 151.21 250C150.815 250.683 150.276 251.211 149.594 251.584C148.911 251.957 148.154 252.144 147.322 252.144ZM147.322 250.864C147.844 250.864 148.335 250.741 148.794 250.496C149.252 250.251 149.62 249.883 149.898 249.392C150.186 248.901 150.33 248.304 150.33 247.6C150.33 246.896 150.191 246.299 149.914 245.808C149.636 245.317 149.274 244.955 148.826 244.72C148.378 244.475 147.892 244.352 147.37 244.352C146.836 244.352 146.346 244.475 145.898 244.72C145.46 244.955 145.108 245.317 144.842 245.808C144.575 246.299 144.442 246.896 144.442 247.6C144.442 248.315 144.57 248.917 144.826 249.408C145.092 249.899 145.444 250.267 145.882 250.512C146.319 250.747 146.799 250.864 147.322 250.864ZM156.836 252.144C156.164 252.144 155.561 252.032 155.028 251.808C154.495 251.573 154.073 251.253 153.764 250.848C153.455 250.432 153.284 249.957 153.252 249.424H154.756C154.799 249.861 155.001 250.219 155.364 250.496C155.737 250.773 156.223 250.912 156.82 250.912C157.375 250.912 157.812 250.789 158.132 250.544C158.452 250.299 158.612 249.989 158.612 249.616C158.612 249.232 158.441 248.949 158.1 248.768C157.759 248.576 157.231 248.389 156.516 248.208C155.865 248.037 155.332 247.867 154.916 247.696C154.511 247.515 154.159 247.253 153.86 246.912C153.572 246.56 153.428 246.101 153.428 245.536C153.428 245.088 153.561 244.677 153.828 244.304C154.095 243.931 154.473 243.637 154.964 243.424C155.455 243.2 156.015 243.088 156.644 243.088C157.615 243.088 158.399 243.333 158.996 243.824C159.593 244.315 159.913 244.987 159.956 245.84H158.5C158.468 245.381 158.281 245.013 157.94 244.736C157.609 244.459 157.161 244.32 156.596 244.32C156.073 244.32 155.657 244.432 155.348 244.656C155.039 244.88 154.884 245.173 154.884 245.536C154.884 245.824 154.975 246.064 155.156 246.256C155.348 246.437 155.583 246.587 155.86 246.704C156.148 246.811 156.543 246.933 157.044 247.072C157.673 247.243 158.185 247.413 158.58 247.584C158.975 247.744 159.311 247.989 159.588 248.32C159.876 248.651 160.025 249.083 160.036 249.616C160.036 250.096 159.903 250.528 159.636 250.912C159.369 251.296 158.991 251.6 158.5 251.824C158.02 252.037 157.465 252.144 156.836 252.144ZM165.915 252.144C165.094 252.144 164.347 251.957 163.675 251.584C163.014 251.211 162.491 250.683 162.107 250C161.734 249.307 161.547 248.507 161.547 247.6C161.547 246.704 161.739 245.915 162.123 245.232C162.518 244.539 163.051 244.011 163.723 243.648C164.395 243.275 165.147 243.088 165.979 243.088C166.811 243.088 167.563 243.275 168.235 243.648C168.907 244.011 169.435 244.533 169.819 245.216C170.214 245.899 170.411 246.693 170.411 247.6C170.411 248.507 170.209 249.307 169.803 250C169.409 250.683 168.87 251.211 168.187 251.584C167.505 251.957 166.747 252.144 165.915 252.144ZM165.915 250.864C166.438 250.864 166.929 250.741 167.387 250.496C167.846 250.251 168.214 249.883 168.491 249.392C168.779 248.901 168.923 248.304 168.923 247.6C168.923 246.896 168.785 246.299 168.507 245.808C168.23 245.317 167.867 244.955 167.419 244.72C166.971 244.475 166.486 244.352 165.963 244.352C165.43 244.352 164.939 244.475 164.491 244.72C164.054 244.955 163.702 245.317 163.435 245.808C163.169 246.299 163.035 246.896 163.035 247.6C163.035 248.315 163.163 248.917 163.419 249.408C163.686 249.899 164.038 250.267 164.475 250.512C164.913 250.747 165.393 250.864 165.915 250.864ZM173.782 244.848C174.07 244.347 174.496 243.931 175.062 243.6C175.638 243.259 176.304 243.088 177.062 243.088C177.84 243.088 178.544 243.275 179.174 243.648C179.814 244.021 180.315 244.549 180.678 245.232C181.04 245.904 181.222 246.688 181.222 247.584C181.222 248.469 181.04 249.259 180.678 249.952C180.315 250.645 179.814 251.184 179.174 251.568C178.544 251.952 177.84 252.144 177.062 252.144C176.315 252.144 175.654 251.979 175.078 251.648C174.512 251.307 174.08 250.885 173.782 250.384V256.16H172.326V243.232H173.782V244.848ZM179.734 247.584C179.734 246.923 179.6 246.347 179.334 245.856C179.067 245.365 178.704 244.992 178.246 244.736C177.798 244.48 177.302 244.352 176.758 244.352C176.224 244.352 175.728 244.485 175.27 244.752C174.822 245.008 174.459 245.387 174.182 245.888C173.915 246.379 173.782 246.949 173.782 247.6C173.782 248.261 173.915 248.843 174.182 249.344C174.459 249.835 174.822 250.213 175.27 250.48C175.728 250.736 176.224 250.864 176.758 250.864C177.302 250.864 177.798 250.736 178.246 250.48C178.704 250.213 179.067 249.835 179.334 249.344C179.6 248.843 179.734 248.256 179.734 247.584ZM187.49 243.072C188.152 243.072 188.749 243.216 189.282 243.504C189.816 243.781 190.232 244.203 190.53 244.768C190.84 245.333 190.994 246.021 190.994 246.832V252H189.554V247.04C189.554 246.165 189.336 245.499 188.898 245.04C188.461 244.571 187.864 244.336 187.106 244.336C186.338 244.336 185.725 244.576 185.266 245.056C184.818 245.536 184.594 246.235 184.594 247.152V252H183.138V240.16H184.594V244.48C184.882 244.032 185.277 243.685 185.778 243.44C186.29 243.195 186.861 243.072 187.49 243.072ZM200.925 243.232L195.645 256.128H194.141L195.869 251.904L192.333 243.232H193.949L196.701 250.336L199.421 243.232H200.925ZM207.406 241.808C207.129 241.808 206.894 241.712 206.702 241.52C206.51 241.328 206.414 241.093 206.414 240.816C206.414 240.539 206.51 240.304 206.702 240.112C206.894 239.92 207.129 239.824 207.406 239.824C207.673 239.824 207.897 239.92 208.078 240.112C208.27 240.304 208.366 240.539 208.366 240.816C208.366 241.093 208.27 241.328 208.078 241.52C207.897 241.712 207.673 241.808 207.406 241.808ZM208.11 243.232V252H206.654V243.232H208.11ZM213.695 252.144C213.023 252.144 212.421 252.032 211.887 251.808C211.354 251.573 210.933 251.253 210.623 250.848C210.314 250.432 210.143 249.957 210.111 249.424H211.615C211.658 249.861 211.861 250.219 212.223 250.496C212.597 250.773 213.082 250.912 213.679 250.912C214.234 250.912 214.671 250.789 214.991 250.544C215.311 250.299 215.471 249.989 215.471 249.616C215.471 249.232 215.301 248.949 214.959 248.768C214.618 248.576 214.09 248.389 213.375 248.208C212.725 248.037 212.191 247.867 211.775 247.696C211.37 247.515 211.018 247.253 210.719 246.912C210.431 246.56 210.287 246.101 210.287 245.536C210.287 245.088 210.421 244.677 210.687 244.304C210.954 243.931 211.333 243.637 211.823 243.424C212.314 243.2 212.874 243.088 213.503 243.088C214.474 243.088 215.258 243.333 215.855 243.824C216.453 244.315 216.773 244.987 216.815 245.84H215.359C215.327 245.381 215.141 245.013 214.799 244.736C214.469 244.459 214.021 244.32 213.455 244.32C212.933 244.32 212.517 244.432 212.207 244.656C211.898 244.88 211.743 245.173 211.743 245.536C211.743 245.824 211.834 246.064 212.015 246.256C212.207 246.437 212.442 246.587 212.719 246.704C213.007 246.811 213.402 246.933 213.903 247.072C214.533 247.243 215.045 247.413 215.439 247.584C215.834 247.744 216.17 247.989 216.447 248.32C216.735 248.651 216.885 249.083 216.895 249.616C216.895 250.096 216.762 250.528 216.495 250.912C216.229 251.296 215.85 251.6 215.359 251.824C214.879 252.037 214.325 252.144 213.695 252.144ZM41.3443 273.584C41.3443 272.688 41.5256 271.904 41.8883 271.232C42.2509 270.549 42.7469 270.021 43.3763 269.648C44.0163 269.275 44.7309 269.088 45.5203 269.088C46.2029 269.088 46.8376 269.248 47.4243 269.568C48.0109 269.877 48.4589 270.288 48.7683 270.8V266.16H50.2403V278H48.7683V276.352C48.4803 276.875 48.0536 277.307 47.4883 277.648C46.9229 277.979 46.2616 278.144 45.5043 278.144C44.7256 278.144 44.0163 277.952 43.3763 277.568C42.7469 277.184 42.2509 276.645 41.8883 275.952C41.5256 275.259 41.3443 274.469 41.3443 273.584ZM48.7683 273.6C48.7683 272.939 48.6349 272.363 48.3683 271.872C48.1016 271.381 47.7389 271.008 47.2803 270.752C46.8323 270.485 46.3363 270.352 45.7923 270.352C45.2483 270.352 44.7523 270.48 44.3043 270.736C43.8563 270.992 43.4989 271.365 43.2323 271.856C42.9656 272.347 42.8323 272.923 42.8323 273.584C42.8323 274.256 42.9656 274.843 43.2323 275.344C43.4989 275.835 43.8563 276.213 44.3043 276.48C44.7523 276.736 45.2483 276.864 45.7923 276.864C46.3363 276.864 46.8323 276.736 47.2803 276.48C47.7389 276.213 48.1016 275.835 48.3683 275.344C48.6349 274.843 48.7683 274.261 48.7683 273.6ZM53.4528 267.808C53.1754 267.808 52.9408 267.712 52.7488 267.52C52.5568 267.328 52.4608 267.093 52.4608 266.816C52.4608 266.539 52.5568 266.304 52.7488 266.112C52.9408 265.92 53.1754 265.824 53.4528 265.824C53.7194 265.824 53.9434 265.92 54.1248 266.112C54.3168 266.304 54.4128 266.539 54.4128 266.816C54.4128 267.093 54.3168 267.328 54.1248 267.52C53.9434 267.712 53.7194 267.808 53.4528 267.808ZM54.1568 269.232V278H52.7008V269.232H54.1568ZM59.7423 278.144C59.0703 278.144 58.4676 278.032 57.9343 277.808C57.4009 277.573 56.9796 277.253 56.6703 276.848C56.3609 276.432 56.1903 275.957 56.1583 275.424H57.6623C57.7049 275.861 57.9076 276.219 58.2703 276.496C58.6436 276.773 59.1289 276.912 59.7263 276.912C60.2809 276.912 60.7183 276.789 61.0383 276.544C61.3583 276.299 61.5183 275.989 61.5183 275.616C61.5183 275.232 61.3476 274.949 61.0063 274.768C60.6649 274.576 60.1369 274.389 59.4223 274.208C58.7716 274.037 58.2383 273.867 57.8223 273.696C57.4169 273.515 57.0649 273.253 56.7663 272.912C56.4783 272.56 56.3343 272.101 56.3343 271.536C56.3343 271.088 56.4676 270.677 56.7343 270.304C57.0009 269.931 57.3796 269.637 57.8703 269.424C58.3609 269.2 58.9209 269.088 59.5503 269.088C60.5209 269.088 61.3049 269.333 61.9023 269.824C62.4996 270.315 62.8196 270.987 62.8623 271.84H61.4063C61.3743 271.381 61.1876 271.013 60.8463 270.736C60.5156 270.459 60.0676 270.32 59.5023 270.32C58.9796 270.32 58.5636 270.432 58.2543 270.656C57.9449 270.88 57.7903 271.173 57.7903 271.536C57.7903 271.824 57.8809 272.064 58.0623 272.256C58.2543 272.437 58.4889 272.587 58.7663 272.704C59.0543 272.811 59.4489 272.933 59.9503 273.072C60.5796 273.243 61.0916 273.413 61.4863 273.584C61.8809 273.744 62.2169 273.989 62.4943 274.32C62.7823 274.651 62.9316 275.083 62.9423 275.616C62.9423 276.096 62.8089 276.528 62.5423 276.912C62.2756 277.296 61.8969 277.6 61.4063 277.824C60.9263 278.037 60.3716 278.144 59.7423 278.144ZM66.7736 270.432V275.6C66.7736 276.027 66.8643 276.331 67.0456 276.512C67.227 276.683 67.5416 276.768 67.9896 276.768H69.0616V278H67.7496C66.939 278 66.331 277.813 65.9256 277.44C65.5203 277.067 65.3176 276.453 65.3176 275.6V270.432H64.1816V269.232H65.3176V267.024H66.7736V269.232H69.0616V270.432H66.7736ZM71.5778 267.808C71.3004 267.808 71.0658 267.712 70.8738 267.52C70.6818 267.328 70.5858 267.093 70.5858 266.816C70.5858 266.539 70.6818 266.304 70.8738 266.112C71.0658 265.92 71.3004 265.824 71.5778 265.824C71.8444 265.824 72.0684 265.92 72.2498 266.112C72.4418 266.304 72.5378 266.539 72.5378 266.816C72.5378 267.093 72.4418 267.328 72.2498 267.52C72.0684 267.712 71.8444 267.808 71.5778 267.808ZM72.2818 269.232V278H70.8258V269.232H72.2818ZM79.0353 269.072C80.1019 269.072 80.9659 269.397 81.6273 270.048C82.2886 270.688 82.6193 271.616 82.6193 272.832V278H81.1793V273.04C81.1793 272.165 80.9606 271.499 80.5233 271.04C80.0859 270.571 79.4886 270.336 78.7313 270.336C77.9633 270.336 77.3499 270.576 76.8913 271.056C76.4433 271.536 76.2193 272.235 76.2193 273.152V278H74.7633V269.232H76.2193V270.48C76.5073 270.032 76.8966 269.685 77.3873 269.44C77.8886 269.195 78.4379 269.072 79.0353 269.072ZM84.4536 273.6C84.4536 272.693 84.635 271.904 84.9976 271.232C85.3603 270.549 85.8616 270.021 86.5016 269.648C87.1523 269.275 87.8936 269.088 88.7256 269.088C89.803 269.088 90.6883 269.349 91.3816 269.872C92.0856 270.395 92.5496 271.12 92.7736 272.048H91.2056C91.0563 271.515 90.763 271.093 90.3256 270.784C89.899 270.475 89.3656 270.32 88.7256 270.32C87.8936 270.32 87.2216 270.608 86.7096 271.184C86.1976 271.749 85.9416 272.555 85.9416 273.6C85.9416 274.656 86.1976 275.472 86.7096 276.048C87.2216 276.624 87.8936 276.912 88.7256 276.912C89.3656 276.912 89.899 276.763 90.3256 276.464C90.7523 276.165 91.0456 275.739 91.2056 275.184H92.7736C92.539 276.08 92.0696 276.8 91.3656 277.344C90.6616 277.877 89.7816 278.144 88.7256 278.144C87.8936 278.144 87.1523 277.957 86.5016 277.584C85.8616 277.211 85.3603 276.683 84.9976 276C84.635 275.317 84.4536 274.517 84.4536 273.6ZM96.4924 270.432V275.6C96.4924 276.027 96.583 276.331 96.7644 276.512C96.9457 276.683 97.2604 276.768 97.7084 276.768H98.7804V278H97.4684C96.6577 278 96.0497 277.813 95.6444 277.44C95.239 277.067 95.0364 276.453 95.0364 275.6V270.432H93.9004V269.232H95.0364V267.024H96.4924V269.232H98.7804V270.432H96.4924ZM101.297 267.808C101.019 267.808 100.785 267.712 100.593 267.52C100.401 267.328 100.305 267.093 100.305 266.816C100.305 266.539 100.401 266.304 100.593 266.112C100.785 265.92 101.019 265.824 101.297 265.824C101.563 265.824 101.787 265.92 101.969 266.112C102.161 266.304 102.257 266.539 102.257 266.816C102.257 267.093 102.161 267.328 101.969 267.52C101.787 267.712 101.563 267.808 101.297 267.808ZM102.001 269.232V278H100.545V269.232H102.001ZM107.746 276.656L110.466 269.232H112.018L108.578 278H106.882L103.442 269.232H105.01L107.746 276.656ZM121.451 273.28C121.451 273.557 121.435 273.851 121.403 274.16H114.395C114.448 275.024 114.741 275.701 115.275 276.192C115.819 276.672 116.475 276.912 117.243 276.912C117.872 276.912 118.395 276.768 118.811 276.48C119.237 276.181 119.536 275.787 119.707 275.296H121.275C121.04 276.139 120.571 276.827 119.867 277.36C119.163 277.883 118.288 278.144 117.243 278.144C116.411 278.144 115.664 277.957 115.003 277.584C114.352 277.211 113.84 276.683 113.467 276C113.093 275.307 112.907 274.507 112.907 273.6C112.907 272.693 113.088 271.899 113.451 271.216C113.813 270.533 114.32 270.011 114.971 269.648C115.632 269.275 116.389 269.088 117.243 269.088C118.075 269.088 118.811 269.269 119.451 269.632C120.091 269.995 120.581 270.496 120.923 271.136C121.275 271.765 121.451 272.48 121.451 273.28ZM119.947 272.976C119.947 272.421 119.824 271.947 119.579 271.552C119.333 271.147 118.997 270.843 118.571 270.64C118.155 270.427 117.691 270.32 117.179 270.32C116.443 270.32 115.813 270.555 115.291 271.024C114.779 271.493 114.485 272.144 114.411 272.976H119.947ZM131.206 270.432H129.366V278H127.91V270.432H126.774V269.232H127.91V268.608C127.91 267.627 128.161 266.912 128.662 266.464C129.174 266.005 129.99 265.776 131.11 265.776V266.992C130.47 266.992 130.017 267.12 129.75 267.376C129.494 267.621 129.366 268.032 129.366 268.608V269.232H131.206V270.432ZM140.904 273.28C140.904 273.557 140.888 273.851 140.856 274.16H133.848C133.901 275.024 134.195 275.701 134.728 276.192C135.272 276.672 135.928 276.912 136.696 276.912C137.325 276.912 137.848 276.768 138.264 276.48C138.691 276.181 138.989 275.787 139.16 275.296H140.728C140.493 276.139 140.024 276.827 139.32 277.36C138.616 277.883 137.741 278.144 136.696 278.144C135.864 278.144 135.117 277.957 134.456 277.584C133.805 277.211 133.293 276.683 132.92 276C132.547 275.307 132.36 274.507 132.36 273.6C132.36 272.693 132.541 271.899 132.904 271.216C133.267 270.533 133.773 270.011 134.424 269.648C135.085 269.275 135.843 269.088 136.696 269.088C137.528 269.088 138.264 269.269 138.904 269.632C139.544 269.995 140.035 270.496 140.376 271.136C140.728 271.765 140.904 272.48 140.904 273.28ZM139.4 272.976C139.4 272.421 139.277 271.947 139.032 271.552C138.787 271.147 138.451 270.843 138.024 270.64C137.608 270.427 137.144 270.32 136.632 270.32C135.896 270.32 135.267 270.555 134.744 271.024C134.232 271.493 133.939 272.144 133.864 272.976H139.4ZM142.282 273.584C142.282 272.688 142.463 271.904 142.826 271.232C143.188 270.549 143.684 270.021 144.314 269.648C144.954 269.275 145.663 269.088 146.442 269.088C147.21 269.088 147.876 269.253 148.442 269.584C149.007 269.915 149.428 270.331 149.706 270.832V269.232H151.178V278H149.706V276.368C149.418 276.88 148.986 277.307 148.41 277.648C147.844 277.979 147.183 278.144 146.426 278.144C145.647 278.144 144.943 277.952 144.314 277.568C143.684 277.184 143.188 276.645 142.826 275.952C142.463 275.259 142.282 274.469 142.282 273.584ZM149.706 273.6C149.706 272.939 149.572 272.363 149.306 271.872C149.039 271.381 148.676 271.008 148.218 270.752C147.77 270.485 147.274 270.352 146.73 270.352C146.186 270.352 145.69 270.48 145.242 270.736C144.794 270.992 144.436 271.365 144.17 271.856C143.903 272.347 143.77 272.923 143.77 273.584C143.77 274.256 143.903 274.843 144.17 275.344C144.436 275.835 144.794 276.213 145.242 276.48C145.69 276.736 146.186 276.864 146.73 276.864C147.274 276.864 147.77 276.736 148.218 276.48C148.676 276.213 149.039 275.835 149.306 275.344C149.572 274.843 149.706 274.261 149.706 273.6ZM155.414 270.432V275.6C155.414 276.027 155.505 276.331 155.686 276.512C155.868 276.683 156.182 276.768 156.63 276.768H157.702V278H156.39C155.58 278 154.972 277.813 154.566 277.44C154.161 277.067 153.958 276.453 153.958 275.6V270.432H152.822V269.232H153.958V267.024H155.414V269.232H157.702V270.432H155.414ZM167.242 269.232V278H165.786V276.704C165.509 277.152 165.12 277.504 164.618 277.76C164.128 278.005 163.584 278.128 162.986 278.128C162.304 278.128 161.69 277.989 161.146 277.712C160.602 277.424 160.17 276.997 159.85 276.432C159.541 275.867 159.386 275.179 159.386 274.368V269.232H160.826V274.176C160.826 275.04 161.045 275.707 161.482 276.176C161.92 276.635 162.517 276.864 163.274 276.864C164.053 276.864 164.666 276.624 165.114 276.144C165.562 275.664 165.786 274.965 165.786 274.048V269.232H167.242ZM171.157 270.656C171.413 270.155 171.775 269.765 172.245 269.488C172.725 269.211 173.306 269.072 173.989 269.072V270.576H173.605C171.973 270.576 171.157 271.461 171.157 273.232V278H169.701V269.232H171.157V270.656ZM183.67 273.28C183.67 273.557 183.654 273.851 183.622 274.16H176.614C176.667 275.024 176.96 275.701 177.494 276.192C178.038 276.672 178.694 276.912 179.462 276.912C180.091 276.912 180.614 276.768 181.03 276.48C181.456 276.181 181.755 275.787 181.926 275.296H183.494C183.259 276.139 182.79 276.827 182.086 277.36C181.382 277.883 180.507 278.144 179.462 278.144C178.63 278.144 177.883 277.957 177.222 277.584C176.571 277.211 176.059 276.683 175.686 276C175.312 275.307 175.126 274.507 175.126 273.6C175.126 272.693 175.307 271.899 175.67 271.216C176.032 270.533 176.539 270.011 177.19 269.648C177.851 269.275 178.608 269.088 179.462 269.088C180.294 269.088 181.03 269.269 181.67 269.632C182.31 269.995 182.8 270.496 183.142 271.136C183.494 271.765 183.67 272.48 183.67 273.28ZM182.166 272.976C182.166 272.421 182.043 271.947 181.798 271.552C181.552 271.147 181.216 270.843 180.79 270.64C180.374 270.427 179.91 270.32 179.398 270.32C178.662 270.32 178.032 270.555 177.51 271.024C176.998 271.493 176.704 272.144 176.63 272.976H182.166ZM188.695 278.144C188.023 278.144 187.421 278.032 186.887 277.808C186.354 277.573 185.933 277.253 185.623 276.848C185.314 276.432 185.143 275.957 185.111 275.424H186.615C186.658 275.861 186.861 276.219 187.223 276.496C187.597 276.773 188.082 276.912 188.679 276.912C189.234 276.912 189.671 276.789 189.991 276.544C190.311 276.299 190.471 275.989 190.471 275.616C190.471 275.232 190.301 274.949 189.959 274.768C189.618 274.576 189.09 274.389 188.375 274.208C187.725 274.037 187.191 273.867 186.775 273.696C186.37 273.515 186.018 273.253 185.719 272.912C185.431 272.56 185.287 272.101 185.287 271.536C185.287 271.088 185.421 270.677 185.687 270.304C185.954 269.931 186.333 269.637 186.823 269.424C187.314 269.2 187.874 269.088 188.503 269.088C189.474 269.088 190.258 269.333 190.855 269.824C191.453 270.315 191.773 270.987 191.815 271.84H190.359C190.327 271.381 190.141 271.013 189.799 270.736C189.469 270.459 189.021 270.32 188.455 270.32C187.933 270.32 187.517 270.432 187.207 270.656C186.898 270.88 186.743 271.173 186.743 271.536C186.743 271.824 186.834 272.064 187.015 272.256C187.207 272.437 187.442 272.587 187.719 272.704C188.007 272.811 188.402 272.933 188.903 273.072C189.533 273.243 190.045 273.413 190.439 273.584C190.834 273.744 191.17 273.989 191.447 274.32C191.735 274.651 191.885 275.083 191.895 275.616C191.895 276.096 191.762 276.528 191.495 276.912C191.229 277.296 190.85 277.6 190.359 277.824C189.879 278.037 189.325 278.144 188.695 278.144ZM198.68 278.096C198.403 278.096 198.168 278 197.976 277.808C197.784 277.616 197.688 277.381 197.688 277.104C197.688 276.827 197.784 276.592 197.976 276.4C198.168 276.208 198.403 276.112 198.68 276.112C198.947 276.112 199.171 276.208 199.352 276.4C199.544 276.592 199.64 276.827 199.64 277.104C199.64 277.381 199.544 277.616 199.352 277.808C199.171 278 198.947 278.096 198.68 278.096Z" fill="#575859"/>
<circle cx="121" cy="75" r="75" fill="#C548FF" fill-opacity="0.1"/>
<path d="M135 65.2217C135 61.5086 133.525 57.9477 130.899 55.3222C128.274 52.6967 124.713 51.2217 121 51.2217C117.287 51.2217 113.726 52.6967 111.101 55.3222C108.475 57.9477 107 61.5086 107 65.2217C107 81.555 100 86.2217 100 86.2217H142C142 86.2217 135 81.555 135 65.2217Z" stroke="#9113CD" stroke-width="2" stroke-linecap="round" stroke-linejoin="round"/>
<path d="M125.037 95.5551C124.627 96.2623 124.038 96.8493 123.329 97.2574C122.621 97.6654 121.818 97.8802 121 97.8802C120.183 97.8802 119.379 97.6654 118.671 97.2574C117.962 96.8493 117.374 96.2623 116.963 95.5551" stroke="#9113CD" stroke-width="2" stroke-linecap="round" stroke-linejoin="round"/>
</svg>
