<svg width="109" height="109" viewBox="0 0 109 109" fill="none" xmlns="http://www.w3.org/2000/svg">
<circle cx="54.5" cy="54.5" r="54.5" fill="#E1F8FA"/>
<path d="M54.1241 36.0828C53.958 36.0828 53.7987 36.1488 53.6812 36.2662C53.5637 36.3837 53.4977 36.5431 53.4977 36.7092V39.2306C49.4578 39.3965 45.6382 41.1168 42.8367 44.0322C40.0351 46.9476 38.4682 50.8326 38.4632 54.8759C38.465 57.0395 38.919 59.1788 39.7963 61.1565C39.77 61.1492 39.7432 61.1438 39.7161 61.1402H35.9575C35.7913 61.1402 35.632 61.2062 35.5145 61.3237C35.397 61.4412 35.331 61.6005 35.331 61.7667V73.0425C35.331 73.2087 35.397 73.368 35.5145 73.4855C35.632 73.603 35.7913 73.669 35.9575 73.669H39.7161C39.8822 73.669 40.0416 73.603 40.1591 73.4855C40.2765 73.368 40.3425 73.2087 40.3425 73.0425V62.2722C40.711 62.9575 41.1298 63.6145 41.5954 64.238V69.9104C41.5954 70.0765 41.6614 70.2358 41.7789 70.3533C41.8964 70.4708 42.0557 70.5368 42.2218 70.5368H45.9805C46.1466 70.5368 46.3059 70.4708 46.4234 70.3533C46.5409 70.2358 46.6069 70.0765 46.6069 69.9104V68.6024C48.9434 69.8869 51.5695 70.5527 54.2358 70.5367C56.902 70.5206 59.5199 69.8231 61.8407 68.5105C64.1616 67.1979 66.1083 65.3138 67.496 63.0371C68.8837 60.7603 69.6663 58.1666 69.7694 55.5023H72.2908C72.457 55.5023 72.6163 55.4363 72.7338 55.3188C72.8512 55.2013 72.9172 55.042 72.9172 54.8759C72.9116 49.8934 70.9298 45.1165 67.4067 41.5934C63.8835 38.0702 59.1067 36.0884 54.1241 36.0828ZM39.0897 72.4161H36.5839V62.3931H39.0897V72.4161ZM45.354 69.2839H42.8483V60.5138H45.354V69.2839ZM54.1241 69.2839C51.4693 69.2852 48.8665 68.5477 46.6069 67.154V59.8874C46.6069 59.7212 46.5409 59.5619 46.4234 59.4444C46.3059 59.3269 46.1466 59.2609 45.9805 59.2609H42.2218C42.0557 59.2609 41.8964 59.3269 41.7789 59.4444C41.6614 59.5619 41.5954 59.7212 41.5954 59.8874V61.9734C40.3777 59.8293 39.7313 57.4082 39.7182 54.9425C39.7051 52.4767 40.3257 50.0489 41.5205 47.892C42.7154 45.735 44.4443 43.9212 46.5416 42.6245C48.6389 41.3277 51.0342 40.5916 53.4977 40.4866V54.8759C53.4975 54.9583 53.5137 55.04 53.5453 55.1161C53.5769 55.1922 53.6234 55.2613 53.6819 55.3194L63.8721 65.4746C61.218 67.9258 57.7371 69.2861 54.1241 69.2839ZM64.7573 64.5856L55.6401 55.5023H68.5165C68.3717 58.8782 67.0405 62.0948 64.7573 64.5856ZM54.7506 54.2494V37.3469C59.1813 37.5104 63.3861 39.3437 66.5212 42.4788C69.6563 45.6139 71.4896 49.8188 71.6531 54.2494H54.7506Z" fill="#11A3AC"/>
<path d="M52.2447 56.1289H48.4861C48.3199 56.1289 48.1606 56.1949 48.0431 56.3124C47.9256 56.4299 47.8596 56.5892 47.8596 56.7553V64.2726C47.8596 64.4387 47.9256 64.5981 48.0431 64.7155C48.1606 64.833 48.3199 64.899 48.4861 64.899H52.2447C52.4108 64.899 52.5702 64.833 52.6876 64.7155C52.8051 64.5981 52.8711 64.4387 52.8711 64.2726V56.7553C52.8711 56.5892 52.8051 56.4299 52.6876 56.3124C52.5702 56.1949 52.4108 56.1289 52.2447 56.1289ZM51.6183 63.6461H49.1125V57.3818H51.6183V63.6461Z" fill="#11A3AC"/>
</svg>
