<svg width="747" height="454" viewBox="0 0 747 454" fill="none" xmlns="http://www.w3.org/2000/svg">
<path opacity="0.3" d="M598.283 100.916C585.209 98.8068 572.135 96.8896 559.061 94.9724C468.697 81.9356 468.889 5.82363 415.247 9.65798C379.678 12.1503 351.992 68.8988 326.806 36.8819C270.857 -34.4371 207.602 9.65798 189.914 68.1319C180.877 97.8482 185.299 116.445 184.146 158.048C182.031 221.698 106.471 204.443 45.9078 241.445C-11.3869 276.529 -12.7328 338.837 28.9885 370.471C94.3584 419.934 166.842 357.242 223.368 407.089C324.306 496.429 337.573 437.189 416.593 400.954C485.231 369.321 531.183 408.623 594.63 407.089C646.157 408.814 685.571 390.218 715.564 351.683C792.085 252.948 719.601 121.429 598.283 100.916Z" fill="url(#paint0_linear)"/>
<defs>
<linearGradient id="paint0_linear" x1="414.464" y1="401.246" x2="338.551" y2="179.385" gradientUnits="userSpaceOnUse">
<stop stop-color="#FE8900"/>
<stop offset="1" stop-color="#FE5500"/>
</linearGradient>
</defs>
</svg>
